<svg width="421" height="368" viewBox="0 0 421 368" fill="none" xmlns="http://www.w3.org/2000/svg">
<path d="M9.57074 293.239H391.698" stroke="#263238" stroke-miterlimit="10"/>
<path d="M9.57074 220.891H391.698" stroke="#263238" stroke-miterlimit="10"/>
<path d="M9.57074 148.542H391.698" stroke="#263238" stroke-miterlimit="10"/>
<path d="M9.57074 76.1934H391.698" stroke="#263238" stroke-miterlimit="10"/>
<path d="M96.4536 35.1128V293.41" stroke="#263238" stroke-miterlimit="10"/>
<path d="M326.137 35.1128V293.41" stroke="#263238" stroke-miterlimit="10"/>
<path d="M104.986 130.86L102.142 133.856" stroke="#263238" stroke-miterlimit="10"/>
<path d="M153.424 79.7769L108.409 127.248" stroke="#263238" stroke-miterlimit="10"/>
<path d="M156.23 87.5037L130.945 113.491" stroke="#263238" stroke-miterlimit="10"/>
<path d="M335.969 130.86L333.125 133.856" stroke="#263238" stroke-miterlimit="10"/>
<path d="M384.397 79.7769L339.391 127.248" stroke="#263238" stroke-miterlimit="10"/>
<path d="M387.213 87.5037L361.928 113.491" stroke="#263238" stroke-miterlimit="10"/>
<path d="M3.84426 276.961L1 279.957" stroke="#263238" stroke-miterlimit="10"/>
<path d="M52.2726 225.868L7.26685 273.349" stroke="#263238" stroke-miterlimit="10"/>
<path d="M55.0884 233.595L29.7934 259.592" stroke="#263238" stroke-miterlimit="10"/>
<path d="M41.0661 69.0542L38.2313 72.0502" stroke="#263238" stroke-miterlimit="10"/>
<path d="M89.504 17.9617L44.4983 65.4324" stroke="#263238" stroke-miterlimit="10"/>
<path d="M92.3104 25.6892L67.0249 51.6763" stroke="#263238" stroke-miterlimit="10"/>
<path d="M251.542 69.0542L248.707 72.0502" stroke="#263238" stroke-miterlimit="10"/>
<path d="M299.98 17.9617L254.974 65.4324" stroke="#263238" stroke-miterlimit="10"/>
<path d="M302.786 25.6892L277.5 51.6763" stroke="#263238" stroke-miterlimit="10"/>
<path d="M186.465 206.015L183.621 209.011" stroke="#263238" stroke-miterlimit="10"/>
<path d="M234.893 154.932L189.887 202.403" stroke="#263238" stroke-miterlimit="10"/>
<path d="M237.709 162.659L212.424 188.646" stroke="#263238" stroke-miterlimit="10"/>
<path d="M380.52 346.702C380.52 346.702 357.045 296.681 362.146 295.24C367.246 293.799 377.941 301.763 377.941 301.763C377.941 301.763 346.559 217.667 354.684 211.144C362.809 204.621 377.979 238.004 377.979 238.004C377.979 238.004 361.776 186.494 363.682 166.897C365.587 147.3 386.17 166.176 386.17 166.176C386.17 166.176 369.683 95.8568 384.995 92.2256C400.306 88.5944 399.794 172.69 399.794 172.69C399.794 172.69 404.819 112.515 410.953 129.192C417.087 145.868 404.193 201.682 404.193 201.682C404.193 201.682 412.603 182.834 417.277 200.232C421.951 217.629 407.986 287.949 407.986 287.949C407.986 287.949 419.856 276.354 420.965 290.85C422.074 305.346 396.391 350.295 396.391 350.295L381.856 351.774L380.52 346.702Z" fill="#569AFF"/>
<path opacity="0.6" d="M380.52 346.702C380.52 346.702 357.045 296.681 362.146 295.24C367.246 293.799 377.941 301.763 377.941 301.763C377.941 301.763 346.559 217.667 354.684 211.144C362.809 204.621 377.979 238.004 377.979 238.004C377.979 238.004 361.776 186.494 363.682 166.897C365.587 147.3 386.17 166.176 386.17 166.176C386.17 166.176 369.683 95.8568 384.995 92.2256C400.306 88.5944 399.794 172.69 399.794 172.69C399.794 172.69 404.819 112.515 410.953 129.192C417.087 145.868 404.193 201.682 404.193 201.682C404.193 201.682 412.603 182.834 417.277 200.232C421.951 217.629 407.986 287.949 407.986 287.949C407.986 287.949 419.856 276.354 420.965 290.85C422.074 305.346 396.391 350.295 396.391 350.295L381.856 351.774L380.52 346.702Z" fill="white"/>
<path d="M385.535 348.93C385.535 348.93 365.967 314.135 369.588 307.603C373.21 301.071 384.085 316.306 384.085 316.306C384.085 316.306 359.434 254.681 363.065 248.888C366.697 243.095 378.292 268.466 378.292 268.466C378.292 268.466 373.94 183.65 381.183 186.541C388.427 189.433 389.128 229.992 389.128 229.992C389.128 229.992 384.786 133.581 391.309 136.482C397.832 139.384 397.111 246.669 397.111 246.669C397.111 246.669 410.157 205.342 412.328 224.19C414.499 243.038 395.661 293.789 395.661 293.789C395.661 293.789 413.779 253.913 415.988 274.979C418.197 296.046 401.454 335.107 401.454 335.107C401.454 335.107 407.976 319.16 407.976 327.854C407.976 336.548 402.904 347.432 402.904 347.432" stroke="#263238" stroke-linecap="round" stroke-linejoin="round"/>
<path d="M331.693 241.075L358.097 298.7L341.487 303.383L321.899 278.998L331.693 241.075Z" fill="#569AFF"/>
<g opacity="0.1">
<path opacity="0.1" d="M326.924 259.525L325.806 263.877L347.735 301.62L350.882 300.739L326.924 259.525Z" fill="black"/>
<path opacity="0.1" d="M341.61 303.355L344.777 302.464L324.374 269.404L323.284 273.642L341.61 303.355Z" fill="black"/>
<path opacity="0.1" d="M329.636 249.03L328.479 253.523L353.66 299.951L356.77 299.07L329.636 249.03Z" fill="black"/>
</g>
<path d="M331.693 241.075L358.097 298.7L341.487 303.383L321.899 278.998L331.693 241.075Z" stroke="#263238" stroke-linecap="round" stroke-linejoin="round"/>
<path d="M279.179 225.024L244.791 240.867L263.127 315.263L257.287 346.56H322.525L316.069 312.552L331.902 241.075L295.846 226.276L279.179 225.024Z" fill="#569AFF"/>
<g opacity="0.1">
<path opacity="0.1" d="M279.491 346.559L280.809 316.922C280.823 316.783 280.823 316.644 280.809 316.505L267.299 230.504L263.317 232.334L276.59 316.951L275.272 346.559H279.491Z" fill="black"/>
<path opacity="0.1" d="M287.399 309.83C287.399 309.83 287.399 309.755 287.399 309.717L276.685 226.171L272.675 228.067L283.199 310.238L285.91 346.607H290.139L287.399 309.83Z" fill="black"/>
<path opacity="0.1" d="M267.564 346.559L271.357 317.633C271.39 317.419 271.39 317.201 271.357 316.988L256.898 235.31L252.945 237.13L267.166 317.405L263.374 346.559H267.564Z" fill="black"/>
<path opacity="0.1" d="M330.404 240.458L326.431 238.828L311.935 313.793C311.892 314.038 311.892 314.288 311.935 314.532L317.15 346.559H321.425L316.126 314.229L316.249 313.613L316.04 312.551L319.216 298.244L330.404 240.458Z" fill="black"/>
<path opacity="0.1" d="M292.404 233.538L288.195 233.661L291.693 346.559H295.903L292.404 233.538Z" fill="black"/>
<path opacity="0.1" d="M307.185 313.679L321.188 236.676L317.206 235.035L302.985 313.291C302.938 313.532 302.938 313.78 302.985 314.021L308.541 346.559H312.817L307.185 313.679Z" fill="black"/>
<path opacity="0.1" d="M299.534 311.063L310.181 232.154L306.152 230.504L295.325 310.76C295.302 310.929 295.302 311.102 295.325 311.272L299.25 346.559H303.488L299.534 311.063Z" fill="black"/>
</g>
<path d="M279.179 225.024L244.791 240.867L263.127 315.263L257.287 346.56H322.525L316.069 312.552L331.902 241.075L295.846 226.276L279.179 225.024Z" stroke="#263238" stroke-linecap="round" stroke-linejoin="round"/>
<path d="M244.791 240.866L217.704 299.525L234.998 303.175L254.585 278.79L244.791 240.866Z" fill="#569AFF"/>
<g opacity="0.1">
<path opacity="0.1" d="M251.912 268.437L233.045 302.767L234.998 303.174L239.511 297.552L253.059 272.902L251.912 268.437Z" fill="black"/>
<path opacity="0.1" d="M250.214 261.876L248.982 257.098L227.925 301.686L231.101 302.359L250.214 261.876Z" fill="black"/>
<path opacity="0.1" d="M221.051 300.226L224.227 300.899L247.522 251.438L246.28 246.64L221.051 300.226Z" fill="black"/>
</g>
<path d="M244.08 250.632L253.637 276.278L244.042 261.592" stroke="#263238" stroke-miterlimit="10"/>
<path d="M244.791 240.866L217.704 299.525L234.998 303.175L254.585 278.79L244.791 240.866Z" stroke="#263238" stroke-linecap="round" stroke-linejoin="round"/>
<path d="M236.24 294.424L270.418 333.4L263.782 340.9L220.71 306.598C220.71 306.598 214.803 303.753 218.349 297.97" fill="#569AFF"/>
<g opacity="0.1">
<path opacity="0.1" d="M266.834 336.111L270.039 333.371L252.803 313.31L236.24 294.424L231.784 295.306L266.834 336.111Z" fill="black"/>
<path opacity="0.1" d="M260.008 337.913L262.862 340.189L265.545 337.828L228.683 295.922L223.905 296.861L260.008 337.913Z" fill="black"/>
</g>
<path d="M236.24 294.424L270.418 333.4L263.782 340.9L220.71 306.598C220.71 306.598 214.803 303.753 218.349 297.97" stroke="#263238" stroke-linecap="round" stroke-linejoin="round"/>
<path d="M264.929 331.931C265.877 331.4 282.364 327.456 282.592 329.475C282.819 331.495 287.73 333.723 289.968 333.723C292.205 333.723 294.443 331.931 294.888 334.614C295.334 337.297 292.878 337.525 290.868 337.743C288.858 337.961 281.918 335.733 281.918 335.733C281.918 335.733 275.434 341.099 272.75 342.436C270.067 343.773 265.166 343.384 263.364 341.99C261.563 340.596 259.126 335.06 264.929 331.931Z" fill="white" stroke="#263238" stroke-linecap="round" stroke-linejoin="round"/>
<path d="M280.146 329.248C280.146 329.248 286.403 327.456 287.73 328.129C289.058 328.802 289.75 342.217 289.75 342.217C289.75 342.217 289.076 343.554 287.73 342.217C286.384 340.881 281.918 330.84 281.918 330.84" fill="white"/>
<path d="M280.146 329.248C280.146 329.248 286.403 327.456 287.73 328.129C289.058 328.802 289.75 342.217 289.75 342.217C289.75 342.217 289.076 343.554 287.73 342.217C286.384 340.881 281.918 330.84 281.918 330.84" stroke="#263238" stroke-linecap="round" stroke-linejoin="round"/>
<path d="M277.007 329.693C277.007 329.693 283.492 328.128 284.839 330.584C286.185 333.039 289.532 343.999 286.849 344.454C284.166 344.91 283.274 341.316 283.274 341.316L279.027 333.495L276.116 333.049" fill="white"/>
<path d="M277.007 329.693C277.007 329.693 283.492 328.128 284.839 330.584C286.185 333.039 289.532 343.999 286.849 344.454C284.166 344.91 283.274 341.316 283.274 341.316L279.027 333.495L276.116 333.049" stroke="#263238" stroke-linecap="round" stroke-linejoin="round"/>
<path d="M274.779 331.703C274.779 331.703 277.908 330.366 279.472 331.485C281.037 332.604 288.195 344 286.848 344.455C285.502 344.91 282.373 344.673 281.928 343.782C281.482 342.89 275.67 335.249 275.67 335.249" fill="white"/>
<path d="M274.779 331.703C274.779 331.703 277.908 330.366 279.472 331.485C281.037 332.604 288.195 344 286.848 344.455C285.502 344.91 282.373 344.673 281.928 343.782C281.482 342.89 275.67 335.249 275.67 335.249" stroke="#263238" stroke-linecap="round" stroke-linejoin="round"/>
<path d="M272.513 335.505C272.513 335.505 275.415 332.822 276.979 333.722C278.543 334.623 285.028 343.109 283.691 344C282.355 344.891 281.454 344 280.117 342.217C279.158 341.015 278.027 339.961 276.761 339.089L274.078 339.98" fill="white"/>
<path d="M272.513 335.505C272.513 335.505 275.415 332.822 276.979 333.722C278.543 334.623 285.028 343.109 283.691 344C282.355 344.891 281.454 344 280.117 342.217C279.158 341.015 278.027 339.961 276.761 339.089L274.078 339.98" stroke="#263238" stroke-linecap="round" stroke-linejoin="round"/>
<path d="M338.576 295.676L327.199 334.386L335.429 340.132L354.021 310.248C354.021 310.248 361.662 301.62 356.865 296.766" fill="#569AFF"/>
<g opacity="0.1">
<path opacity="0.1" d="M335.685 339.666L335.827 339.429L351.575 296.452L347.175 296.187L331.959 337.732L333.665 338.917L335.685 339.666Z" fill="black"/>
<path opacity="0.1" d="M327.218 334.414L330.793 336.917L345.488 296.206L345.08 296.064L341.146 295.827L327.218 334.414Z" fill="black"/>
<path opacity="0.1" d="M358.164 299.031C357.912 298.175 357.449 297.396 356.817 296.765L354.561 296.632L342.672 328.479L353.973 310.294L358.164 299.031Z" fill="black"/>
</g>
<path d="M338.576 295.676L327.199 334.386L335.429 340.132L354.021 310.248C354.021 310.248 361.662 301.62 356.865 296.766" stroke="#263238" stroke-linecap="round" stroke-linejoin="round"/>
<path d="M332.926 331.931C331.978 331.4 315.481 327.456 315.263 329.475C315.045 331.495 310.115 333.723 307.887 333.723C305.659 333.723 303.412 331.931 302.966 334.614C302.52 337.297 304.976 337.525 306.986 337.743C308.996 337.961 315.936 335.733 315.936 335.733C315.936 335.733 322.421 341.099 325.104 342.436C327.787 343.773 332.689 343.384 334.49 341.99C336.291 340.596 338.737 335.06 332.926 331.931Z" fill="white" stroke="#263238" stroke-linecap="round" stroke-linejoin="round"/>
<path d="M317.718 329.248C317.718 329.248 311.461 327.456 310.134 328.129C308.806 328.802 308.124 342.217 308.124 342.217C308.124 342.217 308.797 343.554 310.134 342.217C311.47 340.881 315.955 330.84 315.955 330.84" fill="white"/>
<path d="M317.718 329.248C317.718 329.248 311.461 327.456 310.134 328.129C308.806 328.802 308.124 342.217 308.124 342.217C308.124 342.217 308.797 343.554 310.134 342.217C311.47 340.881 315.955 330.84 315.955 330.84" stroke="#263238" stroke-linecap="round" stroke-linejoin="round"/>
<path d="M320.866 329.693C320.866 329.693 314.391 328.128 313.044 330.584C311.698 333.039 308.304 343.999 311.034 344.454C313.765 344.91 314.609 341.316 314.609 341.316L318.856 333.495L321.767 333.049" fill="white"/>
<path d="M320.866 329.693C320.866 329.693 314.391 328.128 313.044 330.584C311.698 333.039 308.304 343.999 311.034 344.454C313.765 344.91 314.609 341.316 314.609 341.316L318.856 333.495L321.767 333.049" stroke="#263238" stroke-linecap="round" stroke-linejoin="round"/>
<path d="M323.084 331.703C323.084 331.703 319.956 330.366 318.391 331.485C316.827 332.604 309.669 344 311.015 344.455C312.362 344.91 315.481 344.673 315.936 343.782C316.391 342.89 322.193 335.249 322.193 335.249" fill="white"/>
<path d="M323.084 331.703C323.084 331.703 319.956 330.366 318.391 331.485C316.827 332.604 309.669 344 311.015 344.455C312.362 344.91 315.481 344.673 315.936 343.782C316.391 342.89 322.193 335.249 322.193 335.249" stroke="#263238" stroke-linecap="round" stroke-linejoin="round"/>
<path d="M325.322 335.505C325.322 335.505 322.421 332.812 320.866 333.76C319.311 334.708 312.817 343.146 314.163 344.038C315.509 344.929 316.401 344.038 317.737 342.255C318.696 341.053 319.827 339.999 321.094 339.127L323.777 340.018" fill="white"/>
<path d="M325.322 335.505C325.322 335.505 322.421 332.812 320.866 333.76C319.311 334.708 312.817 343.146 314.163 344.038C315.509 344.929 316.401 344.038 317.737 342.255C318.696 341.053 319.827 339.999 321.094 339.127L323.777 340.018" stroke="#263238" stroke-linecap="round" stroke-linejoin="round"/>
<path d="M281.672 221.061C281.672 221.061 276.258 222.73 273.964 226.067C271.67 229.404 274.381 255.24 274.381 255.24L291.684 245.654L309.811 257.117C309.811 257.117 308.143 230.656 306.683 226.901C305.223 223.147 296.055 218.776 292.926 219.193C289.797 219.61 281.672 221.061 281.672 221.061Z" fill="#569AFF" stroke="#263238" stroke-linecap="round" stroke-linejoin="round"/>
<path d="M279.179 206.688V230.655L290.641 261.497L300.435 230.03V206.479L279.179 206.688Z" fill="white" stroke="#263238" stroke-linecap="round" stroke-linejoin="round"/>
<path d="M279.15 215.296C282.385 217.567 286.243 218.782 290.195 218.776C293.808 218.779 297.348 217.76 300.406 215.837V206.479L279.15 206.716V215.296Z" fill="#263238" stroke="#263238" stroke-linecap="round" stroke-linejoin="round"/>
<path d="M290.224 213.354C285.103 213.354 280.193 211.32 276.571 207.7C272.95 204.081 270.914 199.171 270.911 194.05L267.508 166.897C267.508 160.862 269.905 155.075 274.172 150.808C278.439 146.54 284.227 144.143 290.262 144.143C296.296 144.143 302.084 146.54 306.351 150.808C310.618 155.075 313.016 160.862 313.016 166.897L309.489 194.013C309.494 196.547 309 199.059 308.034 201.402C307.069 203.746 305.651 205.877 303.862 207.673C302.073 209.469 299.948 210.895 297.608 211.87C295.268 212.844 292.759 213.349 290.224 213.354Z" fill="white" stroke="#263238" stroke-linecap="round" stroke-linejoin="round"/>
<path d="M295.182 186.617C295.182 186.617 300.103 182.493 305.981 186.939" stroke="#263238" stroke-linecap="round" stroke-linejoin="round"/>
<path d="M286.289 186.143C284.828 185.212 283.088 184.82 281.369 185.034" stroke="#263238" stroke-linecap="round" stroke-linejoin="round"/>
<path d="M297.088 176.776C297.088 176.776 302.331 174.235 305.507 179.155" stroke="#263238" stroke-linecap="round" stroke-linejoin="round"/>
<path d="M288.631 197.577C288.631 197.577 290.859 199.321 292.765 197.577" stroke="#263238" stroke-linecap="round" stroke-linejoin="round"/>
<path d="M286.45 201.388C286.45 201.388 291.058 204.232 293.751 201.388" stroke="#263238" stroke-linecap="round" stroke-linejoin="round"/>
<path d="M299.932 164.053C299.932 164.053 280.895 181.631 275.585 194.439C270.276 207.248 275.035 220.625 277.965 224.475C280.895 228.324 282.705 228.864 282.705 228.864C282.705 228.864 272.637 232.713 266.048 222.645C259.458 212.576 261.098 201.218 263.118 193.349C265.137 185.48 264.578 162.403 269.157 154.714C273.737 147.025 280.326 141.346 291.314 142.626C302.302 143.906 308.152 149.585 311.632 156.724C315.111 163.863 313.461 175.951 314.561 181.261C315.661 186.57 320.42 202.498 321.52 212.017C322.62 221.536 309.641 228.314 307.593 229.234C306.201 229.819 304.712 230.141 303.203 230.182C303.203 230.182 307.593 208.215 308.512 195.577C309.432 182.939 309.489 175.43 309.489 175.43C309.489 175.43 300.852 164.603 299.932 164.053Z" fill="#263238"/>
<path d="M297.704 151.727C297.704 151.727 295.457 157.918 279.292 175.657C263.127 193.396 258.738 210.319 263.649 226.854" stroke="#707070" stroke-miterlimit="10"/>
<path d="M293.713 145.545C293.713 145.545 284.82 152.912 273.803 163.948C267.032 170.779 261.249 178.524 256.623 186.958" stroke="#707070" stroke-miterlimit="10"/>
<path d="M301.686 153.216C301.686 153.216 308.437 165.484 312.115 172.851C315.794 180.217 320.098 221.62 307.214 236.373" stroke="#707070" stroke-miterlimit="10"/>
<path d="M297.088 143.09L299.932 164.053" stroke="#707070" stroke-miterlimit="10"/>
<path d="M299.932 164.053C299.932 164.053 280.895 181.631 275.585 194.439C270.276 207.248 275.035 220.625 277.965 224.475C280.895 228.324 282.705 228.864 282.705 228.864C282.705 228.864 272.637 232.713 266.048 222.645C259.458 212.576 261.098 201.218 263.118 193.349C265.137 185.48 264.578 162.403 269.157 154.714C273.737 147.025 280.326 141.346 291.314 142.626C302.302 143.906 308.152 149.585 311.632 156.724C315.111 163.863 313.461 175.951 314.561 181.261C315.661 186.57 320.42 202.498 321.52 212.017C322.62 221.536 309.641 228.314 307.593 229.234C306.201 229.819 304.712 230.141 303.203 230.182C303.203 230.182 307.593 208.215 308.512 195.577C309.432 182.939 309.489 175.43 309.489 175.43C309.489 175.43 300.852 164.603 299.932 164.053Z" stroke="#263238" stroke-linecap="round" stroke-linejoin="round"/>
<path d="M265.63 176.321H262.824C261.274 176.321 260.018 177.577 260.018 179.127V190.362C260.018 191.912 261.274 193.168 262.824 193.168H265.63C267.18 193.168 268.437 191.912 268.437 190.362V179.127C268.437 177.577 267.18 176.321 265.63 176.321Z" fill="white" stroke="#263238" stroke-linecap="round" stroke-linejoin="round"/>
<path d="M317.083 176.321H314.277C312.727 176.321 311.47 177.577 311.47 179.127V190.362C311.47 191.912 312.727 193.168 314.277 193.168H317.083C318.633 193.168 319.889 191.912 319.889 190.362V179.127C319.889 177.577 318.633 176.321 317.083 176.321Z" fill="white" stroke="#263238" stroke-linecap="round" stroke-linejoin="round"/>
<path d="M316.41 176.321V167.162C316.41 160.074 313.594 153.276 308.582 148.264C303.57 143.251 296.772 140.436 289.683 140.436C282.594 140.436 275.795 143.251 270.781 148.263C265.768 153.275 262.95 160.073 262.947 167.162V176.321" stroke="#263238" stroke-width="2" stroke-linejoin="round"/>
<path d="M315.68 193.083C315.68 193.083 314.495 202.251 303.279 205.986" stroke="#263238" stroke-linecap="round" stroke-linejoin="round"/>
<path d="M302.852 205.588C303.326 206.963 301.99 208.669 299.856 209.38C297.723 210.092 295.628 209.608 295.116 208.233C294.604 206.859 295.979 205.152 298.102 204.441C300.226 203.73 302.407 204.213 302.852 205.588Z" stroke="#263238" stroke-linecap="round" stroke-linejoin="round"/>
<path d="M110.959 217.411L71.7842 236.079L83.0854 346.788H161.179L172.225 234.24L135.41 217.146L110.959 217.411Z" fill="#569AFF" stroke="#263238" stroke-linecap="round" stroke-linejoin="round"/>
<path d="M126.66 251.192C127.393 251.192 127.987 250.598 127.987 249.864C127.987 249.131 127.393 248.537 126.66 248.537C125.927 248.537 125.332 249.131 125.332 249.864C125.332 250.598 125.927 251.192 126.66 251.192Z" fill="#263238"/>
<path d="M127.987 257.829C127.987 258.091 127.909 258.348 127.763 258.566C127.617 258.784 127.41 258.954 127.168 259.055C126.925 259.155 126.658 259.182 126.401 259.13C126.143 259.079 125.907 258.953 125.721 258.767C125.535 258.581 125.409 258.345 125.358 258.087C125.307 257.83 125.333 257.563 125.433 257.321C125.534 257.078 125.704 256.871 125.922 256.725C126.14 256.579 126.397 256.501 126.66 256.501C127.012 256.501 127.349 256.641 127.598 256.89C127.847 257.139 127.987 257.477 127.987 257.829Z" fill="#263238"/>
<path d="M140.246 223.062L129.542 234.998L124.972 246.593L120.051 234.828L109.698 223.062V202.166H140.246V223.062Z" fill="white" stroke="#263238" stroke-linecap="round" stroke-linejoin="round"/>
<path d="M109.698 211.457C111.713 213.907 114.247 215.879 117.116 217.231C119.985 218.584 123.118 219.283 126.29 219.279C131.409 219.285 136.361 217.455 140.246 214.121V202.166H109.698V211.457Z" fill="#263238" stroke="#263238" stroke-linecap="round" stroke-linejoin="round"/>
<path d="M128.442 143.688H124.138C113.445 143.688 104.778 152.356 104.778 163.048V194.041C104.778 204.733 113.445 213.401 124.138 213.401H128.442C139.134 213.401 147.802 204.733 147.802 194.041V163.048C147.802 152.356 139.134 143.688 128.442 143.688Z" fill="white" stroke="#263238" stroke-linecap="round" stroke-linejoin="round"/>
<path d="M130.414 174.595L129.779 189.831C129.766 190.491 129.552 191.132 129.163 191.666C128.775 192.2 128.232 192.602 127.608 192.818C126.461 193.169 125.152 192.818 124.441 190.229" stroke="#263238" stroke-linecap="round" stroke-linejoin="round"/>
<path d="M117.975 195.842H135.041C135.041 195.842 132.054 202.346 126.261 202.346C120.469 202.346 117.975 195.842 117.975 195.842Z" fill="#263238" stroke="#263238" stroke-linecap="round" stroke-linejoin="round"/>
<path d="M119.189 198.127H133.562C134.108 197.413 134.584 196.648 134.984 195.842H117.975C118.299 196.644 118.706 197.41 119.189 198.127Z" fill="white" stroke="#263238" stroke-linecap="round" stroke-linejoin="round"/>
<path d="M117.776 181.45C118.457 181.45 119.008 180.151 119.008 178.549C119.008 176.946 118.457 175.647 117.776 175.647C117.095 175.647 116.543 176.946 116.543 178.549C116.543 180.151 117.095 181.45 117.776 181.45Z" fill="#263238"/>
<path d="M136.207 181.45C136.888 181.45 137.439 180.151 137.439 178.549C137.439 176.946 136.888 175.647 136.207 175.647C135.526 175.647 134.974 176.946 134.974 178.549C134.974 180.151 135.526 181.45 136.207 181.45Z" fill="#263238"/>
<path d="M132.348 170.908C132.348 170.908 136.558 168.272 141.308 172.491" stroke="#263238" stroke-linecap="round" stroke-linejoin="round"/>
<path d="M126.29 143.688C120.584 143.688 115.113 145.954 111.078 149.989C107.044 154.023 104.778 159.495 104.778 165.2V184.797H104.958H106.712V176.719C106.712 176.719 115.491 176.719 125.854 171.107C136.216 165.494 138.833 156.335 138.833 156.335C138.833 156.335 141.118 167.4 143.573 169.504L146.039 171.609V184.958H147.792V165.2C147.792 159.496 145.527 154.026 141.495 149.992C137.463 145.958 131.994 143.691 126.29 143.688Z" fill="#263238" stroke="#263238" stroke-linecap="round" stroke-linejoin="round"/>
<path d="M100.748 174.425H104.778V190.4H100.748C99.7224 190.4 98.7385 189.993 98.013 189.267C97.2876 188.542 96.8801 187.558 96.8801 186.532V178.274C96.8851 177.252 97.2948 176.273 98.0197 175.551C98.7446 174.83 99.7256 174.425 100.748 174.425Z" fill="white" stroke="#263238" stroke-linecap="round" stroke-linejoin="round"/>
<path d="M151.575 190.4H147.546V174.425H151.575C152.083 174.425 152.586 174.525 153.056 174.719C153.525 174.914 153.951 175.199 154.311 175.558C154.67 175.917 154.955 176.343 155.149 176.813C155.343 177.282 155.444 177.785 155.444 178.293V186.551C155.439 187.574 155.029 188.553 154.304 189.274C153.579 189.995 152.598 190.4 151.575 190.4Z" fill="white" stroke="#263238" stroke-linecap="round" stroke-linejoin="round"/>
<path d="M101.27 174.425V164.233C101.27 157.62 103.897 151.278 108.573 146.602C113.249 141.926 119.592 139.299 126.205 139.299V139.299C132.817 139.301 139.158 141.929 143.833 146.605C148.509 151.28 151.137 157.621 151.139 164.233V174.425" stroke="#263238" stroke-width="2" stroke-linejoin="round"/>
<path d="M151.158 190.4C151.158 190.4 149.926 199.881 138.34 203.749" stroke="#263238" stroke-linecap="round" stroke-linejoin="round"/>
<path d="M137.885 203.332C138.378 204.754 136.994 206.517 134.794 207.285C132.595 208.053 130.414 207.513 129.921 206.091C129.428 204.669 130.812 202.905 133.012 202.137C135.211 201.369 137.42 201.91 137.885 203.332Z" stroke="#263238" stroke-linecap="round" stroke-linejoin="round"/>
<path d="M71.7842 236.079L38.6485 306.19L52.3199 318.117L77.0366 287.095L71.7842 236.079Z" fill="#569AFF" stroke="#263238" stroke-linecap="round" stroke-linejoin="round"/>
<path d="M69.0632 257.573L77.1125 284.726L67.5558 269.13" stroke="#263238" stroke-miterlimit="10"/>
<path d="M172.225 234.24L203.777 304.711L184.322 313.13L166.963 285.257L172.225 234.24Z" fill="#569AFF" stroke="#263238" stroke-linecap="round" stroke-linejoin="round"/>
<path d="M56.5296 304.445L84.9248 331.001L77.0367 340.207L35.757 314.6L40.4974 301.98" fill="#569AFF"/>
<path d="M56.5296 304.445L84.9248 331.001L77.0367 340.207L35.757 314.6L40.4974 301.98" stroke="#263238" stroke-linecap="round" stroke-linejoin="round"/>
<path d="M80.1937 329.428C81.3504 328.802 100.701 324.166 100.966 326.536C101.232 328.906 107.015 331.533 109.641 331.533C112.268 331.533 114.903 329.428 115.425 332.585C115.946 335.742 113.064 335.998 110.684 336.264C108.305 336.529 100.17 333.893 100.17 333.893C100.17 333.893 92.5852 340.208 89.3902 341.791C86.1951 343.374 80.4497 342.834 78.3449 341.26C76.2402 339.686 73.358 333.106 80.1937 329.428Z" fill="white" stroke="#263238" stroke-linecap="round" stroke-linejoin="round"/>
<path d="M98.0653 326.271C98.0653 326.271 105.432 324.166 107.006 324.962C108.58 325.759 109.376 341.525 109.376 341.525C109.376 341.525 108.58 343.099 107.006 341.525C105.432 339.951 100.18 328.072 100.18 328.072" fill="white"/>
<path d="M98.0653 326.271C98.0653 326.271 105.432 324.166 107.006 324.962C108.58 325.759 109.376 341.525 109.376 341.525C109.376 341.525 108.58 343.099 107.006 341.525C105.432 339.951 100.18 328.072 100.18 328.072" stroke="#263238" stroke-linecap="round" stroke-linejoin="round"/>
<path d="M94.3961 326.802C94.3961 326.802 101.981 324.962 103.593 327.854C105.204 330.746 109.12 343.63 105.963 344.152C102.806 344.673 101.753 340.473 101.753 340.473L96.7569 331.267L93.3438 330.746" fill="white"/>
<path d="M94.3961 326.802C94.3961 326.802 101.981 324.962 103.593 327.854C105.204 330.746 109.12 343.63 105.963 344.152C102.806 344.673 101.753 340.473 101.753 340.473L96.7569 331.267L93.3438 330.746" stroke="#263238" stroke-linecap="round" stroke-linejoin="round"/>
<path d="M91.7606 329.163C91.7606 329.163 95.4486 327.589 97.2879 328.907C99.1272 330.225 107.546 343.631 105.963 344.19C104.38 344.749 100.701 344.456 100.18 343.403C99.6581 342.351 92.8129 333.41 92.8129 333.41" fill="white"/>
<path d="M91.7606 329.163C91.7606 329.163 95.4486 327.589 97.2879 328.907C99.1272 330.225 107.546 343.631 105.963 344.19C104.38 344.749 100.701 344.456 100.18 343.403C99.6581 342.351 92.8129 333.41 92.8129 333.41" stroke="#263238" stroke-linecap="round" stroke-linejoin="round"/>
<path d="M89.1343 333.637C89.1343 333.637 92.5569 330.48 94.3962 331.533C96.2355 332.585 103.877 342.578 102.284 343.63C100.691 344.683 99.6486 343.63 98.0747 341.525C96.9484 340.109 95.6194 338.866 94.1307 337.837L90.9736 338.89" fill="white"/>
<path d="M89.1343 333.637C89.1343 333.637 92.5569 330.48 94.3962 331.533C96.2355 332.585 103.877 342.578 102.284 343.63C100.691 344.683 99.6486 343.63 98.0747 341.525C96.9484 340.109 95.6194 338.866 94.1307 337.837L90.9736 338.89" stroke="#263238" stroke-linecap="round" stroke-linejoin="round"/>
<path d="M179.553 297.733L162.905 332.87L173.618 338.53L205.104 305.166L196.069 295.164" fill="#569AFF"/>
<path d="M179.553 297.733L162.905 332.87L173.618 338.53L205.104 305.166L196.069 295.164" stroke="#263238" stroke-linecap="round" stroke-linejoin="round"/>
<path d="M171.239 329.428C170.082 328.802 150.722 324.166 150.466 326.536C150.21 328.906 144.417 331.533 141.782 331.533C139.146 331.533 136.529 329.428 135.998 332.585C135.467 335.742 138.369 335.998 140.739 336.264C143.109 336.529 151.253 333.893 151.253 333.893C151.253 333.893 158.838 340.208 162.033 341.791C165.228 343.374 170.973 342.834 173.078 341.26C175.183 339.686 178.074 333.106 171.239 329.428Z" fill="white" stroke="#263238" stroke-linecap="round" stroke-linejoin="round"/>
<path d="M153.358 326.271C153.358 326.271 145.991 324.166 144.417 324.962C142.843 325.759 142.047 341.525 142.047 341.525C142.047 341.525 142.834 343.099 144.417 341.525C146.001 339.951 151.253 328.072 151.253 328.072" fill="white"/>
<path d="M153.358 326.271C153.358 326.271 145.991 324.166 144.417 324.962C142.843 325.759 142.047 341.525 142.047 341.525C142.047 341.525 142.834 343.099 144.417 341.525C146.001 339.951 151.253 328.072 151.253 328.072" stroke="#263238" stroke-linecap="round" stroke-linejoin="round"/>
<path d="M157.036 326.802C157.036 326.802 149.452 324.962 147.83 327.854C146.209 330.746 142.313 343.63 145.47 344.19C148.627 344.749 149.67 340.511 149.67 340.511L154.666 331.305L158.089 330.784" fill="white"/>
<path d="M157.036 326.802C157.036 326.802 149.452 324.962 147.83 327.854C146.209 330.746 142.313 343.63 145.47 344.19C148.627 344.749 149.67 340.511 149.67 340.511L154.666 331.305L158.089 330.784" stroke="#263238" stroke-linecap="round" stroke-linejoin="round"/>
<path d="M159.691 329.163C159.691 329.163 156.012 327.589 154.173 328.907C152.334 330.225 143.886 343.631 145.47 344.19C147.053 344.749 150.722 344.456 151.253 343.403C151.784 342.351 158.61 333.41 158.61 333.41" fill="white"/>
<path d="M159.691 329.163C159.691 329.163 156.012 327.589 154.173 328.907C152.334 330.225 143.886 343.631 145.47 344.19C147.053 344.749 150.722 344.456 151.253 343.403C151.784 342.351 158.61 333.41 158.61 333.41" stroke="#263238" stroke-linecap="round" stroke-linejoin="round"/>
<path d="M162.298 333.637C162.298 333.637 158.876 330.48 157.036 331.533C155.197 332.585 147.555 342.578 149.148 343.63C150.741 344.683 151.774 343.63 153.358 341.525C154.484 340.109 155.813 338.866 157.302 337.837L160.459 338.89" fill="white"/>
<path d="M162.298 333.637C162.298 333.637 158.876 330.48 157.036 331.533C155.197 332.585 147.555 342.578 149.148 343.63C150.741 344.683 151.774 343.63 153.358 341.525C154.484 340.109 155.813 338.866 157.302 337.837L160.459 338.89" stroke="#263238" stroke-linecap="round" stroke-linejoin="round"/>
<path d="M220.994 103.574H159.369C156.511 103.574 153.771 104.708 151.75 106.728C149.728 108.747 148.591 111.487 148.589 114.344V132.358C148.581 133.777 148.854 135.183 149.391 136.496C149.928 137.809 150.72 139.004 151.719 140.01C152.719 141.017 153.908 141.817 155.217 142.363C156.526 142.91 157.931 143.192 159.35 143.195H166.934L156.591 156.724L179.847 143.195H220.994C222.41 143.191 223.811 142.908 225.117 142.363C226.424 141.818 227.61 141.021 228.609 140.017C229.607 139.014 230.398 137.823 230.936 136.514C231.474 135.204 231.749 133.802 231.746 132.386V114.373C231.751 111.515 230.621 108.773 228.605 106.748C226.589 104.723 223.852 103.582 220.994 103.574Z" fill="white" stroke="#263238" stroke-miterlimit="10"/>
<path d="M181.715 124.621C181.717 125.119 181.571 125.605 181.296 126.02C181.021 126.434 180.63 126.758 180.171 126.949C179.712 127.141 179.206 127.192 178.718 127.096C178.23 127 177.782 126.762 177.43 126.411C177.077 126.06 176.837 125.612 176.739 125.124C176.642 124.637 176.691 124.131 176.881 123.672C177.071 123.212 177.393 122.819 177.806 122.542C178.219 122.266 178.705 122.118 179.203 122.118C179.867 122.118 180.505 122.382 180.976 122.851C181.447 123.32 181.713 123.957 181.715 124.621Z" fill="#263238"/>
<path d="M192.675 124.621C192.677 125.119 192.531 125.606 192.255 126.021C191.98 126.435 191.588 126.759 191.128 126.95C190.669 127.142 190.163 127.192 189.675 127.095C189.186 126.999 188.738 126.759 188.386 126.407C188.034 126.055 187.795 125.607 187.698 125.119C187.601 124.63 187.652 124.124 187.843 123.665C188.034 123.206 188.358 122.813 188.773 122.538C189.187 122.263 189.674 122.117 190.172 122.118C190.836 122.118 191.472 122.382 191.942 122.852C192.411 123.321 192.675 123.958 192.675 124.621Z" fill="#263238"/>
<path d="M203.635 124.621C203.635 125.116 203.488 125.6 203.213 126.012C202.938 126.424 202.547 126.744 202.09 126.934C201.632 127.123 201.129 127.173 200.644 127.076C200.158 126.98 199.712 126.741 199.362 126.391C199.012 126.041 198.774 125.595 198.677 125.11C198.58 124.624 198.63 124.121 198.819 123.664C199.009 123.206 199.33 122.815 199.741 122.54C200.153 122.265 200.637 122.118 201.132 122.118C201.796 122.118 202.432 122.382 202.902 122.852C203.371 123.321 203.635 123.958 203.635 124.621Z" fill="#263238"/>
<path d="M346.891 343.934H232.04V348.57H346.891V343.934Z" fill="white" stroke="#263238" stroke-linecap="round" stroke-linejoin="round"/>
<path d="M364.535 343.934H264.426V348.57H364.535V343.934Z" fill="white" stroke="#263238" stroke-linecap="round" stroke-linejoin="round"/>
<path d="M366.478 335.695H270.703L281.027 262.569H376.803L366.478 335.695Z" fill="white" stroke="#263238" stroke-linecap="round" stroke-linejoin="round"/>
<path d="M370.442 335.695H274.666L284.99 262.569H380.766L370.442 335.695Z" fill="#263238" stroke="#263238" stroke-linecap="round" stroke-linejoin="round"/>
<path d="M341.089 301.706L350.702 348.561H325.986L316.381 301.706H341.089ZM324.326 315.614C324.373 315.805 324.483 315.974 324.638 316.094C324.793 316.215 324.984 316.28 325.18 316.278L339.183 316.145C339.314 316.144 339.443 316.112 339.561 316.053C339.678 315.995 339.781 315.91 339.861 315.806C339.941 315.702 339.997 315.582 340.024 315.453C340.051 315.325 340.049 315.192 340.017 315.065L338.756 309.812C338.71 309.621 338.6 309.451 338.446 309.329C338.291 309.207 338.1 309.14 337.903 309.139L323.9 309.272C323.768 309.274 323.639 309.306 323.521 309.364C323.404 309.423 323.301 309.507 323.22 309.611C323.139 309.714 323.082 309.835 323.054 309.963C323.026 310.091 323.026 310.225 323.056 310.353L324.326 315.614Z" fill="white" stroke="#263238" stroke-linecap="round" stroke-linejoin="round"/>
<path d="M177.013 343.934H62.1611V348.57H177.013V343.934Z" fill="white" stroke="#263238" stroke-linecap="round" stroke-linejoin="round"/>
<path d="M194.656 343.934H94.5479V348.57H194.656V343.934Z" fill="white" stroke="#263238" stroke-linecap="round" stroke-linejoin="round"/>
<path d="M196.6 335.695H100.824L111.149 262.569H206.925L196.6 335.695Z" fill="white" stroke="#263238" stroke-linecap="round" stroke-linejoin="round"/>
<path d="M200.563 335.695H104.787L115.112 262.569H210.888L200.563 335.695Z" fill="#263238" stroke="#263238" stroke-linecap="round" stroke-linejoin="round"/>
<path d="M171.22 301.706L180.824 348.561H156.107L146.503 301.706H171.22ZM154.448 315.614C154.496 315.804 154.607 315.972 154.761 316.092C154.916 316.213 155.106 316.278 155.301 316.278L169.305 316.145C169.436 316.143 169.565 316.112 169.683 316.053C169.801 315.994 169.904 315.91 169.985 315.806C170.065 315.703 170.122 315.582 170.15 315.454C170.179 315.326 170.178 315.193 170.148 315.065L168.878 309.812C168.833 309.62 168.724 309.449 168.569 309.326C168.414 309.204 168.222 309.138 168.025 309.139L154.021 309.272C153.89 309.274 153.761 309.305 153.644 309.364C153.526 309.423 153.424 309.507 153.344 309.611C153.263 309.715 153.208 309.835 153.181 309.964C153.154 310.092 153.156 310.225 153.187 310.353L154.448 315.614Z" fill="white" stroke="#263238" stroke-linecap="round" stroke-linejoin="round"/>
<path d="M411.645 348.56H3.09534V353.149H411.645V348.56Z" fill="#263238" stroke="#263238" stroke-linecap="round" stroke-linejoin="round"/>
</svg>
