<svg width="222" height="201" viewBox="0 0 222 201" fill="none" xmlns="http://www.w3.org/2000/svg">
<path d="M126.983 94.0862C124.385 95.0412 118.2 94.5454 118.195 94.5454C118.191 94.5454 119.77 90.5692 119.903 90.3304C121.432 87.5756 126.014 83.1357 129.481 83.8198C131.983 84.3111 133.232 86.919 132.521 89.2561C131.809 91.5931 129.196 93.2735 126.983 94.0862Z" fill="#F9F9F9"/>
<path d="M47.1207 68.1126C50.6515 67.9473 54.5312 73.007 55.6424 75.9593C55.7342 76.2164 56.7764 80.3854 56.7122 80.3808H56.6341C57.2539 81.1752 57.9105 82.0338 58.6038 82.9888C59.8756 84.7565 61.2944 86.7675 62.6902 89.0586C64.2254 91.5104 65.6144 94.0509 66.85 96.6666C68.2506 99.5867 69.3876 102.626 70.2476 105.748L70.2752 105.863C70.3165 104.83 70.5369 101.942 70.5782 101.731C71.1751 98.6317 74.1411 93.0072 77.649 92.5481C80.1788 92.2359 82.1761 94.3204 82.2404 96.763C82.3047 99.2056 80.3441 101.634 78.4938 103.099C76.4093 104.747 70.8078 106.125 70.3624 106.235C71.1601 109.434 71.7429 112.683 72.1071 115.96C72.3321 117.87 72.4974 119.798 72.6352 121.736C72.704 120.817 72.7683 120.041 72.7913 119.931C73.3836 116.832 76.3542 111.208 79.862 110.748C82.3919 110.436 84.3892 112.525 84.4534 114.968C84.5177 117.411 82.5572 119.835 80.7114 121.299C78.8657 122.764 74.086 124.054 72.8234 124.376C72.8693 125.12 72.9244 125.859 72.9657 126.603C73.1769 130.17 73.3698 133.733 73.6682 137.218C73.7738 138.444 73.9207 139.651 74.0631 140.859C74.1228 140.065 74.1825 139.399 74.2008 139.298C74.7931 136.199 77.7638 130.574 81.2716 130.115C83.7969 129.803 85.7987 131.887 85.863 134.33C85.9273 136.773 83.9668 139.201 82.1164 140.666C80.2661 142.131 75.9547 143.297 74.4579 143.683C74.6416 144.913 74.8253 146.148 75.0594 147.333C75.2339 148.141 75.3533 148.926 75.5737 149.729C75.794 150.533 75.9823 151.314 76.1843 152.094C76.6435 153.582 77.0751 155.12 77.5388 156.561C77.8602 157.567 78.1816 158.517 78.503 159.477C78.3836 158.256 78.2045 155.859 78.2091 155.657C78.4168 152.888 79.3287 150.219 80.8584 147.902C80.8692 147.593 80.9076 147.286 80.9732 146.984C81.5058 144.596 83.8749 142.943 86.2946 143.747C89.6509 144.863 91.4508 150.978 91.4232 154.133C91.4232 154.321 91.1753 156.337 91.0008 157.608C91.2212 156.878 91.4186 156.167 91.6528 155.414C92.1119 153.926 92.5711 152.457 93.1128 150.873L93.9623 148.577C94.2286 147.806 94.6051 147.03 94.931 146.245C95.7162 144.44 96.5977 142.65 97.5298 140.868C96.2258 140.473 91.6298 138.999 89.8392 137.447C88.0485 135.896 86.2211 133.439 86.3864 130.951C86.5517 128.462 88.6454 126.52 91.1569 126.947C94.6418 127.539 97.3507 133.311 97.8007 136.433C97.8282 136.63 97.8971 138.908 97.9155 140.161C98.4802 139.091 99.0404 138.026 99.651 136.947C101.41 133.88 103.283 130.836 105.161 127.787C105.73 126.869 106.286 125.918 106.846 124.986C106.387 124.849 100.877 123.219 98.8751 121.479C97.0936 119.931 95.2524 117.47 95.4223 114.982C95.5922 112.493 97.6767 110.551 100.188 110.978C103.673 111.57 106.382 117.342 106.832 120.464C106.869 120.703 106.965 123.981 106.947 124.812C108.182 122.755 109.389 120.68 110.501 118.604C112.015 115.798 113.345 112.897 114.481 109.917C114.265 109.853 108.512 108.177 106.46 106.396C104.679 104.853 102.842 102.387 103.007 99.8989C103.173 97.4104 105.266 95.4682 107.778 95.8952C111.263 96.4875 113.967 102.259 114.422 105.386C114.454 105.629 114.559 109.155 114.532 109.798C114.596 109.624 114.683 109.454 114.748 109.279C115.804 106.26 116.591 103.153 117.098 99.9953C117.401 98.2552 117.59 96.5747 117.741 94.9448C116.639 94.7428 111.607 93.7602 109.582 92.3598C107.64 91.0191 105.542 88.7739 105.45 86.2808C105.358 83.7877 107.208 81.6297 109.748 81.7766C113.278 81.9832 116.602 87.4241 117.392 90.5003C117.438 90.6656 117.686 92.4012 117.851 93.673C117.906 92.9292 117.98 92.167 118.021 91.4553C118.177 88.7877 118.154 86.3359 118.118 84.1596C118.086 82.9245 118.035 81.8088 117.975 80.7665C116.997 79.9998 113.09 76.873 111.956 74.7426C110.822 72.6122 110.028 69.692 111.079 67.4331C112.13 65.1741 114.784 64.1181 116.97 65.4174C120.009 67.254 120.455 73.5902 119.748 76.6664C119.683 76.9327 118.255 80.9777 118.2 80.941L118.141 80.8951C118.219 81.896 118.292 82.975 118.347 84.155C118.43 86.3313 118.508 88.7877 118.407 91.4691C118.333 94.3611 118.09 97.2463 117.681 100.11C117.236 103.32 116.507 106.484 115.501 109.564C115.49 109.6 115.476 109.635 115.459 109.669C116.065 108.834 117.847 106.543 118.003 106.382C120.207 104.128 125.808 101.056 128.958 102.631C131.254 103.769 131.759 106.612 130.45 108.678C129.142 110.744 126.185 111.694 123.834 111.892C121.185 112.117 115.753 110.179 115.321 110.023C114.202 113.135 112.875 116.17 111.35 119.105C110.487 120.817 109.559 122.516 108.595 124.21C109.141 123.503 109.642 122.874 109.72 122.792C111.924 120.533 117.525 117.466 120.675 119.041C122.971 120.175 123.471 123.017 122.172 125.087C120.873 127.158 117.902 128.104 115.551 128.301C113.2 128.499 108.503 126.947 107.287 126.515C106.915 127.163 106.552 127.81 106.175 128.457C104.385 131.548 102.58 134.624 100.904 137.695C100.317 138.774 99.775 139.863 99.224 140.951C99.7153 140.322 100.142 139.798 100.202 139.72C102.406 137.466 108.007 134.394 111.162 135.969C113.457 137.108 113.958 139.95 112.654 142.016C111.35 144.082 108.384 145.032 106.038 145.23C103.742 145.423 99.4444 144.022 97.9797 143.522C97.4563 144.651 96.9283 145.781 96.4692 146.897C96.1707 147.668 95.831 148.389 95.5784 149.192C95.3259 149.996 95.0458 150.74 94.7841 151.488C94.325 152.976 93.8658 154.505 93.448 155.965C93.1588 156.979 92.9016 157.953 92.6399 158.931C93.2139 157.842 94.3893 155.744 94.504 155.584C96.3406 153.017 101.391 149.156 104.77 150.212C107.195 150.992 108.136 153.719 107.158 155.96C106.18 158.201 103.398 159.592 101.106 160.143C98.5812 160.749 93.1358 159.73 92.4563 159.596C92.0293 161.217 91.6298 162.81 91.2763 164.289C91.1982 164.61 91.1339 164.899 91.0605 165.207H88.852C88.9714 164.748 89.0908 164.261 89.2193 163.775C89.6463 162.126 90.1376 160.377 90.6564 158.586C89.0464 157.822 87.4812 156.967 85.9686 156.024C84.0448 157.861 79.2789 159.881 78.6637 160.157C79.2009 161.741 79.7381 163.279 80.2661 164.72L80.4543 165.225H78.2459C77.7133 163.669 77.1807 162.011 76.648 160.299C75.9731 160.395 70.4772 161.171 67.9795 160.45C65.7159 159.794 63.0116 158.325 62.1208 155.992C61.2301 153.66 62.3183 151.024 64.7747 150.363C68.1861 149.445 73.0622 153.545 74.7839 156.194C74.8849 156.35 75.794 158.168 76.3496 159.326C76.1246 158.595 75.8905 157.888 75.6793 157.135C75.2201 155.648 74.8344 154.151 74.3983 152.544C74.21 151.759 74.0264 150.965 73.8381 150.166C73.6499 149.367 73.5213 148.517 73.356 147.682C73.0162 145.744 72.7683 143.765 72.5571 141.768C71.2577 142.154 66.5883 143.462 64.2604 143.145C61.9326 142.829 59.0308 141.8 57.7957 139.628C56.5606 137.457 57.2356 134.688 59.5634 133.66C62.7774 132.232 68.2412 135.551 70.3395 137.911C70.4726 138.058 71.7857 139.918 72.4882 140.955C72.3734 139.752 72.2541 138.549 72.176 137.328C71.951 133.806 71.8363 130.23 71.7169 126.662C71.6801 125.569 71.6251 124.481 71.5791 123.393C71.12 123.535 65.6103 125.23 62.9932 124.867C60.6562 124.564 57.7636 123.522 56.5285 121.35C55.2934 119.178 55.9683 116.41 58.2962 115.381C61.5331 113.953 66.974 117.273 69.0722 119.633C69.2329 119.812 71.12 122.489 71.57 123.196C71.4598 120.794 71.3312 118.407 71.1108 116.056C70.8267 112.881 70.3343 109.727 69.637 106.616C69.4258 106.685 63.7003 108.453 61.0051 108.104C58.6681 107.796 55.7755 106.758 54.545 104.587C53.3145 102.415 53.9803 99.6464 56.3127 98.6179C59.5267 97.19 64.9859 100.51 67.0887 102.87C67.2494 103.053 69.2834 105.937 69.614 106.488C69.5727 106.309 69.5497 106.116 69.5038 105.937C68.7229 102.835 67.6658 99.8093 66.3449 96.8961C65.6378 95.28 64.8711 93.7694 64.0905 92.3047C63.0575 92.7639 58.3191 94.706 55.8627 94.6555C53.5028 94.605 50.5137 93.8888 49.0491 91.8685C47.5844 89.8483 47.9517 87.02 50.151 85.7436C53.2089 83.9667 58.9849 86.6619 61.3311 88.7831C61.4551 88.8979 62.6259 90.2111 63.4615 91.1752C63.0988 90.5279 62.7361 89.8529 62.3779 89.2377C61.0373 86.942 59.6644 84.8896 58.4385 83.099C57.7314 82.0843 57.0611 81.1843 56.4413 80.3441C55.2062 80.2477 50.2245 79.7931 48.0987 78.6407C45.9728 77.4883 43.7093 75.4956 43.3374 73.03C42.9655 70.5644 44.5771 68.2182 47.1207 68.1126Z" fill="#F9F9F9"/>
<path d="M64.2561 91.6711C64.201 91.7033 63.3791 87.4884 63.3378 87.2175C63.0899 84.0678 64.4673 77.8418 67.7364 76.5011C70.0918 75.5323 72.5711 77.0153 73.2461 79.357C73.921 81.6986 72.7043 84.559 71.3085 86.4553C69.7015 88.6867 64.2607 91.6665 64.2561 91.6711Z" fill="#F9F9F9"/>
<path d="M62.3002 157.53C62.3002 157.53 48.379 157.356 45.1237 152.149H8.75977C8.75977 152.149 11.7166 157.484 16.308 157.53H62.3002Z" fill="white" stroke="#263238" stroke-miterlimit="10"/>
<path d="M44.0677 153.866H14.444C14.444 153.866 14.9949 155.069 13.4844 155.73C14.4366 156.61 15.6318 157.183 16.9142 157.374H54.628C54.628 157.374 49.8254 156.915 47.222 155.4C47.222 155.4 44.2055 155.841 44.0677 153.866Z" fill="white" stroke="#263238" stroke-miterlimit="10"/>
<path d="M56.809 199.151H140.382V188.812H56.809V199.151Z" fill="#263238" stroke="#263238" stroke-miterlimit="10"/>
<path d="M10.8168 199.151H94.3896V188.812H10.8168V199.151Z" fill="white" stroke="#263238" stroke-miterlimit="10"/>
<path d="M93.8112 191.571H73.4023" stroke="#263238" stroke-miterlimit="10"/>
<path d="M89.7841 193.871H60.1787" stroke="#263238" stroke-miterlimit="10"/>
<path d="M77.998 195.937H83.1726" stroke="#263238" stroke-miterlimit="10"/>
<path d="M85.1885 195.937H93.5219" stroke="#263238" stroke-miterlimit="10"/>
<path d="M11.3086 195.478H37.4659" stroke="#263238" stroke-miterlimit="10"/>
<path d="M13.6084 194.101H17.0565" stroke="#263238" stroke-miterlimit="10"/>
<path d="M33.1541 193.871H21.6572" stroke="#263238" stroke-miterlimit="10"/>
<path d="M11.3086 191.112H21.3684" stroke="#263238" stroke-miterlimit="10"/>
<path d="M139.229 193.178H134.055" stroke="#8A8A8A" stroke-miterlimit="10"/>
<path d="M140.382 195.478H124.284" stroke="#8A8A8A" stroke-miterlimit="10"/>
<path d="M95.248 196.856H103.012" stroke="#8A8A8A" stroke-miterlimit="10"/>
<path d="M94.3848 193.178H115.372" stroke="#8A8A8A" stroke-miterlimit="10"/>
<path d="M133.481 190.194H121.41" stroke="#8A8A8A" stroke-miterlimit="10"/>
<path d="M48.9622 198.922H58.7373V188.812H48.9622V198.922Z" fill="white" stroke="#263238" stroke-miterlimit="10"/>
<path d="M55.7338 188.729H139.307V178.389H55.7338V188.729Z" fill="#263238" stroke="#263238" stroke-miterlimit="10"/>
<path d="M9.74261 188.729H93.3154V178.389H9.74261V188.729Z" fill="white" stroke="#263238" stroke-miterlimit="10"/>
<path d="M92.7369 181.144H72.3281" stroke="#263238" stroke-miterlimit="10"/>
<path d="M88.7145 183.44H59.1045" stroke="#263238" stroke-miterlimit="10"/>
<path d="M76.9287 185.51H82.1032" stroke="#263238" stroke-miterlimit="10"/>
<path d="M84.1143 185.51H92.4523" stroke="#263238" stroke-miterlimit="10"/>
<path d="M10.2334 185.051H36.3952" stroke="#263238" stroke-miterlimit="10"/>
<path d="M12.5342 183.669H15.9823" stroke="#263238" stroke-miterlimit="10"/>
<path d="M32.0835 183.44H20.582" stroke="#263238" stroke-miterlimit="10"/>
<path d="M10.2334 180.685H20.2978" stroke="#263238" stroke-miterlimit="10"/>
<path d="M138.159 182.751H132.984" stroke="#8A8A8A" stroke-miterlimit="10"/>
<path d="M139.307 185.051H123.21" stroke="#8A8A8A" stroke-miterlimit="10"/>
<path d="M94.1787 186.429H101.938" stroke="#8A8A8A" stroke-miterlimit="10"/>
<path d="M93.3154 182.751H114.298" stroke="#8A8A8A" stroke-miterlimit="10"/>
<path d="M132.41 179.766H120.335" stroke="#8A8A8A" stroke-miterlimit="10"/>
<path d="M47.8919 188.499H57.667V178.389H47.8919V188.499Z" fill="white" stroke="#263238" stroke-miterlimit="10"/>
<path d="M59.1323 178.302H142.705V167.962H59.1323V178.302Z" fill="#263238" stroke="#263238" stroke-miterlimit="10"/>
<path d="M13.1401 178.302H96.7129V167.962H13.1401V178.302Z" fill="white" stroke="#263238" stroke-miterlimit="10"/>
<path d="M96.1344 170.717H75.7256" stroke="#263238" stroke-miterlimit="10"/>
<path d="M92.1074 173.012H62.502" stroke="#263238" stroke-miterlimit="10"/>
<path d="M80.3213 175.083H85.4958" stroke="#263238" stroke-miterlimit="10"/>
<path d="M87.5117 175.083H95.8451" stroke="#263238" stroke-miterlimit="10"/>
<path d="M13.6309 174.624H39.7881" stroke="#263238" stroke-miterlimit="10"/>
<path d="M15.9316 173.242H19.3798" stroke="#263238" stroke-miterlimit="10"/>
<path d="M35.4774 173.012H23.9805" stroke="#263238" stroke-miterlimit="10"/>
<path d="M13.6309 170.258H23.6906" stroke="#263238" stroke-miterlimit="10"/>
<path d="M141.552 172.324H136.378" stroke="#8A8A8A" stroke-miterlimit="10"/>
<path d="M142.705 174.624H126.607" stroke="#8A8A8A" stroke-miterlimit="10"/>
<path d="M97.5713 176.001H105.335" stroke="#8A8A8A" stroke-miterlimit="10"/>
<path d="M96.708 172.324H117.695" stroke="#8A8A8A" stroke-miterlimit="10"/>
<path d="M135.804 169.339H123.733" stroke="#8A8A8A" stroke-miterlimit="10"/>
<path d="M51.2854 178.072H61.0605V167.962H51.2854V178.072Z" fill="white" stroke="#263238" stroke-miterlimit="10"/>
<path d="M56.5385 167.87H140.111V157.53H56.5385V167.87Z" fill="#263238" stroke="#263238" stroke-miterlimit="10"/>
<path d="M10.5463 167.87H94.1191V157.53H10.5463V167.87Z" fill="white" stroke="#263238" stroke-miterlimit="10"/>
<path d="M93.5443 160.29H73.1309" stroke="#263238" stroke-miterlimit="10"/>
<path d="M89.5182 162.585H59.9082" stroke="#263238" stroke-miterlimit="10"/>
<path d="M77.7314 164.652H82.906" stroke="#263238" stroke-miterlimit="10"/>
<path d="M84.918 164.652H93.256" stroke="#263238" stroke-miterlimit="10"/>
<path d="M11.0371 164.192H37.199" stroke="#263238" stroke-miterlimit="10"/>
<path d="M13.3379 162.815H16.7906" stroke="#263238" stroke-miterlimit="10"/>
<path d="M32.8882 162.585H21.3867" stroke="#263238" stroke-miterlimit="10"/>
<path d="M11.0371 159.831H21.1015" stroke="#263238" stroke-miterlimit="10"/>
<path d="M138.963 161.897H133.788" stroke="#8A8A8A" stroke-miterlimit="10"/>
<path d="M140.111 164.192H124.014" stroke="#8A8A8A" stroke-miterlimit="10"/>
<path d="M94.9814 165.574H102.741" stroke="#8A8A8A" stroke-miterlimit="10"/>
<path d="M94.1191 161.897H115.102" stroke="#8A8A8A" stroke-miterlimit="10"/>
<path d="M133.215 158.908H121.14" stroke="#8A8A8A" stroke-miterlimit="10"/>
<path d="M48.6966 167.641H58.4717V157.53H48.6966V167.641Z" fill="white" stroke="#263238" stroke-miterlimit="10"/>
<path d="M206.631 40.9544H126.63V199.156H206.631V40.9544Z" fill="#263238" stroke="#263238" stroke-miterlimit="10"/>
<path d="M197.98 41.6753V69.063" stroke="#8A8A8A" stroke-miterlimit="10"/>
<path d="M203.026 48.5211V60.0547" stroke="#8A8A8A" stroke-miterlimit="10"/>
<path d="M200.506 46.0004V87.0797" stroke="#8A8A8A" stroke-miterlimit="10"/>
<path d="M204.83 40.9544V94.651" stroke="#8A8A8A" stroke-miterlimit="10"/>
<path d="M198.701 198.793V170.685" stroke="#8A8A8A" stroke-miterlimit="10"/>
<path d="M201.585 199.156V193.026" stroke="#8A8A8A" stroke-miterlimit="10"/>
<path d="M202.306 190.864V166.001" stroke="#8A8A8A" stroke-miterlimit="10"/>
<path d="M199.064 167.08V126.359" stroke="#8A8A8A" stroke-miterlimit="10"/>
<path d="M195.46 40.9544H115.459V199.156H195.46V40.9544Z" fill="#F9F9F9" stroke="#263238" stroke-miterlimit="10"/>
<path d="M188.614 52.1483C187.05 52.1447 185.547 51.5428 184.413 50.4662C183.28 49.3896 182.601 47.9198 182.516 46.3585H128.411C128.329 47.9222 127.649 49.3945 126.513 50.4719C125.377 51.5492 123.87 52.1493 122.305 52.1483C121.943 52.1474 121.581 52.1136 121.226 52.0473V184.84C121.582 184.776 121.943 184.742 122.305 184.739C123.362 184.739 124.402 185.013 125.323 185.534C126.243 186.055 127.013 186.806 127.557 187.713C128.101 188.62 128.401 189.653 128.428 190.71C128.454 191.768 128.207 192.814 127.709 193.747H183.21C182.71 192.814 182.461 191.768 182.487 190.71C182.513 189.652 182.813 188.618 183.357 187.711C183.902 186.803 184.672 186.052 185.593 185.532C186.515 185.011 187.555 184.738 188.614 184.739C188.976 184.742 189.336 184.776 189.693 184.84V52.0243C189.338 52.0983 188.976 52.1398 188.614 52.1483ZM153.838 144.018C141.198 144.018 130.955 132.888 130.955 119.155C130.955 105.422 141.198 94.2882 153.838 94.2882C166.479 94.2882 176.722 105.422 176.722 119.155C176.722 132.888 166.474 144.018 153.838 144.018Z" fill="white" stroke="#263238" stroke-miterlimit="10"/>
<path d="M206.483 110.505H115.816V126.722H206.483V110.505Z" fill="white" stroke="#263238" stroke-miterlimit="10"/>
<path d="M206.484 110.505H195.635V126.722H206.484V110.505Z" fill="#3D3D3D" stroke="#8A8A8A" stroke-miterlimit="10"/>
<path d="M28.0977 189.317L25.4255 193.325L20.2051 197.457V199.161H38.0611L37.4504 193.192V190.52C37.4504 190.52 30.1638 187.37 28.0977 189.317Z" fill="#263238" stroke="#263238" stroke-miterlimit="10"/>
<path d="M37.9004 197.577H20.2051V199.156H38.0611L37.9004 197.577Z" fill="white" stroke="#263238" stroke-miterlimit="10"/>
<path d="M57.5841 189.317L60.4308 193.325L66.0001 197.457V199.161H46.9688L47.6161 193.192V190.52C47.6161 190.52 55.3848 187.37 57.5841 189.317Z" fill="#263238" stroke="#263238" stroke-miterlimit="10"/>
<path d="M47.1386 197.577H66.0001V199.156H46.9688L47.1386 197.577Z" fill="white" stroke="#263238" stroke-miterlimit="10"/>
<path d="M20.1318 106.18C20.1318 106.18 24.3008 153.233 24.5993 162.168C24.8977 171.103 27.726 183.164 27.726 183.164L26.4083 185.249L27.749 189.863C27.749 189.863 30.8757 189.119 32.5149 189.716C34.154 190.313 37.1063 191.057 37.1063 191.057C37.1063 191.057 38.5985 187.035 38.7454 185.249C38.8923 183.463 36.9685 179.142 36.9685 179.142L36.6701 125.39H39.3515L46.1927 182.269L45.8942 185.694L47.2349 191.057C47.2349 191.057 55.1276 189.418 55.7198 189.266C56.1723 189.198 56.6347 189.25 57.0605 189.418C57.0605 189.418 57.9788 187.48 57.9788 186.883C57.9788 186.286 56.7851 182.866 56.7851 182.866L56.4866 156.213V105.735L20.1548 104.991L20.1318 106.18Z" fill="#F9F9F9" stroke="#263238" stroke-miterlimit="10"/>
<path d="M55.2056 126.961L56.0183 144.762L52.5518 145.074V147.282L55.0724 147.438" stroke="#263238" stroke-linecap="round" stroke-linejoin="round"/>
<path d="M54.5996 113.719L55.1276 125.216" stroke="#263238" stroke-linecap="round" stroke-linejoin="round"/>
<path d="M53.085 157.847C53.1997 161.029 53.4523 163.788 53.9711 163.981C55.2337 164.44 55.546 164.927 55.546 164.927" stroke="#263238" stroke-linecap="round" stroke-linejoin="round"/>
<path d="M53.0387 147.911C53.0387 147.911 52.956 151.933 53.0387 155.955" stroke="#263238" stroke-linecap="round" stroke-linejoin="round"/>
<path d="M33.0156 123.802L39.315 124.275" stroke="#263238" stroke-linecap="round" stroke-linejoin="round"/>
<path d="M35.0635 108.678L35.2196 117.498L38.0571 119.55" stroke="#263238" stroke-linecap="round" stroke-linejoin="round"/>
<path d="M38.0576 111.827L38.5305 122.7" stroke="#263238" stroke-linecap="round" stroke-linejoin="round"/>
<path d="M36.1104 162.255L36.3216 173.123" stroke="#263238" stroke-linecap="round" stroke-linejoin="round"/>
<path d="M35.376 124.431L36.0601 159.569" stroke="#263238" stroke-linecap="round" stroke-linejoin="round"/>
<path d="M48.1396 113.246C48.1396 113.246 50.3481 117.815 54.4437 116.396" stroke="#263238" stroke-linecap="round" stroke-linejoin="round"/>
<path d="M26.0825 113.246C26.0825 113.246 24.5031 116.713 21.9824 117.186" stroke="#263238" stroke-linecap="round" stroke-linejoin="round"/>
<path d="M35.44 53.6772L30.7062 55.1097L26.7393 105.983L47.6623 106.318L48.7642 54.0078L35.44 53.6772Z" fill="white" stroke="#263238" stroke-miterlimit="10"/>
<path d="M33.7553 51.6892H32.6441L32.084 53.14L32.309 65.4221L39.2328 60.9592L46.0419 67.4331L46.9372 52.8049C46.9372 52.8049 47.2724 52.1345 46.2668 51.6892C45.2613 51.2438 44.9262 51.129 44.9262 51.129L33.7553 51.6892Z" fill="white" stroke="#263238" stroke-miterlimit="10"/>
<path d="M33.0894 48.1079L33.4246 53.1584C33.4246 53.1584 36.6386 60.1924 38.7827 61.198C40.9269 62.2035 45.8214 52.8232 45.8214 52.8232L45.4862 47.2401H32.9746L33.0894 48.1079Z" fill="white" stroke="#263238" stroke-miterlimit="10"/>
<path d="M33.0898 48.1079C33.0898 48.1079 37.1073 56.8315 39.4535 57.1575C41.7997 57.4835 45.5968 49.1134 45.5968 48.3328C45.5968 47.5523 33.0898 48.1079 33.0898 48.1079Z" fill="#263238" stroke="#263238" stroke-miterlimit="10"/>
<path d="M30.9677 40.633C30.9677 40.633 29.0301 39.0444 28.7638 41.2483C28.4975 43.4522 31.3212 45.4816 31.3212 45.4816L30.9677 40.633Z" fill="white" stroke="#263238" stroke-miterlimit="10"/>
<path d="M46.7161 40.633C46.7161 40.633 48.6583 39.0444 48.9246 41.2483C49.1909 43.4522 46.3672 45.4816 46.3672 45.4816L46.7161 40.633Z" fill="white" stroke="#263238" stroke-miterlimit="10"/>
<path d="M30.6146 40.8947C30.6146 40.8947 31.6752 47.0702 32.5567 48.2135C33.4383 49.3567 36.1702 53.3283 38.7276 54.0354C41.285 54.7424 45.2566 49.8021 46.0463 48.1262C46.836 46.4504 47.1069 39.0444 47.1069 39.0444L47.0197 35.0774C47.0197 35.0774 46.7534 32.1665 45.6055 30.5779C44.4577 28.9892 39.5219 27.9332 36.262 29.1913C33.0021 30.4493 30.2656 36.1335 30.2656 37.2813C30.2656 38.4292 30.6146 40.8947 30.6146 40.8947Z" fill="white" stroke="#263238" stroke-miterlimit="10"/>
<path d="M36.4365 34.0168C36.4365 34.0168 33.6817 37.1941 32.4696 37.8093C31.9188 38.0631 31.3877 38.3578 30.8809 38.6909L31.0554 42.3961L29.6458 37.3456C29.6458 37.3456 27.8827 31.9874 28.2455 29.6091C28.6082 27.2307 36.6202 24.935 39.4439 24.0535C42.2676 23.1719 43.3236 24.935 45.174 26.3492C47.0243 27.7633 48.9665 28.8193 48.7048 31.2023C48.4768 32.8598 48.0625 34.4862 47.4697 36.0508C47.4697 36.0508 47.0105 42.6624 47.0105 42.9379C47.0105 43.2134 46.2162 36.4135 46.2162 36.4135C45.7659 36.2951 45.3597 36.0486 45.0467 35.7039C44.7338 35.3591 44.5276 34.931 44.4531 34.4714C44.2187 33.308 44.0653 32.1298 43.994 30.9452C43.994 30.9452 42.8461 33.3281 41.6983 34.4714C40.5504 35.6146 37.7313 36.6752 37.2905 36.588C36.8498 36.5008 37.7497 34.3841 37.7497 34.3841L36.161 35.8855L36.4365 34.0168Z" fill="#263238" stroke="#263238" stroke-miterlimit="10"/>
<path d="M37.1426 46.3631C37.5793 46.7517 38.0878 47.0512 38.6394 47.2447C39.3465 47.4191 40.5815 46.3631 40.9351 46.0968" stroke="#263238" stroke-miterlimit="10"/>
<path d="M36.877 48.8333C36.877 48.8333 38.9064 50.4173 41.6382 48.567L36.877 48.8333Z" fill="white"/>
<path d="M36.877 48.8333C36.877 48.8333 38.9064 50.4173 41.6382 48.567" stroke="#263238" stroke-miterlimit="10"/>
<path d="M35.5085 43.1859C35.8255 43.1859 36.0824 42.7521 36.0824 42.2171C36.0824 41.682 35.8255 41.2483 35.5085 41.2483C35.1915 41.2483 34.9346 41.682 34.9346 42.2171C34.9346 42.7521 35.1915 43.1859 35.5085 43.1859Z" fill="#263238"/>
<path d="M42.2116 43.1859C42.5286 43.1859 42.7855 42.7521 42.7855 42.2171C42.7855 41.682 42.5286 41.2483 42.2116 41.2483C41.8947 41.2483 41.6377 41.682 41.6377 42.2171C41.6377 42.7521 41.8947 43.1859 42.2116 43.1859Z" fill="#263238"/>
<path d="M40.8438 39.1316C41.4122 38.8339 42.0606 38.7245 42.6953 38.8194C43.33 38.9143 43.9181 39.2086 44.3745 39.6597" stroke="#263238" stroke-miterlimit="10"/>
<path d="M36.1697 39.0444C35.7205 38.7783 35.1921 38.6785 34.6768 38.7625C34.1615 38.8464 33.6921 39.1087 33.3506 39.5036" stroke="#263238" stroke-miterlimit="10"/>
<path d="M42.4326 43.8929L44.3748 43.4522" stroke="#263238" stroke-miterlimit="10"/>
<path d="M33.5254 43.3649L35.114 43.8929" stroke="#263238" stroke-miterlimit="10"/>
<path d="M32.1935 64.5451L31.1879 112.755L19.7094 112.199L19.0161 110.872C19.0161 110.872 17.455 110.872 17.2301 109.642C17.0051 108.411 18.7911 81.391 18.7911 81.391L8.96094 80.4957L15.5496 67.6397C15.5496 67.6397 17.5606 58.7048 18.006 58.0345C18.4514 57.3641 32.4139 52.5615 32.4139 52.5615L32.1935 64.5451Z" fill="#263238" stroke="#263238" stroke-miterlimit="10"/>
<path d="M46.4917 52.2768L44.8525 112.883L59.591 112.732L60.1878 110.5L61.6755 109.458V104.692C61.6755 102.309 58.8471 85.0365 58.8471 85.0365C58.8471 85.0365 66.2944 83.9943 66.4413 82.5067C66.5883 81.0191 63.3146 58.5349 61.5285 56.8958C59.7425 55.2567 46.4917 52.2768 46.4917 52.2768Z" fill="#263238" stroke="#263238" stroke-miterlimit="10"/>
<path d="M50.1875 86.8364L52.148 92.4838C52.148 92.4838 53.2821 89.7565 53.1122 88.0393C52.9423 86.3222 52.9378 85.8033 52.4235 85.7161C51.9093 85.6288 50.2839 85.2891 50.1875 86.8364Z" fill="white" stroke="#263238" stroke-miterlimit="10"/>
<path d="M30.5957 72.1622L36.8722 84.6325L43.493 81.3634L37.9052 68.209L30.5957 72.1622Z" fill="#F9F9F9" stroke="#263238" stroke-miterlimit="10"/>
<path d="M41.4819 80.863C41.4067 80.6644 41.4128 80.4442 41.4987 80.25C41.5846 80.0558 41.7435 79.9033 41.941 79.8253C41.9776 79.8209 42.0146 79.8209 42.0512 79.8253L37.9189 70.142C37.8813 70.2325 37.8238 70.3133 37.7507 70.3785C37.6776 70.4437 37.5907 70.4915 37.4965 70.5185C37.3554 70.5514 37.2075 70.5409 37.0724 70.4885C36.9372 70.4361 36.821 70.3441 36.739 70.2247L32.3771 72.5709C32.4334 72.6552 32.4753 72.7483 32.5011 72.8464C32.562 73.0221 32.5635 73.2129 32.5054 73.3896C32.4474 73.5663 32.3329 73.719 32.1797 73.8243L36.5369 82.4516C36.6148 82.3652 36.7148 82.3016 36.8262 82.2679C37.011 82.2329 37.2023 82.2649 37.3656 82.3584C37.5289 82.4518 37.6535 82.6005 37.7169 82.7776L41.4957 80.9135L41.4819 80.863ZM37.7537 78.6315C36.9502 78.8565 36.0824 78.2642 35.8115 77.3046C35.5406 76.345 35.9676 75.3808 36.7665 75.1558C37.5654 74.9309 38.4378 75.5232 38.7087 76.4828C38.9796 77.4424 38.5526 78.402 37.7537 78.6315Z" fill="white" stroke="#263238" stroke-miterlimit="10"/>
<path d="M33.2822 70.6287L36.634 84.1779L43.8149 82.4608L41.2851 68.3973L33.2822 70.6287Z" fill="#F9F9F9" stroke="#263238" stroke-miterlimit="10"/>
<path d="M41.9642 81.5333C41.9486 81.4281 41.9539 81.3208 41.9799 81.2176C42.0059 81.1144 42.0519 81.0174 42.1155 80.9321C42.1791 80.8468 42.2589 80.7748 42.3503 80.7204C42.4417 80.666 42.543 80.6302 42.6483 80.615C42.6849 80.6106 42.7219 80.6106 42.7585 80.615L40.9219 70.2614C40.8644 70.3408 40.7902 70.4066 40.7046 70.4542C40.6189 70.5018 40.5238 70.53 40.4261 70.5369C40.2801 70.536 40.1377 70.4919 40.0168 70.4102C39.8959 70.3285 39.8018 70.2128 39.7465 70.0777L34.9439 71.4322C34.9818 71.5274 35.0036 71.6283 35.0082 71.7306C35.0282 71.9156 34.987 72.1021 34.8907 72.2614C34.7945 72.4206 34.6487 72.5439 34.4756 72.6122L36.7942 81.9924C36.8889 81.9263 37.0003 81.8881 37.1156 81.8822C37.3032 81.8866 37.4828 81.9588 37.6213 82.0854C37.7597 82.212 37.8476 82.3845 37.8686 82.571L41.9688 81.593L41.9642 81.5333ZM38.8053 78.5213C37.9742 78.5673 37.258 77.7959 37.2075 76.7996C37.157 75.8032 37.786 74.963 38.617 74.9171C39.4481 74.8712 40.1597 75.6471 40.2148 76.6435C40.2699 77.6398 39.6547 78.48 38.8053 78.5213Z" fill="white" stroke="#263238" stroke-miterlimit="10"/>
<path d="M37.2538 69.5819L36.4824 83.5168L43.8516 83.9851L45.5596 69.7931L37.2538 69.5819Z" fill="#F9F9F9" stroke="#263238" stroke-miterlimit="10"/>
<path d="M42.3548 82.548C42.3887 82.3378 42.5041 82.1495 42.6761 82.024C42.848 81.8985 43.0625 81.8459 43.273 81.8777C43.3114 81.8867 43.3484 81.9005 43.3832 81.919L44.6413 71.4689C44.5635 71.5292 44.4732 71.5712 44.3771 71.5918C44.2809 71.6125 44.1813 71.6113 44.0857 71.5883C43.9463 71.5465 43.8228 71.4637 43.7311 71.3507C43.6394 71.2377 43.5838 71.0997 43.5715 70.9547L38.6082 70.8307C38.617 70.9311 38.6077 71.0322 38.5806 71.1292C38.546 71.3121 38.4522 71.4787 38.3136 71.6031C38.1751 71.7276 37.9995 71.803 37.8139 71.8179L37.2812 81.4598C37.3938 81.4276 37.5131 81.4276 37.6256 81.4598C37.8038 81.5207 37.954 81.6439 38.0485 81.8067C38.143 81.9696 38.1754 82.1611 38.1398 82.346L42.3502 82.6123C42.3462 82.5908 42.3478 82.5687 42.3548 82.548ZM40.2335 78.7509C39.43 78.5489 38.9709 77.6031 39.2142 76.6343C39.4576 75.6655 40.307 75.0456 41.1151 75.2569C41.9232 75.4681 42.3731 76.4093 42.1344 77.3781C41.8956 78.3469 41.0416 78.9529 40.2335 78.7509Z" fill="white" stroke="#263238" stroke-miterlimit="10"/>
<path d="M52.4229 83.2229C51.6111 83.101 50.8076 82.9293 50.017 82.7087C49.6726 82.5388 47.1795 81.6756 45.2006 80.6472C43.2217 79.6187 41.5917 80.6472 38.7726 81.1614C35.9535 81.6756 35.1592 81.8501 35.1592 82.5388C35.1592 83.2275 36.6238 83.3974 36.6238 83.3974C36.6238 83.3974 35.2464 83.5673 35.9351 84.5131C36.3408 85.0751 36.9125 85.4958 37.5697 85.7161C37.9504 86.347 38.4456 86.9013 39.0297 87.3506C39.8883 87.9521 40.4898 88.4709 40.4898 88.4709C41.0282 89.1415 41.7441 89.6474 42.5559 89.931C43.7589 90.2753 50.5496 88.2092 50.5496 88.2092C50.5496 88.2092 52.6111 88.8107 53.13 87.695C53.6488 86.5793 52.4229 83.2229 52.4229 83.2229Z" fill="white" stroke="#263238" stroke-linecap="round" stroke-linejoin="round"/>
<path d="M36.6064 83.3974C36.6064 83.3974 41.7626 83.2229 43.3971 82.7087" stroke="#263238" stroke-linecap="round" stroke-linejoin="round"/>
<path d="M37.5518 85.7161C38.973 85.9437 40.41 86.0588 41.8493 86.0604C42.6968 86.0436 43.5256 85.8079 44.2552 85.3763" stroke="#263238" stroke-linecap="round" stroke-linejoin="round"/>
<path d="M39.7236 87.8694C39.7236 87.8694 42.731 88.7877 44.7742 88.1266" stroke="#263238" stroke-linecap="round" stroke-linejoin="round"/>
<path d="M54.9759 68.5075L56.615 81.3129L51.9961 82.6536C51.9961 82.6536 52.7445 86.5242 52.4552 88.3148C52.2611 89.6961 52.1614 91.089 52.1568 92.4838C52.1568 92.4838 57.2073 90.8447 60.4948 90.5462C63.7822 90.2478 66.6014 88.7602 67.4921 86.3772C68.3828 83.9943 65.5591 75.817 65.5591 75.817" fill="#263238"/>
<path d="M54.9759 68.5075L56.615 81.3129L51.9961 82.6536C51.9961 82.6536 52.7445 86.5242 52.4552 88.3148C52.2611 89.6961 52.1614 91.089 52.1568 92.4838C52.1568 92.4838 57.2073 90.8447 60.4948 90.5462C63.7822 90.2478 66.6014 88.7602 67.4921 86.3772C68.3828 83.9943 65.5591 75.817 65.5591 75.817" stroke="#263238" stroke-miterlimit="10"/>
<path d="M54.3652 82.2771L56.615 81.3129L62.3084 79.784" stroke="#6B6B6B" stroke-miterlimit="10"/>
<path d="M56.6153 81.3129L54.8477 66.1888" stroke="#6B6B6B" stroke-miterlimit="10"/>
<path d="M27.5016 81.0191C27.5016 81.0191 26.4731 76.4644 26.0415 75.6012C25.6099 74.738 23.2866 77.1531 23.1168 77.9245C22.9469 78.6958 26.8128 81.1063 27.5016 81.0191Z" fill="white" stroke="#263238" stroke-miterlimit="10"/>
<path d="M25.2564 71.4322L23.0342 74.0401C23.0342 74.0401 23.654 77.8602 24.1499 78.0117C24.6458 78.1632 28.1903 75.4313 28.1903 75.4313L25.2564 71.4322Z" fill="white" stroke="#263238" stroke-miterlimit="10"/>
<path d="M29.3832 66.2026C29.3832 66.2026 25.5126 69.9859 25.2509 71.446C24.9892 72.9061 27.744 75.6609 28.0884 75.918C28.4327 76.1751 30.9259 74.1962 31.0085 73.8519C31.0912 73.5075 29.3786 70.8445 29.3786 70.8445C30.1675 71.231 30.9339 71.6618 31.6743 72.1347C31.9314 72.3918 33.5659 74.7151 34.1674 74.5406C34.7689 74.3661 34.5118 73.2504 34.1674 72.2219C33.8231 71.1935 30.127 67.7499 30.127 67.7499L32.6201 68.3514C32.6201 68.3514 35.5448 71.1889 36.2335 71.1889C36.9223 71.1889 36.5779 70.5002 36.1463 69.8987C35.7147 69.2972 33.6532 66.8913 33.1389 66.2898C32.6247 65.6884 30.6458 65.344 30.3841 65.344C30.1224 65.344 29.3832 66.2026 29.3832 66.2026Z" fill="white" stroke="#263238" stroke-linecap="round" stroke-linejoin="round"/>
<path d="M29.3846 70.8445L28.1816 69.6416" stroke="#263238" stroke-linecap="round" stroke-linejoin="round"/>
<path d="M26.6338 71.1016L29.7284 74.8849" stroke="#263238" stroke-linecap="round" stroke-linejoin="round"/>
<path d="M22.9467 73.6269C22.9467 73.6269 23.5481 75.6885 23.8925 76.9786C24.2368 78.2688 27.5013 81.0191 27.5013 81.0191C27.5013 81.0191 22.8594 85.9181 18.7317 88.0669C14.6041 90.2157 9.75554 89.1367 8.29547 87.4195C6.8354 85.7023 7.43688 80.716 8.63983 79.683C9.84277 78.6499 16.8401 77.323 18.5619 76.3772C20.2836 75.4313 22.9467 73.6269 22.9467 73.6269Z" fill="#263238" stroke="#263238" stroke-miterlimit="10"/>
<path d="M22.947 73.6269L11.6338 79.155" stroke="#6B6B6B" stroke-miterlimit="10"/>
<path d="M21.4775 74.3523V69.0722" stroke="#6B6B6B" stroke-miterlimit="10"/>
<path d="M96.7673 190.487C96.7673 190.487 95.3899 190.878 91.7168 188.155C88.0437 185.432 83.7461 181.543 83.7461 181.543C83.7461 181.543 87.9886 180.974 89.9491 179.941C92.107 178.798 94.6323 176.098 94.6323 176.098C94.6323 176.098 103.186 187.765 113.884 186.989C113.698 187.983 113.264 188.915 112.622 189.697C111.98 190.479 111.151 191.086 110.211 191.461C106.878 192.82 96.7673 190.487 96.7673 190.487Z" fill="#F9F9F9" stroke="#263238" stroke-linejoin="round"/>
<path d="M110.647 188.325C110.647 188.325 101.565 185.942 96.6567 180.731C96.4202 180.795 96.1723 180.806 95.931 180.763C95.6897 180.72 95.461 180.624 95.2614 180.481C95.0619 180.339 94.8965 180.154 94.7773 179.94C94.6581 179.726 94.588 179.488 94.5722 179.243C92.8563 180.854 90.6563 181.853 88.3141 182.085C88.3141 182.085 88.461 183.127 88.0156 183.426C88.0156 183.426 95.0129 189.532 99.035 190.276C101.827 190.835 104.684 190.989 107.52 190.735C108.745 190.606 109.895 190.084 110.798 189.248C110.798 189.248 109.306 188.922 110.647 188.325ZM102.07 187.99C101.744 188.793 100.123 188.908 98.4473 188.21C96.7714 187.512 95.6925 186.332 95.9955 185.533C96.2985 184.734 97.9423 184.615 99.6181 185.313C101.294 186.011 102.391 187.191 102.07 187.99Z" fill="white" stroke="#263238" stroke-miterlimit="10"/>
<path d="M95.3896 190.244C95.3896 190.244 100.073 192.172 103.769 192.172C105.932 192.185 108.089 191.946 110.197 191.461C110.197 191.461 108.934 192.15 106.882 190.832C105.711 190.079 104.958 188.403 104.958 188.403C101.869 189.457 98.649 190.077 95.3896 190.244Z" fill="#F9F9F9" stroke="#263238" stroke-linejoin="round"/>
<path d="M147.998 170.634C147.998 170.634 156.524 167.829 161.511 164.5L166.814 173.224C166.814 173.224 154.132 183.1 150.803 180.501L147.998 170.634Z" fill="#F9F9F9" stroke="#263238" stroke-linejoin="round"/>
<path d="M163.178 172.714C163.189 172.462 163.281 172.221 163.441 172.027C163.601 171.832 163.819 171.695 164.064 171.635L161.709 167.728C161.512 167.795 161.306 167.829 161.098 167.829C160.846 167.842 160.594 167.794 160.364 167.689C160.135 167.583 159.934 167.423 159.78 167.223C155.377 170.304 148.623 171.883 148.623 171.883L149.973 177.186C149.973 177.186 149.766 180.097 153.403 179.367C156.222 178.802 161.525 175.235 163.779 173.678C163.602 173.586 163.453 173.448 163.347 173.278C163.241 173.109 163.183 172.914 163.178 172.714ZM154.091 176.617C152.498 176.979 151.015 176.438 150.776 175.405C150.538 174.372 151.64 173.233 153.233 172.866C154.826 172.498 156.314 173.045 156.552 174.078C156.791 175.111 155.689 176.249 154.091 176.617Z" fill="white" stroke="#263238" stroke-miterlimit="10"/>
<path d="M146.749 166.686L152.571 178.224C152.571 178.224 150.597 179.261 150.804 180.519L145.193 169.5C145.193 169.5 144.463 167.723 146.749 166.686Z" fill="#F9F9F9" stroke="#263238" stroke-linejoin="round"/>
<path d="M145.688 170.469L150.014 178.954C150.198 178.546 150.524 178.22 150.932 178.036L146.125 169.596L145.688 170.469Z" fill="white" stroke="#263238" stroke-miterlimit="10"/>
<path d="M83.5664 106.231L83.6582 128.347L95.201 128.297L95.2378 105.73L83.5664 106.231Z" fill="#F9F9F9" stroke="#263238" stroke-miterlimit="10"/>
<path d="M92.6716 126.176C92.6814 126.01 92.7241 125.849 92.7972 125.7C92.8702 125.552 92.9722 125.42 93.097 125.311C93.2219 125.202 93.3671 125.12 93.5243 125.068C93.6814 125.016 93.8473 124.996 94.0123 125.009C94.0702 125.021 94.1271 125.038 94.1822 125.06L94.1592 108.223C94.0571 108.315 93.9356 108.383 93.8037 108.422C93.6718 108.461 93.5328 108.47 93.397 108.448C93.1947 108.398 93.0113 108.291 92.8694 108.138C92.7275 107.986 92.6332 107.795 92.5981 107.59L85.6375 107.888C85.6602 108.031 85.6602 108.177 85.6375 108.32C85.6144 108.581 85.5047 108.827 85.3259 109.019C85.1471 109.211 84.9094 109.338 84.6504 109.38V124.991C84.8192 124.923 85.0033 124.902 85.183 124.931C85.4692 125.014 85.7174 125.195 85.885 125.441C86.0526 125.687 86.1291 125.984 86.1013 126.281L92.6945 126.254C92.6716 126.217 92.667 126.194 92.6716 126.176ZM88.8515 120.363C87.5705 120.129 86.7257 118.673 86.9645 117.108C87.2032 115.542 88.4475 114.463 89.7193 114.702C90.9911 114.94 91.8497 116.391 91.6064 117.957C91.363 119.523 90.1188 120.602 88.8515 120.363Z" fill="white" stroke="#263238" stroke-miterlimit="10"/>
<path d="M191.497 12.6484L175.399 28.7459L183.802 37.1482L200.322 20.8211L191.497 12.6484Z" fill="#F9F9F9" stroke="#263238" stroke-miterlimit="10"/>
<path d="M183.517 33.7827C183.645 33.6682 183.795 33.5806 183.957 33.5251C184.12 33.4697 184.292 33.4475 184.464 33.4599C184.635 33.4724 184.802 33.5191 184.955 33.5974C185.108 33.6758 185.243 33.784 185.354 33.9158C185.388 33.9678 185.417 34.0232 185.441 34.0811L197.723 21.845C197.581 21.8377 197.442 21.7983 197.317 21.73C197.192 21.6616 197.085 21.5659 197.002 21.4501C196.892 21.2658 196.838 21.0534 196.847 20.8388C196.856 20.6243 196.927 20.4171 197.052 20.2426L191.782 15.3528C191.691 15.4728 191.585 15.5794 191.465 15.6696C191.257 15.8427 190.996 15.9409 190.726 15.9484C190.455 15.9559 190.19 15.8723 189.973 15.7109L178.554 27.0057C178.725 27.0768 178.873 27.1946 178.981 27.3455C179.132 27.6145 179.183 27.928 179.126 28.231C179.069 28.5341 178.907 28.8074 178.668 29.003L183.467 33.8056L183.517 33.7827ZM184.986 26.767C184.224 25.6605 184.679 23.9846 185.996 23.025C187.314 22.0654 189.004 22.194 189.761 23.3005C190.519 24.407 190.064 26.0875 188.747 27.0425C187.429 27.9975 185.73 27.8552 184.986 26.744V26.767Z" fill="white" stroke="#263238" stroke-miterlimit="10"/>
<path d="M80.5873 80.1283L102.984 71.2715L98.3606 59.5818L75.4541 68.4845L80.5873 80.1283Z" fill="#F9F9F9" stroke="#263238" stroke-miterlimit="10"/>
<path d="M97.2075 62.9886C96.3948 63.1677 95.628 62.7682 95.4949 62.0703C95.4902 62.0046 95.4902 61.9386 95.4949 61.8729L78.4194 68.5672C78.5544 68.6344 78.6723 68.7313 78.7645 68.8506C78.8568 68.9698 78.9209 69.1084 78.952 69.2559C78.9809 69.4805 78.9437 69.7086 78.8451 69.9125C78.7464 70.1163 78.5905 70.287 78.3965 70.4037L81.4498 77.401C81.5938 77.3224 81.7484 77.2652 81.9089 77.2312C82.1831 77.1503 82.4765 77.1638 82.742 77.2696C83.0076 77.3753 83.23 77.5671 83.3736 77.8143L99.2093 71.6526C99.0718 71.5124 98.9778 71.3354 98.9384 71.1429C98.9026 70.8178 98.9836 70.4905 99.1669 70.2196C99.3503 69.9487 99.6242 69.752 99.9394 69.6645L97.2947 62.984L97.2075 62.9886ZM92.8365 69.1824C93.1074 70.5598 91.9641 72.0153 90.2791 72.3964C88.594 72.7775 87.0146 71.9373 86.7437 70.5598C86.4728 69.1824 87.616 67.7315 89.3011 67.3459C90.9861 66.9602 92.5656 67.7866 92.8365 69.1824Z" fill="white" stroke="#263238" stroke-miterlimit="10"/>
<path d="M159.637 12.5749C159.637 12.5749 161.014 12.9377 162.787 17.1663C164.559 21.395 166.258 26.9231 166.258 26.9231C166.258 26.9231 162.318 25.2426 160.105 25.1279C157.663 25.0039 154.113 26.0461 154.113 26.0461C154.113 26.0461 152.736 11.6429 143.145 6.84486C143.812 6.07729 144.664 5.49209 145.619 5.14431C146.575 4.79652 147.604 4.69758 148.608 4.85678C152.144 5.39857 159.637 12.5749 159.637 12.5749Z" fill="#F9F9F9" stroke="#263238" stroke-linejoin="round"/>
<path d="M146.606 7.33156C146.606 7.33156 153.191 14.0396 154.747 21.014C154.983 21.0804 155.201 21.1982 155.386 21.359C155.571 21.5198 155.717 21.7196 155.816 21.944C155.914 22.1683 155.962 22.4117 155.955 22.6566C155.948 22.9015 155.886 23.1418 155.775 23.3602C158.074 22.8614 160.472 23.1358 162.598 24.1407C162.598 24.1407 163.002 23.1673 163.54 23.1398C163.54 23.1398 160.647 14.3151 157.571 11.6199C155.453 9.71438 153.074 8.12184 150.505 6.89078C149.385 6.37914 148.132 6.24072 146.928 6.49592C146.928 6.49592 148.08 7.50603 146.606 7.33156ZM153.806 12.0056C154.49 11.4868 155.936 12.2306 157.02 13.6723C158.103 15.114 158.443 16.7026 157.754 17.226C157.066 17.7495 155.624 17.0011 154.54 15.5594C153.457 14.1177 153.131 12.529 153.806 12.0056Z" fill="white" stroke="#263238" stroke-miterlimit="10"/>
<path d="M160.698 13.4886C160.698 13.4886 157.658 9.44819 154.481 7.54275C152.633 6.42437 150.663 5.52308 148.608 4.85678C148.608 4.85678 150.046 4.91188 151.134 7.0928C151.754 8.34166 151.547 10.1644 151.547 10.1644C154.736 10.8443 157.816 11.963 160.698 13.4886Z" fill="#F9F9F9" stroke="#263238" stroke-linejoin="round"/>
<path d="M40.8208 1L43.0385 9.12679C43.0385 9.12679 31.9548 17.3362 15.21 15.0359L16.1282 6.25257C16.1282 6.25257 22.694 7.56571 28.6857 6.33522C34.6775 5.10472 40.8208 1 40.8208 1Z" fill="#F9F9F9" stroke="#263238" stroke-miterlimit="10"/>
<path d="M39.5532 8.76866C39.5763 8.56883 39.66 8.38084 39.7929 8.22985C39.9258 8.07887 40.1017 7.9721 40.297 7.92384L38.9885 4.31041C38.7975 4.37432 38.5975 4.40688 38.3962 4.40683C38.0498 4.41253 37.7105 4.30802 37.4274 4.10838C35.5908 5.07258 32.1427 6.75304 28.7037 7.4647C25.5712 8.02679 22.3764 8.15656 19.2087 7.85038C19.086 7.98183 18.935 8.08363 18.7672 8.14806C18.5993 8.2125 18.419 8.23788 18.2399 8.22229L17.8037 13.1443C17.9139 13.1443 18.0287 13.1443 18.1435 13.1443C19.0618 13.1443 19.7826 13.4198 19.7826 13.7595C19.7769 13.814 19.7585 13.8665 19.7291 13.9127C19.6996 13.9589 19.6598 13.9976 19.6127 14.0258C30.251 14.4299 37.6983 10.7522 39.9573 9.46656C39.8374 9.39282 39.7377 9.29044 39.6671 9.16862C39.5966 9.0468 39.5575 8.90936 39.5532 8.76866ZM29.0251 11.3353C27.3998 11.6613 25.9764 11.3858 25.8433 10.72C25.7101 10.0543 26.9177 9.25535 28.543 8.92936C30.1684 8.60337 31.5917 8.87886 31.7249 9.54461C31.858 10.2104 30.6505 11.0093 29.0251 11.3353Z" fill="white" stroke="#263238" stroke-miterlimit="10"/>
<path d="M190.359 181.98L192.572 190.106C192.572 190.106 181.493 198.316 164.743 196.015L165.661 187.232C165.661 187.232 172.227 188.545 178.224 187.315C184.22 186.084 190.359 181.98 190.359 181.98Z" fill="#F9F9F9" stroke="#263238" stroke-miterlimit="10"/>
<path d="M189.086 189.753C189.108 189.552 189.192 189.363 189.325 189.211C189.458 189.059 189.634 188.952 189.83 188.903L188.521 185.299C188.33 185.359 188.13 185.39 187.929 185.391C187.576 185.4 187.229 185.297 186.937 185.097C185.142 186.057 181.676 187.737 178.241 188.449C175.109 189.011 171.914 189.141 168.746 188.835C168.624 188.966 168.473 189.068 168.305 189.132C168.137 189.197 167.957 189.222 167.777 189.206L167.364 194.128C167.474 194.128 167.589 194.128 167.709 194.128C168.627 194.128 169.343 194.399 169.343 194.739C169.337 194.794 169.319 194.846 169.29 194.892C169.26 194.938 169.22 194.977 169.173 195.005C179.812 195.414 187.259 191.736 189.522 190.446C189.397 190.377 189.291 190.277 189.215 190.156C189.139 190.034 189.095 189.896 189.086 189.753ZM178.558 192.315C176.933 192.641 175.509 192.365 175.376 191.704C175.243 191.043 176.451 190.235 178.076 189.909C179.701 189.583 181.125 189.863 181.258 190.524C181.391 191.185 180.183 191.993 178.558 192.315Z" fill="white" stroke="#263238" stroke-miterlimit="10"/>
<path d="M74.2686 11.3582C74.2686 11.3582 82.7902 8.55286 87.7811 5.22409L93.0841 13.9478C93.0841 13.9478 80.4027 23.8331 77.0739 21.2343L74.2686 11.3582Z" fill="#F9F9F9" stroke="#263238" stroke-linejoin="round"/>
<path d="M89.4437 13.4381C89.4555 13.1861 89.5487 12.9448 89.7093 12.7502C89.8699 12.5557 90.0893 12.4185 90.3345 12.3592L87.9745 8.45186C87.7796 8.51933 87.5747 8.55348 87.3684 8.55287C87.1161 8.56641 86.8642 8.51831 86.6346 8.41271C86.405 8.30712 86.2046 8.14721 86.0507 7.94681C81.6475 11.0276 74.8936 12.6071 74.8936 12.6071L76.2434 17.9102C76.2434 17.9102 76.0368 20.8211 79.6732 20.0911C82.4877 19.5263 87.7908 15.9588 90.0498 14.4023C89.8718 14.3105 89.7217 14.1726 89.6151 14.003C89.5085 13.8334 89.4493 13.6384 89.4437 13.4381ZM80.3619 17.3408C78.7687 17.7036 77.2811 17.1618 77.0469 16.1287C76.8128 15.0956 77.9101 13.957 79.5033 13.5896C81.0965 13.2223 82.5842 13.7687 82.8229 14.8064C83.0617 15.844 81.9643 16.9735 80.3619 17.3408Z" fill="white" stroke="#263238" stroke-miterlimit="10"/>
<path d="M73.02 7.40961L78.8419 18.9478C78.8419 18.9478 76.8676 19.9855 77.0742 21.2435L71.4589 10.2241C71.4589 10.2241 70.7335 8.44727 73.02 7.40961Z" fill="#F9F9F9" stroke="#263238" stroke-linejoin="round"/>
<path d="M71.96 11.1929L76.2805 19.6778C76.4645 19.2701 76.791 18.9436 77.1988 18.7596L72.3961 10.3206L71.96 11.1929Z" fill="white" stroke="#263238" stroke-miterlimit="10"/>
<path d="M145.559 62.5341L129.462 78.6315L137.864 87.0292L154.389 70.7022L145.559 62.5341Z" fill="#F9F9F9" stroke="#263238" stroke-miterlimit="10"/>
<path d="M137.585 83.6454C137.713 83.5308 137.863 83.4433 138.025 83.3878C138.188 83.3324 138.36 83.3102 138.531 83.3226C138.703 83.3351 138.87 83.3818 139.023 83.4601C139.176 83.5384 139.311 83.6467 139.422 83.7785C139.455 83.8307 139.482 83.8861 139.504 83.9438L151.8 71.7215C151.658 71.7155 151.52 71.6767 151.395 71.6082C151.271 71.5397 151.164 71.4433 151.084 71.3266C150.973 71.1427 150.918 70.9305 150.926 70.716C150.935 70.5015 151.005 70.294 151.13 70.1191L145.859 65.2384C145.77 65.358 145.663 65.4633 145.542 65.5506C145.335 65.7252 145.075 65.8247 144.804 65.8331C144.533 65.8414 144.267 65.7581 144.05 65.5965L132.631 76.8868C132.802 76.96 132.95 77.0792 133.058 77.2312C133.209 77.5001 133.26 77.8136 133.203 78.1167C133.146 78.4197 132.984 78.693 132.746 78.8887L137.521 83.6867L137.585 83.6454ZM139.05 76.6297C138.292 75.5186 138.747 73.8473 140.064 72.8877C141.382 71.9281 143.067 72.0566 143.825 73.1632C144.582 74.2697 144.132 75.9456 142.81 76.9052C141.488 77.8648 139.816 77.7362 139.05 76.6297Z" fill="white" stroke="#263238" stroke-miterlimit="10"/>
<path d="M174.986 101.809L196.984 104.105L198.178 92.6262L175.749 90.1514L174.986 101.809Z" fill="#F9F9F9" stroke="#263238" stroke-miterlimit="10"/>
<path d="M195.794 94.9081C195.631 94.8804 195.476 94.8206 195.336 94.7322C195.197 94.6438 195.076 94.5284 194.982 94.393C194.887 94.2575 194.821 94.1046 194.786 93.9431C194.751 93.7817 194.749 93.6149 194.78 93.4526C194.799 93.3955 194.824 93.3402 194.853 93.2873L178.108 91.4921C178.189 91.6038 178.244 91.7324 178.269 91.8684C178.294 92.0043 178.287 92.144 178.25 92.2772C178.181 92.4697 178.057 92.638 177.894 92.7619C177.732 92.8857 177.536 92.9598 177.332 92.9751L176.873 99.9403C177.018 99.9353 177.164 99.9507 177.305 99.9862C177.563 100.038 177.796 100.175 177.967 100.374C178.139 100.574 178.238 100.825 178.25 101.088L193.756 102.792C193.705 102.618 193.705 102.433 193.756 102.259C193.866 101.98 194.071 101.749 194.335 101.607C194.598 101.464 194.904 101.418 195.197 101.478L195.877 94.9218L195.794 94.9081ZM189.605 98.1221C189.233 99.3709 187.695 100.055 186.166 99.6464C184.637 99.2378 183.696 97.8879 184.068 96.639C184.44 95.3902 185.982 94.7061 187.511 95.1147C189.04 95.5233 189.977 96.8456 189.605 98.0991V98.1221Z" fill="white" stroke="#263238" stroke-miterlimit="10"/>
<path d="M200.046 122.594C200.046 122.594 201.424 122.957 203.196 127.186C204.968 131.414 206.662 136.942 206.662 136.942C206.662 136.942 202.728 135.262 200.51 135.147C198.072 135.023 194.541 136.065 194.541 136.065C194.541 136.065 193.164 121.662 183.572 116.864C184.242 116.103 185.095 115.524 186.049 115.182C187.004 114.84 188.03 114.746 189.031 114.908C192.548 115.418 200.046 122.594 200.046 122.594Z" fill="#F9F9F9" stroke="#263238" stroke-linejoin="round"/>
<path d="M187.012 117.346C187.012 117.346 193.6 124.041 195.157 131.033C195.393 131.098 195.612 131.215 195.797 131.375C195.982 131.536 196.13 131.735 196.228 131.959C196.327 132.184 196.374 132.427 196.366 132.672C196.359 132.917 196.297 133.157 196.185 133.375C198.481 132.873 200.878 133.144 203.004 134.146C203.004 134.146 203.412 133.173 203.945 133.145C203.945 133.145 201.057 124.321 197.976 121.625C195.863 119.716 193.486 118.121 190.919 116.887C189.8 116.376 188.546 116.237 187.342 116.492C187.342 116.492 188.486 117.525 187.012 117.346ZM194.211 122.02C194.9 121.502 196.341 122.245 197.425 123.687C198.509 125.129 198.848 126.717 198.16 127.241C197.471 127.764 196.029 127.016 194.946 125.574C193.862 124.132 193.536 122.548 194.211 122.025V122.02Z" fill="white" stroke="#263238" stroke-miterlimit="10"/>
<path d="M201.102 123.508C201.102 123.508 198.062 119.454 194.89 117.562C193.04 116.449 191.068 115.554 189.013 114.894C189.013 114.894 190.454 114.95 191.538 117.13C192.162 118.379 191.951 120.202 191.951 120.202C195.14 120.875 198.219 121.988 201.102 123.508Z" fill="#F9F9F9" stroke="#263238" stroke-linejoin="round"/>
<path d="M189.403 69.5176C189.403 69.5176 181.969 74.5452 178.076 79.109L170.578 72.1576C170.578 72.1576 180.078 59.1915 183.99 60.7847L189.403 69.5176Z" fill="#F9F9F9" stroke="#263238" stroke-linejoin="round"/>
<path d="M174.252 71.6664C174.31 71.9111 174.287 72.1681 174.185 72.3984C174.084 72.6287 173.911 72.8198 173.692 72.9428L177.025 76.0603C177.196 75.9431 177.385 75.8547 177.585 75.7986C177.824 75.7164 178.079 75.6935 178.329 75.7319C178.578 75.7703 178.815 75.8688 179.018 76.019C182.415 71.8546 188.481 68.4891 188.481 68.4891L185.726 63.7554C185.726 63.7554 185.129 60.8995 181.828 62.5937C179.275 63.9069 175.142 68.7692 173.402 70.9042C173.599 70.943 173.782 71.0343 173.932 71.1685C174.081 71.3026 174.192 71.4746 174.252 71.6664ZM181.924 65.4312C183.357 64.6415 184.936 64.7609 185.446 65.6884C185.955 66.6158 185.207 68.0162 183.774 68.8013C182.342 69.5865 180.762 69.4717 180.248 68.5396C179.734 67.6076 180.473 66.2164 181.91 65.4312H181.924Z" fill="white" stroke="#263238" stroke-miterlimit="10"/>
<path d="M191.699 72.9749L182.948 63.4661C182.948 63.4661 184.564 61.928 184.023 60.7847L192.434 69.8482C192.434 69.8482 193.6 71.3496 191.699 72.9749Z" fill="#F9F9F9" stroke="#263238" stroke-linejoin="round"/>
<path d="M191.671 69.0447L185.198 62.0657C185.138 62.5092 184.922 62.9167 184.587 63.2136L191.474 70.0043L191.671 69.0447Z" fill="white" stroke="#263238" stroke-miterlimit="10"/>
<path d="M1 199.156H220.625" stroke="#263238" stroke-linecap="round" stroke-linejoin="round"/>
</svg>
