<svg width="319" height="323" viewBox="0 0 319 323" fill="none" xmlns="http://www.w3.org/2000/svg">
<path d="M267.329 270.243C265.987 267.42 265.685 264.213 266.478 261.189C267.788 256.024 268.268 256.888 266.897 253.918C265.525 250.948 264.352 250.338 265.161 247.786C265.971 245.235 267.377 241.249 266.869 238.835C266.361 236.421 265.264 235.405 265.758 232.819C266.252 230.234 267.816 228.958 267.041 226.111C266.265 223.265 264.983 223.367 265.477 220.782C265.971 218.196 266.67 217.962 266.471 215.61C266.306 214.43 266.428 213.227 266.828 212.105C266.828 212.105 267.72 215.795 268.303 217.839C268.838 219.352 268.973 220.978 268.694 222.558C268.406 224.047 271.787 226.626 271.89 227.805C271.993 228.985 272.706 230.282 271.581 232.778C270.456 235.275 270.175 236.763 270.827 238.43C271.478 240.097 272.199 239.85 271.513 243.232C270.827 246.613 268.934 246.606 270.374 249.199C271.815 251.792 272.679 252.348 272.013 254.158C271.348 255.969 270.292 258.082 270.703 259.317C270.937 259.934 271.226 260.529 271.568 261.093C272.388 262.551 272.663 264.253 272.343 265.895L272.151 266.917L272.782 272.061L269.716 274.571C269.716 274.571 268.33 273.529 267.329 270.243Z" fill="#569AFF"/>
<path d="M263.803 270.689C262.917 269.702 262.237 268.548 261.801 267.295C261.365 266.042 261.183 264.715 261.265 263.391C261.581 258.946 262.219 259.577 260.312 257.362C258.405 255.146 257.143 254.824 257.458 252.601C257.774 250.379 258.412 246.888 257.458 244.981C256.505 243.074 255.236 242.443 255.236 240.227C255.236 238.012 256.505 236.736 255.236 234.514C253.967 232.291 252.698 232.607 252.698 230.398C252.698 228.189 253.329 226.283 252.698 224.369C252.067 222.455 252.479 222.86 252.479 222.86C252.479 222.86 253.967 225.96 254.92 227.545C255.874 229.129 256.189 230.083 256.189 231.352C256.189 232.621 259.996 234.212 260.305 235.158C260.614 236.105 261.574 237.065 260.943 239.274C260.312 241.483 260.305 242.765 261.258 244.034C262.212 245.303 262.843 244.981 262.843 247.841C262.843 250.701 260.943 251.01 262.843 252.917C264.743 254.824 265.703 255.139 265.381 256.724C265.058 258.308 264.434 260.215 265.065 261.169C265.304 261.501 265.57 261.813 265.861 262.101C267.179 263.46 267.917 265.278 267.919 267.17V267.17L269.51 271.286L266.972 273.824C266.972 273.824 265.388 273.227 263.803 270.689Z" fill="#569AFF"/>
<path d="M281.89 270.689C282.776 269.702 283.457 268.548 283.893 267.295C284.328 266.042 284.51 264.715 284.428 263.391C284.113 258.946 283.475 259.577 285.382 257.362C287.289 255.146 288.551 254.824 288.235 252.601C287.92 250.379 287.282 246.888 288.235 244.981C289.189 243.074 290.458 242.443 290.458 240.227C290.458 238.012 289.189 236.736 290.458 234.514C291.727 232.291 292.995 232.607 292.995 230.398C292.995 228.189 292.364 226.283 292.995 224.369C293.627 222.455 292.872 223.559 292.872 223.559C292.872 223.559 291.727 225.96 290.773 227.545C289.82 229.129 289.504 230.083 289.504 231.351C289.504 232.62 285.697 234.212 285.389 235.158C285.08 236.105 284.12 237.065 284.751 239.274C285.382 241.483 285.389 242.765 284.435 244.034C283.482 245.303 282.851 244.981 282.851 247.841C282.851 250.701 284.751 251.01 282.851 252.917C280.951 254.824 279.99 255.139 280.313 256.724C280.635 258.308 281.259 260.215 280.628 261.168C280.392 261.495 280.131 261.802 279.846 262.088C278.524 263.46 277.786 265.292 277.789 267.198V267.198L276.197 271.313L278.735 273.851C278.735 273.851 280.306 273.227 281.89 270.689Z" fill="#569AFF"/>
<path d="M276.3 271.485C276.879 270.578 277.271 269.565 277.453 268.505C277.634 267.445 277.601 266.359 277.357 265.311C276.52 261.813 276.101 262.403 277.322 260.387C278.543 258.37 279.517 257.945 278.968 256.223C278.42 254.501 277.459 251.799 277.967 250.159C278.475 248.52 279.407 247.841 279.113 246.044C278.818 244.247 277.645 243.437 278.358 241.496C279.071 239.555 280.135 239.651 279.84 237.881C279.545 236.112 278.79 234.678 279.044 233.08C279.298 231.482 278.749 231.893 278.749 231.893C278.49 233.251 278.137 234.59 277.693 235.899C277.206 236.889 277.029 238.003 277.185 239.096C277.35 240.111 274.531 241.874 274.4 242.669C274.27 243.465 273.639 244.357 274.441 246.037C275.244 247.718 275.402 248.733 274.812 249.871C274.222 251.01 273.673 250.839 274.05 253.116C274.428 255.393 275.985 255.386 274.736 257.156C273.488 258.926 272.754 259.296 273.22 260.524C273.687 261.752 274.435 263.171 274.057 264.015C273.502 264.951 272.866 265.837 272.157 266.663L272.576 269.194L271.855 272.685L274.208 274.372C274.208 274.372 275.367 273.714 276.3 271.485Z" fill="#569AFF"/>
<path d="M285.601 268.899L284.861 287.508H282.796V301.857H261.848V287.508H259.914L259.173 268.899H285.601Z" fill="#263238" stroke="#263238" stroke-miterlimit="10"/>
<path d="M259.914 287.508H258.995V322.092H261.849V301.857" stroke="#263238" stroke-miterlimit="10"/>
<path d="M284.861 287.508H285.649V322.092H282.789V301.857" stroke="#263238" stroke-miterlimit="10"/>
<path d="M233.094 50.4673C234.031 45.4695 233.472 40.3064 231.487 35.625C229.502 30.9435 226.18 26.952 221.936 24.1506C217.693 21.3491 212.717 19.8624 207.632 19.8767C202.547 19.891 197.58 21.4056 193.352 24.2309C190.282 16.7676 184.716 10.6014 177.605 6.78504C170.495 2.96871 162.28 1.73887 154.363 3.30552C146.446 4.87216 139.319 9.13814 134.198 15.3751C129.077 21.6121 126.279 29.4333 126.283 37.5034C126.283 37.9356 126.283 38.354 126.283 38.7792C121.275 40.2019 116.908 43.3041 113.917 47.565C110.925 51.8259 109.49 56.9862 109.853 62.1798C110.216 67.3734 112.354 72.2841 115.909 76.0878C119.464 79.8915 124.219 82.3565 129.376 83.0692V83.3092H231.99C236.177 83.1893 240.161 81.4778 243.13 78.5233C246.099 75.5688 247.831 71.5935 247.972 67.4071C248.112 63.2207 246.652 59.1381 243.888 55.9908C241.124 52.8435 237.264 50.8682 233.094 50.4673Z" stroke="#263238" stroke-linecap="round" stroke-linejoin="round"/>
<path d="M76.9989 84.2969C77.1199 83.6546 77.1819 83.0025 77.1841 82.3489C77.1795 80.4342 76.6566 78.5564 75.6708 76.915C74.685 75.2735 73.2732 73.9295 71.5852 73.0257C69.8972 72.122 67.996 71.6921 66.0834 71.7817C64.1707 71.8713 62.3181 72.4771 60.722 73.5348C59.4591 70.4791 57.1761 67.9557 54.2616 66.3943C51.3472 64.8329 47.9815 64.3301 44.738 64.9715C41.4945 65.613 38.5736 67.359 36.4728 69.9122C34.372 72.4653 33.2213 75.6678 33.2166 78.9742C33.2166 79.1525 33.2166 79.324 33.2166 79.4955C31.1616 80.0778 29.3697 81.3496 28.1418 83.0972C26.9139 84.8448 26.3249 86.9618 26.4738 89.0925C26.6227 91.2231 27.5003 93.2377 28.9592 94.7976C30.4182 96.3575 32.3696 97.3678 34.4855 97.6587V97.7958H76.553C78.2905 97.7796 79.9546 97.0933 81.1983 95.88C82.4421 94.6666 83.1694 93.0201 83.2287 91.2835C83.288 89.547 82.6746 87.8547 81.5165 86.5594C80.3584 85.2641 78.7449 84.4659 77.0126 84.3312L76.9989 84.2969Z" stroke="#263238" stroke-linecap="round" stroke-linejoin="round"/>
<path d="M268.474 14.0381C268.559 13.6111 268.602 13.177 268.604 12.7417C268.603 11.4647 268.255 10.2119 267.598 9.11687C266.941 8.02186 265.999 7.12567 264.873 6.52378C263.746 5.9219 262.478 5.63688 261.202 5.6991C259.927 5.76132 258.692 6.16845 257.629 6.87711C256.79 4.8442 255.271 3.16538 253.332 2.12673C251.393 1.08807 249.154 0.753854 246.997 1.18102C244.839 1.60818 242.896 2.7703 241.499 4.46934C240.102 6.16839 239.338 8.29923 239.336 10.4988C239.336 10.6154 239.336 10.732 239.336 10.8486C237.959 11.2245 236.754 12.0663 235.927 13.2307C235.101 14.395 234.704 15.8098 234.803 17.2342C234.903 18.6586 235.493 20.0044 236.473 21.0425C237.453 22.0807 238.763 22.7469 240.18 22.9277V23.0305H268.165C269.321 23.0188 270.427 22.5614 271.254 21.7539C272.081 20.9464 272.564 19.8509 272.603 18.6959C272.642 17.5409 272.233 16.4154 271.463 15.5541C270.692 14.6927 269.619 14.162 268.467 14.0724L268.474 14.0381Z" stroke="#263238" stroke-linecap="round" stroke-linejoin="round"/>
<path d="M224.863 114.546H189.134L187.645 117.29C186.842 118.736 185.667 119.941 184.241 120.78C182.816 121.619 181.192 122.061 179.538 122.061C177.883 122.061 176.259 121.619 174.834 120.78C173.408 119.941 172.233 118.736 171.43 117.29L169.942 114.546H134.185C133.29 114.534 132.402 114.699 131.571 115.03C130.74 115.362 129.983 115.854 129.342 116.478C128.701 117.102 128.19 117.846 127.837 118.668C127.484 119.49 127.296 120.374 127.284 121.268V305.328C127.295 306.223 127.482 307.107 127.835 307.93C128.187 308.753 128.699 309.498 129.34 310.123C129.98 310.748 130.738 311.24 131.57 311.572C132.401 311.904 133.289 312.069 134.185 312.057H224.863C225.758 312.069 226.647 311.904 227.478 311.572C228.31 311.24 229.067 310.748 229.708 310.123C230.349 309.498 230.86 308.753 231.213 307.93C231.566 307.107 231.753 306.223 231.764 305.328V121.268C231.752 120.374 231.564 119.49 231.211 118.668C230.858 117.846 230.347 117.102 229.706 116.478C229.065 115.854 228.308 115.362 227.477 115.03C226.646 114.699 225.758 114.534 224.863 114.546V114.546Z" fill="white"/>
<path d="M229.061 125.658H130.707V308.826H229.061V125.658Z" fill="#569AFF"/>
<path d="M169.043 206.171C169.043 206.693 169.249 207.008 169.729 207.008C170.209 207.008 170.415 206.693 170.415 206.171V201.775H171.019V206.171C171.019 207.043 170.614 207.626 169.722 207.626C168.83 207.626 168.439 207.043 168.439 206.171V201.802H169.077L169.043 206.171Z" fill="#263238"/>
<path d="M172.877 201.795C173.783 201.795 174.167 202.33 174.167 203.201V203.887C174.167 204.8 173.742 205.259 172.829 205.259H172.26V207.543H171.615V201.788L172.877 201.795ZM172.829 204.704C173.303 204.704 173.515 204.484 173.515 203.935V203.167C173.515 202.639 173.323 202.378 172.829 202.378H172.212V204.704H172.829Z" fill="#263238"/>
<path d="M174.729 207.543V201.788H175.374V206.96H177.02V207.543H174.729Z" fill="#263238"/>
<path d="M177.418 203.181C177.418 202.303 177.857 201.734 178.735 201.734C179.613 201.734 180.059 202.303 180.059 203.181V206.171C180.059 207.043 179.627 207.619 178.735 207.619C177.843 207.619 177.418 207.043 177.418 206.171V203.181ZM178.056 206.192C178.056 206.72 178.275 207.029 178.742 207.029C179.208 207.029 179.428 206.72 179.428 206.192V203.153C179.428 202.632 179.215 202.317 178.742 202.317C178.269 202.317 178.056 202.632 178.056 203.153V206.192Z" fill="#263238"/>
<path d="M181.314 206.391L181.088 207.55H180.498L181.602 201.795H182.528L183.646 207.543H182.961L182.741 206.384L181.314 206.391ZM181.397 205.842H182.679L182.028 202.516L181.397 205.842Z" fill="#263238"/>
<path d="M185.485 201.795C186.384 201.795 186.795 202.337 186.795 203.222V206.13C186.795 207.008 186.384 207.55 185.485 207.55H184.113V201.795H185.485ZM185.485 206.967C185.945 206.967 186.171 206.679 186.171 206.151V203.195C186.171 202.666 185.945 202.378 185.485 202.378H184.799V206.967H185.485Z" fill="#263238"/>
<path d="M188.036 201.795V207.543H187.398V201.788L188.036 201.795Z" fill="#263238"/>
<path d="M189.264 207.543H188.688V201.788H189.504L190.834 205.952V201.788H191.404V207.543H190.718L189.243 202.886L189.264 207.543Z" fill="#263238"/>
<path d="M194.621 203.181V203.675H194.011V203.153C194.011 202.632 193.805 202.317 193.325 202.317C192.845 202.317 192.639 202.632 192.639 203.153V206.172C192.639 206.693 192.851 207.008 193.325 207.008C193.798 207.008 194.011 206.693 194.011 206.172V205.019H193.421V204.45H194.621V206.172C194.621 207.043 194.21 207.619 193.318 207.619C192.426 207.619 192.028 207.043 192.028 206.172V203.188C192.028 202.317 192.44 201.74 193.318 201.74C194.196 201.74 194.621 202.31 194.621 203.181Z" fill="#263238"/>
<path d="M185.142 210.02H155.757V214.958H185.142V210.02Z" fill="white" stroke="#263238" stroke-linecap="round" stroke-linejoin="round"/>
<path d="M206.542 210.02H155.757V214.958H206.542V210.02Z" stroke="#263238" stroke-miterlimit="10"/>
<path d="M224.582 117.187H217.373V121.138H224.582V117.187Z" stroke="#263238" stroke-width="0.821067" stroke-linecap="round" stroke-linejoin="round"/>
<path d="M222.991 117.187H217.373V121.138H222.991V117.187Z" fill="#263238" stroke="#263238" stroke-width="0.725073" stroke-linecap="round" stroke-linejoin="round"/>
<path d="M225.577 118.291H224.562V120.033H225.577V118.291Z" fill="#263238" stroke="#263238" stroke-width="0.725073" stroke-linecap="round" stroke-linejoin="round"/>
<path d="M134.555 118.415H133.231V120.678H134.555V118.415Z" fill="#263238" stroke="#263238" stroke-width="0.883086" stroke-linecap="round" stroke-linejoin="round"/>
<path d="M136.633 117.619H135.31V120.678H136.633V117.619Z" fill="#263238" stroke="#263238" stroke-width="0.883086" stroke-linecap="round" stroke-linejoin="round"/>
<path d="M138.712 116.679H137.388V120.678H138.712V116.679Z" fill="#263238" stroke="#263238" stroke-width="0.883086" stroke-linecap="round" stroke-linejoin="round"/>
<path d="M130.48 122.489H228.553" stroke="#263238" stroke-linecap="round" stroke-linejoin="round"/>
<path d="M236.853 177.802C237.047 177.802 237.232 177.725 237.37 177.589C237.507 177.453 237.585 177.268 237.587 177.075V157.471C237.585 157.278 237.507 157.093 237.37 156.956C237.232 156.82 237.047 156.744 236.853 156.744H234.953V119.231C234.953 116.731 233.96 114.334 232.193 112.567C230.425 110.799 228.028 109.806 225.529 109.806H133.519C131.02 109.806 128.623 110.799 126.855 112.567C125.088 114.334 124.095 116.731 124.095 119.231V312.661C124.094 313.899 124.337 315.125 124.81 316.269C125.283 317.414 125.977 318.453 126.853 319.329C127.728 320.205 128.767 320.9 129.911 321.374C131.055 321.848 132.281 322.092 133.519 322.092H225.529C228.028 322.092 230.425 321.099 232.193 319.332C233.96 317.564 234.953 315.167 234.953 312.668V194.689H236.853C237.048 194.689 237.235 194.612 237.372 194.474C237.51 194.336 237.587 194.15 237.587 193.955V185.21C237.587 185.114 237.568 185.019 237.531 184.93C237.494 184.841 237.44 184.761 237.372 184.693C237.304 184.626 237.223 184.572 237.134 184.536C237.045 184.5 236.949 184.482 236.853 184.483H234.953V177.802H236.853ZM231.764 305.328C231.753 306.223 231.566 307.107 231.213 307.93C230.861 308.753 230.349 309.498 229.708 310.123C229.067 310.748 228.31 311.24 227.478 311.572C226.647 311.904 225.758 312.069 224.863 312.057H134.185C133.29 312.069 132.401 311.904 131.57 311.572C130.738 311.24 129.981 310.748 129.34 310.123C128.699 309.498 128.187 308.753 127.835 307.93C127.482 307.107 127.295 306.223 127.284 305.328V121.268C127.296 120.374 127.484 119.49 127.837 118.668C128.19 117.846 128.701 117.102 129.342 116.478C129.983 115.854 130.74 115.362 131.571 115.03C132.402 114.699 133.29 114.534 134.185 114.546H169.928L171.416 117.29C172.219 118.736 173.395 119.941 174.82 120.78C176.246 121.619 177.87 122.061 179.524 122.061C181.178 122.061 182.802 121.619 184.228 120.78C185.653 119.941 186.829 118.736 187.632 117.29L189.12 114.546H224.863C225.758 114.534 226.646 114.699 227.477 115.03C228.308 115.362 229.065 115.854 229.706 116.478C230.347 117.102 230.858 117.846 231.211 118.668C231.564 119.49 231.752 120.374 231.764 121.268V305.328Z" fill="#263238" stroke="#263238" stroke-linecap="round" stroke-linejoin="round"/>
<path d="M167.947 244.488L141.016 248.421L145.039 275.964L171.97 272.03L167.947 244.488Z" fill="#263238" stroke="#263238" stroke-linecap="round" stroke-linejoin="round"/>
<path d="M163.068 254.666L157.766 262.293L152.67 261.607C152.42 261.576 152.167 261.602 151.929 261.684C151.691 261.766 151.475 261.902 151.298 262.081L144.068 269.276L145.049 275.971L171.985 272.02L169.928 257.862L165.476 254.316C165.299 254.171 165.094 254.064 164.873 254.003C164.652 253.941 164.422 253.927 164.195 253.96C163.968 253.993 163.751 254.072 163.557 254.194C163.363 254.316 163.197 254.476 163.068 254.666V254.666Z" fill="white" stroke="#263238" stroke-linecap="round" stroke-linejoin="round"/>
<path d="M152.602 257.842C153.295 257.757 153.947 257.467 154.474 257.01C155.002 256.553 155.381 255.949 155.564 255.275C155.746 254.601 155.724 253.888 155.5 253.227C155.275 252.566 154.859 251.987 154.304 251.564C153.749 251.14 153.08 250.892 152.383 250.85C151.687 250.809 150.993 250.976 150.392 251.33C149.79 251.684 149.308 252.21 149.006 252.839C148.705 253.469 148.598 254.174 148.699 254.865C148.76 255.317 148.909 255.752 149.138 256.146C149.367 256.54 149.672 256.885 150.034 257.162C150.396 257.438 150.81 257.64 151.25 257.757C151.691 257.874 152.15 257.903 152.602 257.842Z" fill="white" stroke="#263238" stroke-linecap="round" stroke-linejoin="round"/>
<path d="M209.506 36.1085L182.574 40.0422L186.597 67.5847L213.529 63.651L209.506 36.1085Z" fill="#263238" stroke="#263238" stroke-linecap="round" stroke-linejoin="round"/>
<path d="M204.615 46.2833L199.313 53.897L194.217 53.2111C193.967 53.178 193.714 53.2029 193.476 53.2838C193.238 53.3647 193.022 53.4994 192.845 53.6775L185.629 60.866L186.596 67.6154L213.525 63.6782L211.468 49.514L207.009 45.9678C206.835 45.8221 206.633 45.7142 206.415 45.6508C206.197 45.5875 205.968 45.5701 205.743 45.5998C205.518 45.6294 205.301 45.7055 205.107 45.8231C204.913 45.9408 204.746 46.0975 204.615 46.2833V46.2833Z" fill="white" stroke="#263238" stroke-linecap="round" stroke-linejoin="round"/>
<path d="M194.155 49.4659C194.847 49.3796 195.498 49.0889 196.025 48.631C196.551 48.1732 196.929 47.5688 197.111 46.8951C197.292 46.2215 197.269 45.5089 197.044 44.8485C196.819 44.188 196.403 43.6095 195.847 43.1869C195.292 42.7642 194.624 42.5164 193.927 42.4752C193.231 42.434 192.538 42.6013 191.937 42.9555C191.336 43.3098 190.854 43.8352 190.552 44.4645C190.251 45.0938 190.144 45.7986 190.245 46.489C190.306 46.9414 190.455 47.3774 190.685 47.772C190.914 48.1666 191.219 48.512 191.582 48.7885C191.945 49.0651 192.36 49.2672 192.801 49.3835C193.242 49.4997 193.702 49.5277 194.155 49.4659V49.4659Z" fill="white" stroke="#263238" stroke-linecap="round" stroke-linejoin="round"/>
<path d="M214.548 133.913L189.236 124.115L179.216 150.001L204.528 159.799L214.548 133.913Z" fill="#263238" stroke="#263238" stroke-width="0.997246" stroke-linecap="round" stroke-linejoin="round"/>
<path d="M205.5 141.098L197.125 145.124L193.009 142.017C192.808 141.864 192.573 141.76 192.325 141.712C192.076 141.665 191.82 141.675 191.576 141.743L181.781 144.438L179.332 150.742L204.711 160.592L209.89 147.251L207.77 141.969C207.686 141.757 207.559 141.564 207.396 141.404C207.234 141.243 207.039 141.118 206.826 141.036C206.613 140.954 206.385 140.917 206.156 140.928C205.928 140.939 205.705 140.997 205.5 141.098V141.098Z" fill="white" stroke="#263238" stroke-linecap="round" stroke-linejoin="round"/>
<path d="M194.827 138.704C195.471 138.972 196.181 139.041 196.866 138.904C197.55 138.766 198.178 138.428 198.669 137.932C199.16 137.435 199.492 136.804 199.623 136.118C199.754 135.433 199.677 134.724 199.403 134.082C199.129 133.439 198.67 132.894 198.084 132.514C197.498 132.134 196.812 131.938 196.114 131.949C195.416 131.961 194.738 132.181 194.165 132.58C193.592 132.979 193.152 133.54 192.899 134.191C192.556 135.045 192.567 136 192.928 136.847C193.29 137.693 193.973 138.361 194.827 138.704V138.704Z" fill="white" stroke="#263238" stroke-linecap="round" stroke-linejoin="round"/>
<path d="M169.483 168.34L142.715 163.417L137.681 190.793L164.449 195.716L169.483 168.34Z" fill="#263238" stroke="#263238" stroke-linecap="round" stroke-linejoin="round"/>
<path d="M161.937 180.463L148.054 168.638L144.755 186.575L161.937 180.463Z" fill="white" stroke="#263238" stroke-linecap="round" stroke-linejoin="round"/>
<path d="M213.443 264.18H186.226V292.014H213.443V264.18Z" fill="#263238" stroke="#263238" stroke-linecap="round" stroke-linejoin="round"/>
<path d="M208.209 277.466L192.412 268.343V286.582L208.209 277.466Z" fill="white" stroke="#263238" stroke-linecap="round" stroke-linejoin="round"/>
<path d="M172.447 63.5208L148.422 76.3112L161.502 100.881L185.527 88.0905L172.447 63.5208Z" fill="#263238" stroke="#263238" stroke-linecap="round" stroke-linejoin="round"/>
<path d="M174.071 77.7121L155.839 77.0879L164.413 93.1865L174.071 77.7121Z" fill="white" stroke="#263238" stroke-linecap="round" stroke-linejoin="round"/>
<g opacity="0.2">
<path opacity="0.2" d="M280.279 162.807L268.954 148.554L257.63 162.807H262.061V184.263H275.848V162.807H280.279Z" stroke="black" stroke-linecap="round" stroke-linejoin="round"/>
<path opacity="0.2" d="M196.706 233.094L185.388 218.84L174.063 233.094H178.495V254.556H192.282V233.094H196.706Z" stroke="black" stroke-linecap="round" stroke-linejoin="round"/>
<path opacity="0.2" d="M228.395 185.395L217.071 171.141L205.753 185.395H210.177V206.85H223.964V185.395H228.395Z" stroke="black" stroke-linecap="round" stroke-linejoin="round"/>
<path opacity="0.2" d="M115.15 163.171L103.826 148.917L92.5078 163.171H96.9389V184.627H110.726V163.171H115.15Z" stroke="black" stroke-linecap="round" stroke-linejoin="round"/>
</g>
<g opacity="0.2">
<path opacity="0.2" d="M115.898 86.5536L104.574 72.3002L93.249 86.5536H97.6801V108.009H111.467V86.5536H115.898Z" stroke="black" stroke-linecap="round" stroke-linejoin="round"/>
<path opacity="0.2" d="M271.589 101.081L260.264 86.828L248.946 101.081H253.37V122.537H267.164V101.081H271.589Z" stroke="black" stroke-linecap="round" stroke-linejoin="round"/>
<path opacity="0.2" d="M166.649 138.718L155.325 124.464L144.007 138.718H148.431V160.18H162.218V138.718H166.649Z" stroke="black" stroke-linecap="round" stroke-linejoin="round"/>
</g>
<path d="M27.53 297.111C27.1597 297.234 23.8124 309.245 22.9481 310.829C22.0838 312.414 24.3199 313.799 25.4243 314.67C26.5286 315.542 29.7593 319.376 33.3535 320.617C36.9477 321.859 41.9001 321.605 41.2759 320.494C40.6517 319.383 35.9532 317.023 34.8351 315.535C33.7171 314.046 32.2355 307.859 32.2355 307.859L36.694 299.189L27.53 297.111Z" fill="white" stroke="#263238" stroke-linecap="round" stroke-linejoin="round"/>
<path d="M36.6739 299.258L36.4133 299.148L27.5306 297.09C27.1183 297.951 26.7964 298.852 26.5703 299.779C29.0498 301.345 31.716 302.594 34.5064 303.497L36.6739 299.258Z" fill="#263238" stroke="#263238" stroke-linecap="round" stroke-linejoin="round"/>
<path d="M34.8354 315.562C34.0123 314.465 32.9903 310.809 32.5102 308.97C31.789 309.306 31.1136 309.733 30.5004 310.239C29.9214 310.739 29.4219 311.325 29.0188 311.975L24.1762 307.42C23.8358 308.587 23.4258 309.732 22.9484 310.85C22.0773 312.462 24.3203 313.82 25.4246 314.691C26.5289 315.562 29.7596 319.396 33.3539 320.638C36.9481 321.88 41.9004 321.626 41.2762 320.515C40.6521 319.403 35.9535 317.051 34.8354 315.562Z" fill="#569AFF" stroke="#263238" stroke-linecap="round" stroke-linejoin="round"/>
<path d="M75.833 300.575C75.833 300.575 82.5207 319.781 83.0215 320.892C83.5222 322.003 85.1272 322.264 86.2384 322.003C87.3496 321.742 91.9384 319.403 95.7796 318.909C99.6207 318.416 102.22 315.315 102.344 314.327C102.467 313.34 93.5503 315.068 90.9438 314.327C88.3374 313.587 86.1424 311.227 85.868 310.363C85.5937 309.499 84.7568 296.644 84.7568 296.644L75.833 300.575Z" fill="white" stroke="#263238" stroke-linecap="round" stroke-linejoin="round"/>
<path d="M84.7568 296.61L75.8398 300.575L76.6698 302.941C79.5704 302.546 82.3902 301.694 85.0243 300.417C84.8734 298.263 84.7568 296.61 84.7568 296.61Z" fill="#263238" stroke="#263238" stroke-linecap="round" stroke-linejoin="round"/>
<path d="M95.7792 318.909C99.6135 318.416 102.22 315.315 102.343 314.327C102.467 313.34 93.55 315.068 90.9435 314.327C89.5978 313.898 88.3635 313.176 87.3287 312.215C87.2808 312.462 87.2487 312.711 87.2326 312.962C87.1408 313.789 87.1825 314.625 87.3561 315.439C87.3561 315.439 83.9745 317.174 81.9922 318.093C82.5272 319.602 82.9113 320.652 83.0211 320.892C83.5149 322.003 85.1268 322.264 86.238 322.003C87.3492 321.742 91.938 319.403 95.7792 318.909Z" fill="#569AFF" stroke="#263238" stroke-linecap="round" stroke-linejoin="round"/>
<path d="M64.7894 183.536C64.7894 183.536 67.6565 182.644 71.8338 187.604C76.011 192.563 84.8663 217.901 84.8663 217.901C84.8663 217.901 83.0417 222.867 78.3363 222.085C73.6309 221.303 65.6673 195.588 65.6673 195.588C65.6673 195.588 62.711 181.78 64.7894 183.536Z" fill="white" stroke="#263238" stroke-linecap="round" stroke-linejoin="round"/>
<path d="M48.1633 173.59C48.1633 173.59 50.1662 179.256 49.2265 181.821C48.2868 184.387 42.0312 183.234 38.9377 187.014C35.8442 190.793 42.8269 217.558 42.8269 217.558C42.8269 217.558 35.515 231.708 33.9785 240.913C32.442 250.118 31.5023 279.009 31.2348 280.306C30.9673 281.602 27.3456 295.876 28.0521 295.753C28.7586 295.629 34.4175 298.819 36.1872 299.409C37.9568 299.999 38.7799 300.355 38.7799 300.355C38.7799 300.355 48.6915 285.615 51.641 278.653C54.5904 271.691 57.7731 255.77 57.7731 255.77L74.1666 298.942L85.0179 295.876L83.1316 257.657C83.1316 257.657 81.9518 243.033 78.2958 233.601C75.8397 227.466 72.7984 221.581 69.2143 216.028C69.2143 216.028 72.3969 204.464 71.4504 199.038C70.5038 193.612 64.7283 183.474 64.7283 183.474C64.7283 183.474 61.7857 183.351 60.6128 182.295C59.4399 181.238 57.3067 174.153 57.3067 174.153L48.1633 173.59Z" fill="#263238" stroke="#263238" stroke-linecap="round" stroke-linejoin="round"/>
<path d="M68.59 192.453L65.2358 184.27C64.9615 183.762 64.79 183.474 64.79 183.474C64.79 183.474 61.8474 183.351 60.6745 182.295C59.5015 181.238 57.3683 174.153 57.3683 174.153L48.1701 173.563C48.1701 173.563 50.173 179.228 49.2333 181.794C48.6777 183.317 46.2907 183.543 43.7939 184.236C45.5411 185.313 46.8822 186.939 47.6077 188.859C49.782 194.6 51.7643 196.98 51.7643 196.98L68.59 192.453Z" fill="white" stroke="#263238" stroke-linecap="round" stroke-linejoin="round"/>
<path d="M57.9512 176.039C57.5945 174.962 57.3613 174.18 57.3613 174.18L48.1631 173.59C48.1631 173.59 49.775 178.165 49.4183 180.978C52.6388 180.09 55.577 178.389 57.9512 176.039V176.039Z" fill="#263238" stroke="#263238" stroke-linecap="round" stroke-linejoin="round"/>
<path d="M57.834 255.798L61.2224 240.872" stroke="#858585" stroke-linecap="round" stroke-linejoin="round"/>
<path d="M27.2561 294.134L26.8857 296.878C28.5685 298.523 30.559 299.822 32.7435 300.698C34.5345 301.425 36.3668 302.046 38.2309 302.557L40.9746 298.963C38.4013 298.186 35.8943 297.204 33.4774 296.027C28.772 293.798 27.5305 293.283 27.5305 293.283L27.2561 294.134Z" fill="white" stroke="#263238" stroke-linecap="round" stroke-linejoin="round"/>
<path d="M72.2451 297.975L73.617 301.569C73.617 301.569 80.6819 300.575 83.2816 299.34C85.8812 298.105 87.3971 297.481 87.3971 297.481L86.9033 293.023L72.2451 297.975Z" fill="white" stroke="#263238" stroke-linecap="round" stroke-linejoin="round"/>
<path d="M71.512 199.065C70.5723 193.64 64.79 183.502 64.79 183.502C63.882 183.451 62.9824 183.299 62.108 183.049C62.108 183.125 62.1698 183.186 62.1972 183.262C62.7871 184.682 65.03 190.93 65.03 190.93L51.7026 192.343C50.9055 190.894 50.1955 189.398 49.5762 187.864C48.7725 186.18 47.5132 184.754 45.9409 183.749C43.6636 184.318 40.7622 184.826 38.965 187.048C35.9539 190.745 42.5867 216.543 42.8474 217.558C64.2549 218.024 69.2759 216.062 69.2759 216.062C69.2759 216.062 72.4586 204.491 71.512 199.065Z" fill="#569AFF" stroke="#263238" stroke-linecap="round" stroke-linejoin="round"/>
<path d="M94.0621 199.399L66.9395 197.131L64.62 224.869L91.7427 227.137L94.0621 199.399Z" fill="#263238" stroke="#263238" stroke-linecap="round" stroke-linejoin="round"/>
<path d="M87.7474 212.201L72.7669 201.795L71.2441 219.972L87.7474 212.201Z" fill="white" stroke="#263238" stroke-linecap="round" stroke-linejoin="round"/>
<path d="M45.9196 190.224C45.9196 190.224 44.6232 185.388 40.7341 185.738C36.8449 186.088 34.2453 189.984 34.9518 195.766C35.6583 201.548 39.9041 224.074 40.7341 225.844C41.564 227.613 74.3442 230.913 74.3442 230.913C74.3442 230.913 78.1168 232.326 79.2965 232.326C80.4763 232.326 86.4919 232.092 87.0817 231.386C87.6716 230.679 88.3781 230.206 87.9117 229.849C87.4453 229.493 84.1323 229.973 83.3092 229.616C82.2454 229.015 81.2212 228.346 80.2431 227.613C80.2431 227.613 83.1926 227.373 83.6727 227.023C84.1529 226.674 85.6756 225.37 84.4958 225.37C83.316 225.37 81.5464 225.727 80.0168 225.727C78.4872 225.727 75.2153 226.9 75.2153 226.9C70.9611 225.7 66.7734 224.276 62.6698 222.634C57.7175 220.514 51.1121 217.565 51.1121 217.565L45.9196 190.224Z" fill="white" stroke="#263238" stroke-linecap="round" stroke-linejoin="round"/>
<path d="M58.1842 158.973C58.1842 158.973 60.9279 157.67 60.0774 151.778C59.2268 145.886 48.0463 145.639 41.6604 148.122C35.2745 150.605 30.2193 153.191 31.3716 160.619C32.5239 168.048 38.2308 169.818 39.3146 170.764C40.3983 171.711 40.9745 173.474 40.2886 174.777C39.6026 176.08 38.6355 175.833 38.6355 175.833C38.6355 175.833 38.5189 177.136 41.8182 177.486C43.1843 177.597 44.5472 177.237 45.6802 176.466C46.8133 175.695 47.6483 174.559 48.0463 173.247C48.5128 171.244 47.2164 168.062 49.1027 165.462C50.9889 162.862 53.1153 160.153 52.9987 158.39C52.8821 156.627 52.7586 155.907 52.7586 155.907L58.1842 158.973Z" fill="#263238" stroke="#263238" stroke-linecap="round" stroke-linejoin="round"/>
<path d="M50.961 154.542C50.9438 158.13 49.7377 161.611 47.5314 164.44C43.8961 168.885 42.0441 169.29 42.0441 169.29C42.0441 169.29 41.0358 173.529 49.5137 176.56C57.9917 179.592 60.0152 174.338 60.4199 170.497C60.8246 166.656 59.8163 159.995 57.9986 157.979C56.1809 155.962 50.961 154.542 50.961 154.542Z" fill="white" stroke="#263238" stroke-linecap="round" stroke-linejoin="round"/>
<path d="M44.5003 170.298C44.5003 170.298 41.0707 164.646 39.253 168.075C37.4353 171.505 39.6577 173.734 42.079 173.734C43.384 173.771 44.6843 173.564 45.9133 173.124" fill="white"/>
<path d="M44.5003 170.298C44.5003 170.298 41.0707 164.646 39.253 168.075C37.4353 171.505 39.6577 173.734 42.079 173.734C43.384 173.771 44.6843 173.564 45.9133 173.124" stroke="#263238" stroke-linecap="round" stroke-linejoin="round"/>
<path d="M54.2949 160.386C54.2949 160.386 55.2415 162.506 56.5379 162.506C57.8343 162.506 59.1307 161.683 58.5408 163.192C57.9509 164.701 57.2444 165.078 57.2444 165.078" stroke="#263238" stroke-linecap="round" stroke-linejoin="round"/>
<path d="M51.1123 167.815C52.1069 168.174 53.1737 168.287 54.2213 168.143C55.269 168 56.2663 167.605 57.1278 166.992" stroke="#263238" stroke-linecap="round" stroke-linejoin="round"/>
<path d="M52.004 162.128C52.3195 162.91 52.2783 163.672 51.9148 163.816C51.5513 163.96 51.0025 163.439 50.687 162.65C50.3715 161.861 50.4126 161.113 50.7762 160.969C51.1397 160.825 51.6885 161.34 52.004 162.128Z" fill="#263238"/>
<path d="M56.7503 160.386C57.0658 161.168 57.0246 161.93 56.6611 162.074C56.2975 162.218 55.7488 161.696 55.4401 160.908C55.1315 160.119 55.1589 159.371 55.5225 159.227C55.886 159.083 56.4553 159.597 56.7503 160.386Z" fill="#263238"/>
<path d="M96.5818 202.9C96.0227 202.528 95.3467 202.374 94.6818 202.468C93.8038 202.564 92.624 202.79 92.624 203.236C92.624 203.922 95.8821 204.656 96.8767 203.922C97.3432 203.592 97.0276 203.201 96.5818 202.9Z" fill="white" stroke="#263238" stroke-linecap="round" stroke-linejoin="round"/>
<path d="M97.0623 204.71C96.5018 204.342 95.8277 204.186 95.1623 204.271C94.2843 204.374 93.1045 204.594 93.1045 205.047C93.1045 205.732 96.3626 206.46 97.3572 205.732C97.8236 205.396 97.5012 205.005 97.0623 204.71Z" fill="white" stroke="#263238" stroke-linecap="round" stroke-linejoin="round"/>
<path d="M96.9246 206.624C96.3641 206.255 95.69 206.1 95.0246 206.185C94.1466 206.288 92.9668 206.508 92.9668 206.96C92.9668 207.646 96.2249 208.38 97.2195 207.646C97.6859 207.317 97.3704 206.926 96.9246 206.624Z" fill="white" stroke="#263238" stroke-linecap="round" stroke-linejoin="round"/>
<path d="M95.7182 208.318C95.2968 208.043 94.791 207.926 94.2914 207.989C93.6055 208.065 92.7275 208.236 92.7275 208.572C92.7275 209.107 95.1763 209.635 95.9171 209.107C96.2943 208.84 96.0543 208.545 95.7182 208.318Z" fill="white" stroke="#263238" stroke-linecap="round" stroke-linejoin="round"/>
<path d="M3.93457 322.092H315.343" stroke="#263238" stroke-linecap="round" stroke-linejoin="round"/>
</svg>
