<svg width="16" height="14" viewBox="0 0 16 14" fill="none" xmlns="http://www.w3.org/2000/svg">
<path d="M13.8009 8.75H5.78517L5.96414 9.625H13.3037C13.7248 9.625 14.0369 10.016 13.9436 10.4267L13.7928 11.0905C14.3038 11.3386 14.6562 11.8625 14.6562 12.4688C14.6562 13.3219 13.9585 14.0121 13.1025 13.9998C12.287 13.9881 11.6163 13.3263 11.5943 12.5111C11.5823 12.0657 11.7607 11.6621 12.0538 11.375H6.32122C6.60496 11.6529 6.78125 12.0402 6.78125 12.4688C6.78125 13.3386 6.05588 14.0391 5.17699 13.9983C4.3966 13.9621 3.76193 13.3315 3.72091 12.5514C3.68925 11.9489 4.00627 11.4178 4.48793 11.1408L2.56711 1.75H0.65625C0.293809 1.75 0 1.45619 0 1.09375V0.65625C0 0.293809 0.293809 0 0.65625 0H3.45978C3.77152 0 4.04023 0.219324 4.10271 0.524727L4.35334 1.75H15.0935C15.5146 1.75 15.8267 2.14104 15.7334 2.55169L14.4408 8.23919C14.3729 8.53798 14.1073 8.75 13.8009 8.75ZM11.1562 4.59375H9.84375V3.5C9.84375 3.25836 9.64789 3.0625 9.40625 3.0625H8.96875C8.72711 3.0625 8.53125 3.25836 8.53125 3.5V4.59375H7.21875C6.97711 4.59375 6.78125 4.78961 6.78125 5.03125V5.46875C6.78125 5.71039 6.97711 5.90625 7.21875 5.90625H8.53125V7C8.53125 7.24164 8.72711 7.4375 8.96875 7.4375H9.40625C9.64789 7.4375 9.84375 7.24164 9.84375 7V5.90625H11.1562C11.3979 5.90625 11.5938 5.71039 11.5938 5.46875V5.03125C11.5938 4.78961 11.3979 4.59375 11.1562 4.59375Z" fill="#569AFF"/>
</svg>
