<svg width="20" height="20" viewBox="0 0 20 20" fill="none" xmlns="http://www.w3.org/2000/svg">
<path fill-rule="evenodd" clip-rule="evenodd" d="M1.49888 9.37421C1.49888 9.20845 1.56473 9.04948 1.68194 8.93227C1.79915 8.81506 1.95812 8.74921 2.12388 8.74921H16.8651L12.9314 4.81671C12.814 4.69935 12.7481 4.54018 12.7481 4.37421C12.7481 4.20824 12.814 4.04907 12.9314 3.93171C13.0487 3.81435 13.2079 3.74842 13.3739 3.74842C13.5399 3.74842 13.699 3.81435 13.8164 3.93171L18.8164 8.93171C18.8746 8.98977 18.9208 9.05874 18.9523 9.13467C18.9838 9.2106 19 9.292 19 9.37421C19 9.45642 18.9838 9.53782 18.9523 9.61375C18.9208 9.68968 18.8746 9.75865 18.8164 9.81671L13.8164 14.8167C13.7583 14.8748 13.6893 14.9209 13.6134 14.9524C13.5374 14.9838 13.4561 15 13.3739 15C13.2079 15 13.0487 14.9341 12.9314 14.8167C12.814 14.6994 12.7481 14.5402 12.7481 14.3742C12.7481 14.2082 12.814 14.0491 12.9314 13.9317L16.8651 9.99921H2.12388C1.95812 9.99921 1.79915 9.93336 1.68194 9.81615C1.56473 9.69894 1.49888 9.53997 1.49888 9.37421Z" fill="white"/>
</svg>
