<svg width="12" height="12" viewBox="0 0 12 12" fill="none" xmlns="http://www.w3.org/2000/svg">
<path d="M2.22704 8.03023C2.36768 8.17083 2.55841 8.24982 2.75729 8.24982C2.95616 8.24982 3.14689 8.17083 3.28754 8.03023L7.00004 4.31773L10.7125 8.03023C10.854 8.16685 11.0434 8.24244 11.2401 8.24073C11.4367 8.23902 11.6248 8.16015 11.7639 8.02109C11.903 7.88203 11.9818 7.69393 11.9835 7.49728C11.9853 7.30063 11.9097 7.11118 11.773 6.96973L7.53029 2.72698C7.38964 2.58637 7.19891 2.50739 7.00004 2.50739C6.80116 2.50739 6.61043 2.58637 6.46979 2.72698L2.22704 6.96973C2.08643 7.11037 2.00745 7.3011 2.00745 7.49998C2.00745 7.69885 2.08643 7.88958 2.22704 8.03023Z" fill="#2F2C3A"/>
</svg>
