<svg width="20" height="20" viewBox="0 0 20 20" fill="none" xmlns="http://www.w3.org/2000/svg">
<path d="M5.41634 9.99999C6.63192 9.99999 7.79771 10.4829 8.65725 11.3424C9.51679 12.202 9.99967 13.3677 9.99967 14.5833C9.99967 15.7989 9.51679 16.9647 8.65725 17.8242C7.79771 18.6838 6.63192 19.1667 5.41634 19.1667C4.20077 19.1667 3.03498 18.6838 2.17544 17.8242C1.31589 16.9647 0.833008 15.7989 0.833008 14.5833C0.833008 13.3677 1.31589 12.202 2.17544 11.3424C3.03498 10.4829 4.20077 9.99999 5.41634 9.99999ZM13.9572 1.66666C14.4545 1.66666 14.9314 1.8642 15.283 2.21583C15.6346 2.56746 15.8322 3.04438 15.8322 3.54166V16.4583C15.8322 16.9556 15.6346 17.4325 15.283 17.7841C14.9314 18.1358 14.4545 18.3333 13.9572 18.3333H9.32384C10.1861 17.4355 10.7128 16.2681 10.8153 15.0275C10.9178 13.7869 10.5899 12.5489 9.88678 11.5217C9.18362 10.4945 8.14812 9.7408 6.95451 9.38748C5.76089 9.03415 4.482 9.10272 3.33301 9.58166V3.54249C3.3329 3.29612 3.38134 3.05215 3.47557 2.82451C3.5698 2.59687 3.70797 2.39004 3.88218 2.21583C4.05639 2.04162 4.26323 1.90345 4.49086 1.80922C4.7185 1.71499 4.96247 1.66655 5.20884 1.66666H13.958H13.9572ZM5.41634 16.5667C5.34625 16.5639 5.27631 16.5752 5.21072 16.6001C5.14513 16.625 5.08525 16.6629 5.03467 16.7115C4.98408 16.7601 4.94383 16.8184 4.91634 16.883C4.88885 16.9475 4.87468 17.0169 4.87468 17.0871C4.87468 17.1572 4.88885 17.2267 4.91634 17.2912C4.94383 17.3557 4.98408 17.414 5.03467 17.4627C5.08525 17.5113 5.14513 17.5491 5.21072 17.574C5.27631 17.5989 5.34625 17.6103 5.41634 17.6075C5.55076 17.6021 5.67789 17.5449 5.77109 17.4479C5.86429 17.3509 5.91635 17.2216 5.91635 17.0871C5.91635 16.9525 5.86429 16.8232 5.77109 16.7262C5.67789 16.6292 5.55076 16.572 5.41634 16.5667ZM5.41634 11.6692C5.31882 11.6691 5.22438 11.7033 5.14946 11.7657C5.07454 11.8282 5.02389 11.9149 5.00634 12.0108L4.99967 12.0858V15.4175L5.00634 15.4925C5.02374 15.5886 5.07431 15.6755 5.14925 15.7381C5.22418 15.8006 5.31871 15.8349 5.41634 15.8349C5.51397 15.8349 5.6085 15.8006 5.68344 15.7381C5.75837 15.6755 5.80895 15.5886 5.82634 15.4925L5.83301 15.4167V12.085L5.82634 12.01C5.80879 11.9141 5.75814 11.8273 5.68322 11.7649C5.60831 11.7025 5.51386 11.6683 5.41634 11.6683V11.6692ZM17.2913 12.5017C17.4424 12.5017 17.5883 12.5564 17.7021 12.6556C17.8159 12.7549 17.89 12.892 17.9105 13.0417L17.9163 13.1267V14.375C17.9163 14.526 17.8616 14.6719 17.7624 14.7858C17.6631 14.8996 17.526 14.9736 17.3763 14.9942L17.2913 15H16.6663V12.5017H17.2913ZM17.2913 9.16832C17.4424 9.16833 17.5883 9.22302 17.7021 9.3223C17.8159 9.42157 17.89 9.55869 17.9105 9.70832L17.9163 9.79332V11.0417C17.9163 11.1927 17.8616 11.3386 17.7624 11.4524C17.6631 11.5663 17.526 11.6403 17.3763 11.6608L17.2913 11.6667H16.6663V9.16832H17.2913ZM17.2913 5.83499C17.4424 5.835 17.5883 5.88969 17.7021 5.98896C17.8159 6.08823 17.89 6.22536 17.9105 6.37499L17.9163 6.45999V7.70832C17.9163 7.85935 17.8616 8.00527 17.7624 8.1191C17.6631 8.23292 17.526 8.30695 17.3763 8.32749L17.2913 8.33332H16.6663V5.83499H17.2913ZM12.2897 4.58332H6.87301C6.72198 4.58333 6.57606 4.63803 6.46223 4.7373C6.34841 4.83657 6.27438 4.97369 6.25384 5.12332L6.24801 5.20832V6.45832C6.24801 6.77499 6.48301 7.03582 6.78801 7.07749L6.87301 7.08332H12.2897C12.4407 7.08332 12.5866 7.02862 12.7004 6.92935C12.8143 6.83008 12.8883 6.69295 12.9088 6.54332L12.9147 6.45832V5.20832C12.9147 5.04256 12.8488 4.88359 12.7316 4.76638C12.6144 4.64917 12.4554 4.58332 12.2897 4.58332Z" fill="url(#paint0_linear_252_984)"/>
<defs>
<linearGradient id="paint0_linear_252_984" x1="0.833008" y1="1.66666" x2="19.5964" y2="4.83178" gradientUnits="userSpaceOnUse">
<stop stop-color="#FFD84E"/>
<stop offset="1" stop-color="#E6B50A"/>
</linearGradient>
</defs>
</svg>
