<svg width="16" height="16" viewBox="0 0 16 16" fill="none" xmlns="http://www.w3.org/2000/svg">
<path d="M8 16C10.2109 16 12 14.2109 12 12V3.63636H10.9091V12C10.9091 13.6073 9.60727 14.9091 8 14.9091C6.39273 14.9091 5.09091 13.6073 5.09091 12V2.90909C5.09091 2.42688 5.28247 1.96442 5.62344 1.62344C5.96442 1.28247 6.42688 1.09091 6.90909 1.09091C7.3913 1.09091 7.85376 1.28247 8.19474 1.62344C8.53572 1.96442 8.72727 2.42688 8.72727 2.90909V10.5455C8.72727 10.9455 8.4 11.2727 8 11.2727C7.6 11.2727 7.27273 10.9455 7.27273 10.5455V3.63636H6.18182V10.5455C6.18182 11.0277 6.37338 11.4901 6.71435 11.8311C7.05533 12.1721 7.51779 12.3636 8 12.3636C8.48221 12.3636 8.94467 12.1721 9.28565 11.8311C9.62662 11.4901 9.81818 11.0277 9.81818 10.5455V2.90909C9.81818 1.30182 8.51636 0 6.90909 0C5.30182 0 4 1.30182 4 2.90909V12C4 14.2109 5.78909 16 8 16Z" fill="#2F2C3A"/>
</svg>
