<svg width="22" height="22" viewBox="0 0 22 22" fill="none" xmlns="http://www.w3.org/2000/svg">
<path d="M17.5312 16.5H17.0156V9.19531C17.0156 6.16387 14.7748 3.65664 11.8594 3.23984V2.40625C11.8594 1.93145 11.4748 1.54688 11 1.54688C10.5252 1.54688 10.1406 1.93145 10.1406 2.40625V3.23984C7.2252 3.65664 4.98438 6.16387 4.98438 9.19531V16.5H4.46875C4.08848 16.5 3.78125 16.8072 3.78125 17.1875V17.875C3.78125 17.9695 3.85859 18.0469 3.95312 18.0469H8.59375C8.59375 19.3746 9.67227 20.4531 11 20.4531C12.3277 20.4531 13.4062 19.3746 13.4062 18.0469H18.0469C18.1414 18.0469 18.2188 17.9695 18.2188 17.875V17.1875C18.2188 16.8072 17.9115 16.5 17.5312 16.5ZM11 19.0781C10.4307 19.0781 9.96875 18.6162 9.96875 18.0469H12.0312C12.0312 18.6162 11.5693 19.0781 11 19.0781Z" fill="white"/>
</svg>
