<svg width="15" height="20" viewBox="0 0 15 20" fill="none" xmlns="http://www.w3.org/2000/svg">
<path d="M0.5 19.3749V19.3746V2.49994C0.5 1.96952 0.710708 1.46083 1.08577 1.08577C1.46083 0.710708 1.96953 0.5 2.49994 0.5H12.4997C13.0301 0.5 13.5388 0.710708 13.9139 1.08577C14.2889 1.46083 14.4997 1.96953 14.4997 2.49994V19.3746V19.3749C14.4997 19.3966 14.494 19.418 14.4833 19.4368C14.4726 19.4557 14.4571 19.4714 14.4384 19.4825C14.4198 19.4936 14.3985 19.4996 14.3768 19.5C14.3551 19.5004 14.3337 19.4951 14.3147 19.4847L14.3142 19.4844L7.73931 15.897L7.49983 15.7663L7.26034 15.897L0.685494 19.4844L0.684979 19.4847C0.66594 19.4951 0.644515 19.5004 0.622812 19.5C0.601112 19.4996 0.579883 19.4936 0.561216 19.4825C0.542548 19.4714 0.527087 19.4557 0.516354 19.4368C0.505621 19.418 0.499984 19.3966 0.5 19.3749Z" stroke="#2F2C3A"/>
</svg>
