<svg width="24" height="20" viewBox="0 0 24 20" fill="none" xmlns="http://www.w3.org/2000/svg">
<path d="M6 3.24995V18.4371C5.99994 18.5348 6.02248 18.6308 6.06542 18.7157C6.10836 18.8006 6.17022 18.8714 6.24489 18.9213C6.31957 18.9711 6.40449 18.9982 6.4913 18.9999C6.57812 19.0016 6.66383 18.9779 6.74 18.931L12 15.7023L17.26 18.931C17.3362 18.9779 17.4219 19.0016 17.5087 18.9999C17.5955 18.9982 17.6804 18.9711 17.7551 18.9213C17.8298 18.8714 17.8916 18.8006 17.9346 18.7157C17.9775 18.6308 18.0001 18.5348 18 18.4371V3.24995C18 2.65323 17.7893 2.08094 17.4142 1.65899C17.0391 1.23705 16.5304 1 16 1H8C7.46957 1 6.96086 1.23705 6.58579 1.65899C6.21071 2.08094 6 2.65323 6 3.24995V3.24995Z" fill="#569AFF"/>
</svg>
