<svg width="23" height="20" viewBox="0 0 23 20" fill="none" xmlns="http://www.w3.org/2000/svg">
<path d="M20.1418 11.6595L20.1418 11.6595C20.0965 11.8587 19.9194 12 19.7151 12H8.26416H7.65155L7.77431 12.6002L8.02997 13.8502L8.11174 14.25H8.51983H19.0049C19.2856 14.25 19.4937 14.5107 19.4315 14.7845L19.216 15.7327L19.128 16.12L19.4852 16.2934C20.0497 16.5674 20.4371 17.1452 20.4371 17.8125C20.4371 18.7445 19.6816 19.5 18.7496 19.5C17.8177 19.5 17.0621 18.7445 17.0621 17.8125C17.0621 17.3403 17.2557 16.9143 17.5692 16.6072L18.4441 15.75H17.2193H9.02995H7.805L8.68006 16.6072C8.99355 16.9143 9.18713 17.3403 9.18713 17.8125C9.18713 18.7445 8.43162 19.5 7.49963 19.5C6.56765 19.5 5.81213 18.7445 5.81213 17.8125C5.81213 17.1873 6.15229 16.641 6.66027 16.3489L6.9732 16.1689L6.90086 15.8152L4.1568 2.3998L4.07502 2H3.66694H0.937134C0.695503 2 0.499634 1.80413 0.499634 1.5625V0.9375C0.499634 0.695869 0.695503 0.5 0.937134 0.5H4.94217C5.15003 0.5 5.32916 0.646237 5.37079 0.849784L5.37079 0.849811L5.72884 2.6002L5.81062 3H6.2187H21.5617C21.8425 3 22.0506 3.26069 21.9884 3.53446L20.1418 11.6595Z" stroke="#2F2C3A"/>
</svg>
