<svg width="24" height="20" viewBox="0 0 24 20" fill="none" xmlns="http://www.w3.org/2000/svg">
<path d="M20.5667 11.5932L22.2287 4.28075C22.3486 3.75277 21.9473 3.25 21.4059 3.25H7.59716L7.27491 1.67465C7.19462 1.28199 6.8491 1 6.44829 1H2.84375C2.37775 1 2 1.37775 2 1.84375V2.40625C2 2.87225 2.37775 3.25 2.84375 3.25H5.30057L7.77023 15.3239C7.17939 15.6637 6.78125 16.3008 6.78125 17.0312C6.78125 18.1186 7.66269 19 8.75 19C9.83731 19 10.7188 18.1186 10.7188 17.0312C10.7188 16.4802 10.4921 15.9824 10.1273 15.625H17.4977C17.1329 15.9824 16.9062 16.4802 16.9062 17.0312C16.9062 18.1186 17.7877 19 18.875 19C19.9623 19 20.8438 18.1186 20.8438 17.0312C20.8438 16.2518 20.3907 15.5782 19.7336 15.2592L19.9275 14.4057C20.0475 13.8778 19.6462 13.375 19.1047 13.375H9.66818L9.43808 12.25H19.744C20.1379 12.25 20.4794 11.9774 20.5667 11.5932Z" fill="#569AFF"/>
</svg>
