<svg width="25" height="22" viewBox="0 0 25 22" fill="none" xmlns="http://www.w3.org/2000/svg">
<g clip-path="url(#clip0_505_1525)">
<path d="M22.6927 12.9473L24.7239 4.0098C24.8706 3.3645 24.3801 2.75 23.7183 2.75H6.84097L6.44712 0.82457C6.34898 0.344652 5.92668 0 5.43679 0H1.03125C0.461699 0 0 0.461699 0 1.03125V1.71875C0 2.2883 0.461699 2.75 1.03125 2.75H4.03404L7.0525 17.507C6.33037 17.9223 5.84375 18.7009 5.84375 19.5938C5.84375 20.9227 6.92106 22 8.25 22C9.57894 22 10.6563 20.9227 10.6563 19.5938C10.6563 18.9203 10.3792 18.3118 9.93334 17.875H18.9416C18.4958 18.3118 18.2188 18.9203 18.2188 19.5938C18.2188 20.9227 19.2961 22 20.625 22C21.9539 22 23.0313 20.9227 23.0313 19.5938C23.0313 18.641 22.4775 17.8178 21.6743 17.4279L21.9114 16.3848C22.0581 15.7395 21.5676 15.125 20.9058 15.125H9.37222L9.09099 13.75H21.6871C22.1686 13.75 22.586 13.4168 22.6927 12.9473Z" fill="white"/>
</g>
<defs>
<clipPath id="clip0_505_1525">
<rect width="24.75" height="22" fill="white"/>
</clipPath>
</defs>
</svg>
