<svg width="20" height="20" viewBox="0 0 20 20" fill="none" xmlns="http://www.w3.org/2000/svg">
<path d="M13.9583 18.4667L11.6667 15.9667L12.6333 15L13.9583 16.325L16.95 13.3333L17.9167 14.5083L13.9583 18.4667ZM2.5 5.83332V4.16666H4.16667V3.33332C4.16667 2.8913 4.34226 2.46737 4.65482 2.15481C4.96738 1.84225 5.39131 1.66666 5.83333 1.66666H10.8333V7.49999L12.9167 6.24999L15 7.49999V1.66666H15.8333C16.7083 1.66666 17.5 2.45832 17.5 3.33332V11.5C16.5463 10.9511 15.4382 10.7318 14.3473 10.8762C13.2563 11.0206 12.2434 11.5205 11.4653 12.2986C10.6872 13.0767 10.1872 14.0897 10.0429 15.1806C9.8985 16.2715 10.1177 17.3796 10.6667 18.3333H5.83333C4.95833 18.3333 4.16667 17.5417 4.16667 16.6667V15.8333H2.5V14.1667H4.16667V10.8333H2.5V9.16666H4.16667V5.83332H2.5ZM4.16667 4.16666V5.83332H5.83333V4.16666H4.16667ZM4.16667 15.8333H5.83333V14.1667H4.16667V15.8333ZM4.16667 10.8333H5.83333V9.16666H4.16667V10.8333Z" fill="url(#paint0_linear_252_979)"/>
<defs>
<linearGradient id="paint0_linear_252_979" x1="2.5" y1="1.66666" x2="19.4875" y2="4.36039" gradientUnits="userSpaceOnUse">
<stop stop-color="#FFD84E"/>
<stop offset="1" stop-color="#E6B50A"/>
</linearGradient>
</defs>
</svg>
