<svg width="29" height="22" viewBox="0 0 29 22" fill="none" xmlns="http://www.w3.org/2000/svg">
<path d="M26.1602 0.5H2.82682C2.25219 0.5 1.70109 0.728273 1.29476 1.1346C0.888429 1.54093 0.660156 2.09203 0.660156 2.66667V19.3333C0.660156 19.908 0.888429 20.4591 1.29476 20.8654C1.70109 21.2717 2.25219 21.5 2.82682 21.5H26.1602C26.7348 21.5 27.2859 21.2717 27.6922 20.8654C28.0985 20.4591 28.3268 19.908 28.3268 19.3333V2.66667C28.3268 2.09203 28.0985 1.54093 27.6922 1.1346C27.2859 0.728273 26.7348 0.5 26.1602 0.5ZM15.3268 13.8333H6.99349C6.90508 13.8333 6.8203 13.7982 6.75779 13.7357C6.69527 13.6732 6.66016 13.5884 6.66016 13.5C6.66016 13.4116 6.69527 13.3268 6.75779 13.2643C6.8203 13.2018 6.90508 13.1667 6.99349 13.1667H15.3268C15.4152 13.1667 15.5 13.2018 15.5625 13.2643C15.625 13.3268 15.6602 13.4116 15.6602 13.5C15.6602 13.5884 15.625 13.6732 15.5625 13.7357C15.5 13.7982 15.4152 13.8333 15.3268 13.8333ZM21.9935 10.5H6.99349C6.90508 10.5 6.8203 10.4649 6.75779 10.4024C6.69527 10.3399 6.66016 10.2551 6.66016 10.1667C6.66016 10.0783 6.69527 9.99348 6.75779 9.93096C6.8203 9.86845 6.90508 9.83333 6.99349 9.83333H21.9935C22.0819 9.83333 22.1667 9.86845 22.2292 9.93096C22.2917 9.99347 22.3268 10.0783 22.3268 10.1667C22.3268 10.2551 22.2917 10.3399 22.2292 10.4024C22.1667 10.4649 22.0819 10.5 21.9935 10.5ZM21.9935 7.16667H6.99349C6.90508 7.16667 6.8203 7.13155 6.75779 7.06904C6.69527 7.00652 6.66016 6.92174 6.66016 6.83333C6.66016 6.74493 6.69527 6.66014 6.75779 6.59763C6.8203 6.53512 6.90508 6.5 6.99349 6.5H21.9935C22.0819 6.5 22.1667 6.53512 22.2292 6.59763C22.2917 6.66014 22.3268 6.74493 22.3268 6.83333C22.3268 6.92174 22.2917 7.00652 22.2292 7.06904C22.1667 7.13155 22.0819 7.16667 21.9935 7.16667Z" stroke="#2F2C3A"/>
</svg>
