<svg width="9" height="16" viewBox="0 0 9 16" fill="none" xmlns="http://www.w3.org/2000/svg">
<path d="M6.71932 7.38203L3.76619 6.51797C3.42439 6.41953 3.1865 6.09961 3.1865 5.74414C3.1865 5.29844 3.54744 4.9375 3.99314 4.9375H5.80603C6.13963 4.9375 6.46775 5.03867 6.74119 5.22461C6.90799 5.33672 7.13221 5.30937 7.27439 5.16992L8.22596 4.24023C8.4201 4.05156 8.39275 3.73711 8.17674 3.57031C7.50682 3.04531 6.6701 2.75273 5.8115 2.75V1.4375C5.8115 1.19687 5.61463 1 5.374 1H4.499C4.25838 1 4.0615 1.19687 4.0615 1.4375V2.75H3.99314C2.25135 2.75 0.851348 4.2457 1.01268 6.02031C1.12752 7.28086 2.09002 8.30625 3.30408 8.66172L6.10682 9.48203C6.44861 9.5832 6.6865 9.90039 6.6865 10.2559C6.6865 10.7016 6.32557 11.0625 5.87986 11.0625H4.06697C3.73338 11.0625 3.40525 10.9613 3.13182 10.7754C2.96502 10.6633 2.7408 10.6906 2.59861 10.8301L1.64705 11.7598C1.45291 11.9484 1.48025 12.2629 1.69627 12.4297C2.36619 12.9547 3.20291 13.2473 4.0615 13.25V14.5625C4.0615 14.8031 4.25838 15 4.499 15H5.374C5.61463 15 5.8115 14.8031 5.8115 14.5625V13.2445C7.08572 13.2199 8.28064 12.4625 8.70174 11.2566C9.28963 9.57227 8.30252 7.84414 6.71932 7.38203Z" fill="#60CD83"/>
</svg>
