<svg width="10" height="7" viewBox="0 0 10 7" fill="none" xmlns="http://www.w3.org/2000/svg">
<path d="M0.227036 0.969773C0.367682 0.82917 0.558413 0.750183 0.757286 0.750183C0.956159 0.750183 1.14689 0.82917 1.28754 0.969773L5.00004 4.68227L8.71254 0.969773C8.85399 0.833154 9.04344 0.757558 9.24009 0.759267C9.43674 0.760976 9.62484 0.839853 9.7639 0.978909C9.90296 1.11797 9.98183 1.30607 9.98354 1.50272C9.98525 1.69937 9.90965 1.88882 9.77304 2.03027L5.53029 6.27302C5.38964 6.41363 5.19891 6.49261 5.00004 6.49261C4.80116 6.49261 4.61043 6.41363 4.46979 6.27302L0.227036 2.03027C0.0864329 1.88963 0.00744629 1.6989 0.00744629 1.50002C0.00744629 1.30115 0.0864329 1.11042 0.227036 0.969773Z" fill="#2F2C3A"/>
</svg>
