<svg width="10" height="7" viewBox="0 0 10 7" fill="none" xmlns="http://www.w3.org/2000/svg">
<path d="M4.36492 6.7984C4.40741 6.86057 4.46427 6.91141 4.5306 6.94653C4.59692 6.98165 4.67073 7 4.74566 7C4.82059 7 4.8944 6.98165 4.96072 6.94653C5.02705 6.91141 5.08391 6.86057 5.1264 6.7984L9.29512 0.73215C9.34337 0.662181 9.37166 0.580228 9.37693 0.495195C9.3822 0.410163 9.36423 0.325302 9.32498 0.249833C9.28574 0.174365 9.22671 0.111175 9.15432 0.0671292C9.08193 0.0230835 8.99894 -0.000133618 8.91437 5.78465e-07H0.576946C0.492573 0.000351679 0.409891 0.0238674 0.337792 0.0680186C0.265693 0.11217 0.206904 0.175286 0.167749 0.25058C0.128594 0.325874 0.110553 0.410497 0.115566 0.495348C0.12058 0.580199 0.148458 0.662067 0.196203 0.73215L4.36492 6.7984Z" fill="#DFDFDF"/>
</svg>
