<svg width="24" height="20" viewBox="0 0 24 20" fill="none" xmlns="http://www.w3.org/2000/svg">
<path d="M14.3534 9.20547L10.5565 8.09453C10.1171 7.96797 9.81122 7.55664 9.81122 7.09961C9.81122 6.52656 10.2753 6.0625 10.8483 6.0625H13.1792C13.6081 6.0625 14.03 6.19258 14.3815 6.43164C14.596 6.57578 14.8843 6.54062 15.0671 6.36133L16.2905 5.16602C16.5401 4.92344 16.505 4.51914 16.2272 4.30469C15.3659 3.62969 14.2901 3.25352 13.1862 3.25V1.5625C13.1862 1.25312 12.9331 1 12.6237 1H11.4987C11.1893 1 10.9362 1.25312 10.9362 1.5625V3.25H10.8483C8.60888 3.25 6.80888 5.17305 7.0163 7.45469C7.16395 9.07539 8.40145 10.3938 9.96239 10.8508L13.5659 11.9055C14.0054 12.0355 14.3112 12.4434 14.3112 12.9004C14.3112 13.4734 13.8472 13.9375 13.2741 13.9375H10.9432C10.5143 13.9375 10.0925 13.8074 9.74091 13.5684C9.52645 13.4242 9.23817 13.4594 9.05536 13.6387L7.83192 14.834C7.58231 15.0766 7.61747 15.4809 7.8952 15.6953C8.75653 16.3703 9.83231 16.7465 10.9362 16.75V18.4375C10.9362 18.7469 11.1893 19 11.4987 19H12.6237C12.9331 19 13.1862 18.7469 13.1862 18.4375V16.743C14.8245 16.7113 16.3608 15.7375 16.9022 14.1871C17.6581 12.0215 16.389 9.79961 14.3534 9.20547V9.20547Z" fill="#569AFF"/>
</svg>
