<svg width="13" height="14" viewBox="0 0 13 14" fill="none" xmlns="http://www.w3.org/2000/svg">
<path d="M2.5 13.6667C1.96957 13.6667 1.46086 13.456 1.08579 13.0809C0.710714 12.7058 0.5 12.1971 0.5 11.6667C0.5 11.2667 0.62 10.8933 0.833333 10.58L4.5 4.20667V3C4.32319 3 4.15362 2.92976 4.0286 2.80474C3.90357 2.67971 3.83333 2.51014 3.83333 2.33333V1.66667C3.83333 1.31304 3.97381 0.973905 4.22386 0.723856C4.47391 0.473808 4.81305 0.333332 5.16667 0.333332H7.83333C8.18696 0.333332 8.52609 0.473808 8.77614 0.723856C9.02619 0.973905 9.16667 1.31304 9.16667 1.66667V2.33333C9.16667 2.51014 9.09643 2.67971 8.97141 2.80474C8.84638 2.92976 8.67681 3 8.5 3V4.20667L12.1667 10.58C12.38 10.8933 12.5 11.2667 12.5 11.6667C12.5 12.1971 12.2893 12.7058 11.9142 13.0809C11.5391 13.456 11.0304 13.6667 10.5 13.6667H2.5Z" fill="white"/>
</svg>
