<svg width="24" height="20" viewBox="0 0 24 20" fill="none" xmlns="http://www.w3.org/2000/svg">
<path d="M11.5 11.885V18.5H4C3.99991 17.5541 4.20111 16.619 4.59022 15.7569C4.97934 14.8947 5.54746 14.1253 6.25685 13.4996C6.96624 12.8739 7.80065 12.4063 8.70464 12.128C9.60864 11.8496 10.5615 11.7668 11.5 11.885ZM10.6667 11C7.90417 11 5.66667 8.7625 5.66667 6C5.66667 3.2375 7.90417 1 10.6667 1C13.4292 1 15.6667 3.2375 15.6667 6C15.6667 8.7625 13.4292 11 10.6667 11ZM15.4942 16.7617L18.44 13.8158L19.6192 14.9942L15.4942 19.1192L12.5475 16.1725L13.7267 14.9942L15.4933 16.7617H15.4942Z" fill="#569AFF"/>
</svg>
