<svg width="24" height="20" viewBox="0 0 24 20" fill="none" xmlns="http://www.w3.org/2000/svg">
<path d="M4.42105 11.4211L13.8947 11.422C14.248 11.422 14.5886 11.5536 14.8501 11.7911C15.1116 12.0286 15.2752 12.355 15.3092 12.7066L15.3158 12.8421V14.7368C15.3148 18.0526 11.7954 19 9.1579 19C6.57916 19 3.15632 18.0943 3.00474 14.9547L3 14.7368V12.8421C3.00002 12.4888 3.13161 12.1483 3.36911 11.8868C3.60662 11.6253 3.93301 11.4616 4.28463 11.4277L4.42105 11.4211ZM15.7781 11.4211H20.5263C20.8794 11.421 21.2199 11.5525 21.4814 11.7898C21.7428 12.0271 21.9066 12.3533 21.9407 12.7047L21.9474 12.8421V14.2632C21.9464 17.164 19.2398 18.0526 17.2105 18.0526C16.5232 18.0543 15.8396 17.9514 15.1832 17.7476C15.8018 17.0371 16.2025 16.1342 16.2565 15.0021L16.2632 14.7368V12.8421C16.2632 12.3741 16.1211 11.9412 15.8852 11.5745L15.7781 11.4211H20.5263H15.7781ZM9.1579 1C10.2886 1 11.3729 1.44915 12.1724 2.24865C12.9719 3.04815 13.4211 4.1325 13.4211 5.26316C13.4211 6.39382 12.9719 7.47817 12.1724 8.27767C11.3729 9.07716 10.2886 9.52632 9.1579 9.52632C8.02724 9.52632 6.94288 9.07716 6.14339 8.27767C5.34389 7.47817 4.89474 6.39382 4.89474 5.26316C4.89474 4.1325 5.34389 3.04815 6.14339 2.24865C6.94288 1.44915 8.02724 1 9.1579 1V1ZM17.6842 2.89474C18.5636 2.89474 19.407 3.24408 20.0288 3.86591C20.6507 4.48774 21 5.33112 21 6.21053C21 7.08993 20.6507 7.93331 20.0288 8.55514C19.407 9.17697 18.5636 9.52632 17.6842 9.52632C16.8048 9.52632 15.9614 9.17697 15.3396 8.55514C14.7178 7.93331 14.3684 7.08993 14.3684 6.21053C14.3684 5.33112 14.7178 4.48774 15.3396 3.86591C15.9614 3.24408 16.8048 2.89474 17.6842 2.89474Z" fill="#569AFF"/>
</svg>
