<svg width="16" height="16" viewBox="0 0 16 16" fill="none" xmlns="http://www.w3.org/2000/svg">
<path d="M8.66663 9.37466V14.6667H2.66663C2.66656 13.9099 2.82751 13.1619 3.1388 12.4722C3.4501 11.7824 3.90459 11.1669 4.4721 10.6663C5.03961 10.1658 5.70714 9.79173 6.43034 9.56903C7.15354 9.34633 7.91585 9.28007 8.66663 9.37466ZM7.99996 8.66666C5.78996 8.66666 3.99996 6.87666 3.99996 4.66666C3.99996 2.45666 5.78996 0.666656 7.99996 0.666656C10.21 0.666656 12 2.45666 12 4.66666C12 6.87666 10.21 8.66666 7.99996 8.66666ZM11.862 13.276L14.2186 10.9193L15.162 11.862L11.862 15.162L9.50463 12.8047L10.448 11.862L11.8613 13.276H11.862Z" fill="#569AFF"/>
</svg>
