<svg width="10" height="16" viewBox="0 0 10 16" fill="none" xmlns="http://www.w3.org/2000/svg">
<path d="M7.24993 14.5H5.99993V10.8378C8.13962 10.3412 9.689 8.34062 9.48118 6.02031L8.98275 0.454688C8.95962 0.197188 8.74681 0 8.49181 0H1.50806C1.25337 0 1.04024 0.197188 1.01743 0.454688L0.518681 6.02063C0.310869 8.34094 1.86024 10.3416 3.99993 10.8381V14.5H2.74993C2.05962 14.5 1.49993 15.0597 1.49993 15.75C1.49993 15.8881 1.61181 16 1.74993 16H8.24993C8.38806 16 8.49993 15.8881 8.49993 15.75C8.49993 15.0597 7.94025 14.5 7.24993 14.5Z" fill="white"/>
</svg>
