<svg width="23" height="20" viewBox="0 0 23 20" fill="none" xmlns="http://www.w3.org/2000/svg">
<path d="M11.4431 3.34998L11.0816 2.97155C10.0713 1.91401 8.33921 0.5 6.38019 0.5C4.6208 0.5 3.15706 1.11114 2.13439 2.13192C1.11178 3.15264 0.5 4.61305 0.5 6.3677C0.5 8.28742 1.25274 9.88053 2.41286 11.327C3.58256 12.7853 5.14156 14.0655 6.72623 15.364L6.72643 15.3641L6.76687 15.3973C8.23454 16.6012 9.79471 17.8809 10.9996 19.3075C11.1038 19.43 11.2558 19.5 11.414 19.5H11.4744C11.6326 19.5 11.7839 19.4297 11.8878 19.3075C11.8878 19.3074 11.8879 19.3073 11.888 19.3072L12.2693 19.6306C13.4523 18.2322 14.9912 16.9701 16.4801 15.7507L11.4431 3.34998ZM11.4431 3.34998L11.8047 2.97155C12.8146 1.91442 14.5509 0.5 16.5113 0.5C18.2701 0.5 19.7336 1.11111 20.7562 2.1319C21.7787 3.15263 22.3904 4.61305 22.3904 6.3677C22.3904 8.28788 21.6372 9.88123 20.4767 11.3277C19.3066 12.7861 17.7474 14.0659 16.1633 15.3639L11.4431 3.34998Z" stroke="#2F2C3A"/>
</svg>
