<svg width="23" height="20" viewBox="0 0 23 20" fill="none" xmlns="http://www.w3.org/2000/svg">
<path d="M16.5113 0C14.3305 0 12.467 1.55447 11.4431 2.62616C10.4193 1.55447 8.55998 0 6.38019 0C2.62304 0 0 2.61887 0 6.3677C0 10.4984 3.25773 13.1682 6.40932 15.7507C7.8972 16.9712 9.4371 18.2322 10.618 19.6306C10.8168 19.8647 11.1081 20 11.414 20H11.4744C11.7813 20 12.0716 19.8637 12.2693 19.6306C13.4523 18.2322 14.9912 16.9701 16.4801 15.7507C19.6306 13.1693 22.8904 10.4994 22.8904 6.3677C22.8904 2.61887 20.2674 0 16.5113 0V0Z" fill="#569AFF"/>
</svg>
