<svg width="16" height="16" viewBox="0 0 16 16" fill="none" xmlns="http://www.w3.org/2000/svg">
<path d="M9.21282 11.1559C8.3193 11.6973 7.29188 11.9851 6.24171 11.9837L9.21282 11.1559ZM9.21282 11.1559L13.128 15.07C13.2524 15.2016 13.4017 15.3073 13.5672 15.3811C13.7357 15.4562 13.9176 15.4965 14.102 15.4998C14.2865 15.503 14.4697 15.4691 14.6407 15.4C14.8117 15.3309 14.9671 15.2281 15.0976 15.0977C15.228 14.9672 15.3308 14.8119 15.3999 14.6408C15.469 14.4698 15.5029 14.2866 15.4997 14.1021C15.4964 13.9177 15.4561 13.7358 15.381 13.5673C15.3072 13.4018 15.2015 13.2525 15.0699 13.1281L11.1554 9.21258C11.7445 8.23833 12.0323 7.10773 11.9769 5.96418C11.9147 4.67853 11.4223 3.45108 10.5787 2.47887C9.73517 1.50666 8.58942 0.846079 7.32539 0.603175C6.06136 0.360271 4.75237 0.54913 3.60856 1.13944C2.46474 1.72974 1.55245 2.68725 1.01812 3.85826C0.483788 5.02927 0.358419 6.34586 0.662137 7.59667C0.965854 8.84748 1.68104 9.95997 2.69289 10.7555C3.70473 11.5511 4.95453 11.9836 6.24168 11.9837L9.21282 11.1559ZM6.32415 5.65941V6.15941H6.82415H8.57142C8.59328 6.15941 8.61425 6.16809 8.62971 6.18355C8.64516 6.19901 8.65385 6.21997 8.65385 6.24183C8.65385 6.26369 8.64516 6.28466 8.62971 6.30011C8.61425 6.31557 8.59328 6.32426 8.57142 6.32426H6.82415H6.32415V6.82426V8.57153C6.32415 8.59339 6.31546 8.61436 6.3 8.62982C6.28455 8.64527 6.26358 8.65396 6.24172 8.65396C6.21986 8.65396 6.1989 8.64527 6.18344 8.62982C6.16798 8.61436 6.1593 8.59339 6.1593 8.57153V6.82426V6.32426H5.6593H3.91202C3.89016 6.32426 3.8692 6.31557 3.85374 6.30011C3.83828 6.28466 3.8296 6.26369 3.8296 6.24183C3.8296 6.21997 3.83828 6.19901 3.85374 6.18355C3.8692 6.16809 3.89016 6.15941 3.91202 6.15941H5.6593H6.1593V5.65941V3.91213C6.1593 3.89027 6.16798 3.86931 6.18344 3.85385C6.1989 3.83839 6.21986 3.82971 6.24172 3.82971C6.26358 3.82971 6.28455 3.83839 6.3 3.85385C6.31546 3.86931 6.32415 3.89027 6.32415 3.91213V5.65941Z" fill="#DFDFDF" stroke="#2F2C3A"/>
</svg>
