<svg width="17" height="16" viewBox="0 0 17 16" fill="none" xmlns="http://www.w3.org/2000/svg">
<g filter="url(#filter0_d_701_3331)">
<path d="M12.1668 6.66667C12.1667 5.53861 11.7852 4.44372 11.0842 3.55989C10.3833 2.67606 9.40402 2.05524 8.30561 1.7983C7.2072 1.54136 6.05418 1.66341 5.03391 2.1446C4.01363 2.6258 3.18605 3.43787 2.68564 4.44886C2.18523 5.45985 2.04139 6.61035 2.27751 7.71342C2.51362 8.81649 3.11581 9.80731 3.98622 10.5249C4.85663 11.2424 5.94411 11.6446 7.07197 11.666C8.19982 11.6874 9.30177 11.3267 10.1988 10.6427L13.3621 13.8047L13.4248 13.86C13.5587 13.9636 13.7272 14.0123 13.8958 13.9963C14.0644 13.9802 14.2206 13.9006 14.3326 13.7735C14.4446 13.6465 14.5041 13.4816 14.4989 13.3123C14.4937 13.143 14.4243 12.982 14.3048 12.862L11.1428 9.69867C11.8085 8.82824 12.1684 7.76249 12.1668 6.66667V6.66667ZM9.50009 6.00001C9.6769 6.00001 9.84647 6.07024 9.97149 6.19527C10.0965 6.32029 10.1668 6.48986 10.1668 6.66667C10.1668 6.84348 10.0965 7.01305 9.97149 7.13808C9.84647 7.2631 9.6769 7.33334 9.50009 7.33334H4.83342C4.65661 7.33334 4.48704 7.2631 4.36202 7.13808C4.23699 7.01305 4.16675 6.84348 4.16675 6.66667C4.16675 6.48986 4.23699 6.32029 4.36202 6.19527C4.48704 6.07024 4.65661 6.00001 4.83342 6.00001H9.50009Z" fill="#DFDFDF"/>
<path d="M12.6668 6.66592C12.6665 5.42532 12.2469 4.22121 11.476 3.24919C10.7049 2.27698 9.62774 1.59408 8.41949 1.31144C7.21125 1.02881 5.94293 1.16306 4.82062 1.69237C3.69831 2.22169 2.78798 3.11496 2.23753 4.22706C1.68707 5.33915 1.52886 6.6047 1.78858 7.81808C2.04831 9.03146 2.71071 10.1214 3.66816 10.9107C4.62561 11.7 5.82184 12.1424 7.06249 12.1659C8.15605 12.1866 9.22747 11.8809 10.1419 11.2928L13.0086 14.1583L13.0195 14.1692L13.0311 14.1795L13.0938 14.2348L13.106 14.2456L13.1189 14.2556C13.3534 14.4369 13.6481 14.5221 13.9432 14.494C14.2383 14.4659 14.5116 14.3265 14.7076 14.1042C14.9037 13.8819 15.0077 13.5933 14.9987 13.297C14.9896 13.0007 14.8681 12.719 14.6589 12.5091L14.6584 12.5085L11.7932 9.64213C12.3633 8.75757 12.6683 7.7245 12.6668 6.66592ZM9.50009 6.50001C9.54429 6.50001 9.58668 6.51757 9.61794 6.54882C9.64919 6.58008 9.66675 6.62247 9.66675 6.66667C9.66675 6.71088 9.64919 6.75327 9.61794 6.78452C9.58668 6.81578 9.54429 6.83334 9.50009 6.83334H4.83342C4.78922 6.83334 4.74683 6.81578 4.71557 6.78452C4.68431 6.75327 4.66675 6.71088 4.66675 6.66667C4.66675 6.62247 4.68431 6.58008 4.71557 6.54882C4.74683 6.51757 4.78922 6.50001 4.83342 6.50001H9.50009Z" stroke="#2F2C3A"/>
</g>
<defs>
<filter id="filter0_d_701_3331" x="-2.83325" y="0.66687" width="22.3325" height="22.3324" filterUnits="userSpaceOnUse" color-interpolation-filters="sRGB">
<feFlood flood-opacity="0" result="BackgroundImageFix"/>
<feColorMatrix in="SourceAlpha" type="matrix" values="0 0 0 0 0 0 0 0 0 0 0 0 0 0 0 0 0 0 127 0" result="hardAlpha"/>
<feOffset dy="4"/>
<feGaussianBlur stdDeviation="2"/>
<feComposite in2="hardAlpha" operator="out"/>
<feColorMatrix type="matrix" values="0 0 0 0 0 0 0 0 0 0 0 0 0 0 0 0 0 0 0.25 0"/>
<feBlend mode="normal" in2="BackgroundImageFix" result="effect1_dropShadow_701_3331"/>
<feBlend mode="normal" in="SourceGraphic" in2="effect1_dropShadow_701_3331" result="shape"/>
</filter>
</defs>
</svg>
