<svg width="18" height="16" viewBox="0 0 18 16" fill="none" xmlns="http://www.w3.org/2000/svg">
<path d="M16.0162 9.30541L16.0162 9.30543C15.9903 9.41923 15.8892 9.5 15.7724 9.5H6.61163H5.99901L6.12177 10.1002L6.3263 11.1002L6.40807 11.5H6.81616H15.2042C15.3646 11.5 15.4835 11.649 15.448 11.8054L15.2756 12.564L15.1876 12.9512L15.5448 13.1247C15.9633 13.3278 16.25 13.7559 16.25 14.25C16.25 14.9404 15.6904 15.5 15 15.5C14.3096 15.5 13.75 14.9404 13.75 14.25C13.75 13.9003 13.8932 13.5848 14.1256 13.3572L15.0006 12.5H13.7757H7.22425H5.9993L6.87436 13.3572C7.10678 13.5849 7.25 13.9003 7.25 14.25C7.25 14.9404 6.69036 15.5 6 15.5C5.30964 15.5 4.75 14.9404 4.75 14.25C4.75 13.7871 5.00168 13.3824 5.37836 13.1658L5.69129 12.9858L5.61895 12.6321L3.4237 1.8998L3.34192 1.5H2.93384H0.75C0.611924 1.5 0.5 1.38808 0.5 1.25V0.75C0.5 0.611924 0.611924 0.5 0.75 0.5H3.95403C4.07281 0.5 4.17517 0.583573 4.19895 0.699862L4.19896 0.699889L4.48539 2.1002L4.56717 2.5H4.97525H17.2497C17.4101 2.5 17.529 2.64897 17.4935 2.80541L16.0162 9.30541Z" fill="#DFDFDF" stroke="#2F2C3A"/>
</svg>
