<svg width="17" height="16" viewBox="0 0 17 16" fill="none" xmlns="http://www.w3.org/2000/svg">
<g clip-path="url(#clip0_505_1400)">
<path d="M16.947 5.50779V8.49844C14.5794 9.37072 11.6386 9.86916 8.47352 9.86916C5.30841 9.86916 2.3676 9.37072 0 8.49844V5.50779C0 4.9595 0.448598 4.5109 0.996885 4.5109H5.10903V3.76324C5.10903 2.61682 6.05607 1.64486 7.22741 1.64486H9.71963C10.891 1.64486 11.838 2.61682 11.838 3.76324V4.5109H15.9502C16.4984 4.5109 16.947 4.9595 16.947 5.50779ZM6.35514 3.76324V4.5109H10.5919V3.76324C10.5919 3.28972 10.1931 2.89097 9.71963 2.89097H7.22741C6.75389 2.89097 6.35514 3.28972 6.35514 3.76324ZM7.22741 8.32399V8.82243C7.22741 8.97196 7.3271 9.07165 7.47664 9.07165H9.4704C9.61994 9.07165 9.71963 8.97196 9.71963 8.82243V8.32399C9.71963 8.17445 9.61994 8.07477 9.4704 8.07477H7.47664C7.3271 8.07477 7.22741 8.17445 7.22741 8.32399ZM0 15.0031V9.57009C2.39252 10.3925 5.30841 10.866 8.47352 10.866C11.6386 10.866 14.5545 10.3925 16.947 9.57009V15.0031C16.947 15.5514 16.4984 16 15.9502 16H0.996885C0.448598 16 0 15.5514 0 15.0031ZM9.71963 12.4361V11.9377C9.71963 11.7882 9.61994 11.6885 9.4704 11.6885H7.47664C7.3271 11.6885 7.22741 11.7882 7.22741 11.9377V12.4361C7.22741 12.5857 7.3271 12.6854 7.47664 12.6854H9.4704C9.61994 12.6854 9.71963 12.5857 9.71963 12.4361Z" fill="white"/>
</g>
<defs>
<clipPath id="clip0_505_1400">
<rect width="16.947" height="16" fill="white"/>
</clipPath>
</defs>
</svg>
