<svg width="12" height="12" viewBox="0 0 12 12" fill="none" xmlns="http://www.w3.org/2000/svg">
<mask id="path-1-inside-1_719_3260" fill="white">
<path d="M1.60007 0.254308L5.99953 4.65376L10.399 0.267639C10.4856 0.179503 10.5896 0.110299 10.7043 0.064404C10.819 0.0185089 10.9421 -0.00307888 11.0656 0.00100586C11.3079 0.0166897 11.5363 0.120046 11.708 0.291775C11.8797 0.463505 11.9831 0.691868 11.9988 0.934223C12 1.05338 11.977 1.17155 11.9311 1.28155C11.8853 1.39155 11.8176 1.49109 11.7321 1.57414L7.31936 6.00026L11.7321 10.4264C11.9055 10.5944 12.0014 10.8263 11.9988 11.0663C11.9831 11.3087 11.8797 11.537 11.708 11.7087C11.5363 11.8805 11.3079 11.9838 11.0656 11.9995C10.9421 12.0036 10.819 11.982 10.7043 11.9361C10.5896 11.8902 10.4856 11.821 10.399 11.7329L5.99953 7.34676L1.61341 11.7329C1.52679 11.821 1.42282 11.8902 1.30808 11.9361C1.19334 11.982 1.07033 12.0036 0.946822 11.9995C0.699946 11.9867 0.466582 11.8828 0.291778 11.708C0.116974 11.5332 0.0131232 11.2998 0.00027287 11.053C-0.000933383 10.9338 0.0220782 10.8156 0.0679117 10.7056C0.113745 10.5956 0.181446 10.4961 0.266906 10.413L4.67969 6.00026L0.253575 1.57414C0.17052 1.48997 0.105284 1.38992 0.0617626 1.27998C0.0182413 1.17003 -0.00267173 1.05244 0.00027287 0.934223C0.0159567 0.691868 0.119313 0.463505 0.291042 0.291775C0.462772 0.120046 0.691135 0.0166897 0.93349 0.00100586C1.05604 -0.0048147 1.17847 0.0146725 1.29316 0.0582527C1.40784 0.101833 1.51232 0.168572 1.60007 0.254308V0.254308Z"/>
</mask>
<path d="M1.60007 0.254308L5.99953 4.65376L10.399 0.267639C10.4856 0.179503 10.5896 0.110299 10.7043 0.064404C10.819 0.0185089 10.9421 -0.00307888 11.0656 0.00100586C11.3079 0.0166897 11.5363 0.120046 11.708 0.291775C11.8797 0.463505 11.9831 0.691868 11.9988 0.934223C12 1.05338 11.977 1.17155 11.9311 1.28155C11.8853 1.39155 11.8176 1.49109 11.7321 1.57414L7.31936 6.00026L11.7321 10.4264C11.9055 10.5944 12.0014 10.8263 11.9988 11.0663C11.9831 11.3087 11.8797 11.537 11.708 11.7087C11.5363 11.8805 11.3079 11.9838 11.0656 11.9995C10.9421 12.0036 10.819 11.982 10.7043 11.9361C10.5896 11.8902 10.4856 11.821 10.399 11.7329L5.99953 7.34676L1.61341 11.7329C1.52679 11.821 1.42282 11.8902 1.30808 11.9361C1.19334 11.982 1.07033 12.0036 0.946822 11.9995C0.699946 11.9867 0.466582 11.8828 0.291778 11.708C0.116974 11.5332 0.0131232 11.2998 0.00027287 11.053C-0.000933383 10.9338 0.0220782 10.8156 0.0679117 10.7056C0.113745 10.5956 0.181446 10.4961 0.266906 10.413L4.67969 6.00026L0.253575 1.57414C0.17052 1.48997 0.105284 1.38992 0.0617626 1.27998C0.0182413 1.17003 -0.00267173 1.05244 0.00027287 0.934223C0.0159567 0.691868 0.119313 0.463505 0.291042 0.291775C0.462772 0.120046 0.691135 0.0166897 0.93349 0.00100586C1.05604 -0.0048147 1.17847 0.0146725 1.29316 0.0582527C1.40784 0.101833 1.51232 0.168572 1.60007 0.254308V0.254308Z" fill="white"/>
<path d="M5.99953 4.65376L4.39246 6.26082L5.99709 7.86544L7.60415 6.26326L5.99953 4.65376ZM10.399 0.267639L12.0036 1.87714L12.0118 1.86896L12.0199 1.8607L10.399 0.267639ZM11.0656 0.00100586L11.2123 -2.26698L11.1765 -2.26929L11.1407 -2.27048L11.0656 0.00100586ZM11.9988 0.934223L14.2714 0.911218L14.2708 0.849272L14.2668 0.787452L11.9988 0.934223ZM11.7321 1.57414L10.1482 -0.0557438L10.1354 -0.043219L10.1227 -0.030492L11.7321 1.57414ZM7.31936 6.00026L5.70988 4.39562L4.11008 6.00026L5.70988 7.60489L7.31936 6.00026ZM11.7321 10.4264L10.1227 12.031L10.1364 12.0448L10.1504 12.0583L11.7321 10.4264ZM11.9988 11.0663L14.2668 11.2131L14.2707 11.1524L14.2714 11.0915L11.9988 11.0663ZM11.0656 11.9995L11.1407 14.271L11.1765 14.2698L11.2123 14.2675L11.0656 11.9995ZM10.399 11.7329L12.0199 10.1398L12.0118 10.1316L12.0036 10.1234L10.399 11.7329ZM5.99953 7.34676L7.60415 5.73726L5.99709 4.13507L4.39246 5.7397L5.99953 7.34676ZM1.61341 11.7329L0.0063445 10.1258L-0.000626164 10.1328L-0.00753609 10.1398L1.61341 11.7329ZM0.946822 11.9995L0.828682 14.2692L0.850181 14.2703L0.871698 14.271L0.946822 11.9995ZM0.00027287 11.053L-2.27234 11.076L-2.27186 11.1236L-2.26938 11.1711L0.00027287 11.053ZM0.266906 10.413L1.85081 12.0429L1.86247 12.0316L1.87397 12.0201L0.266906 10.413ZM4.67969 6.00026L6.28675 7.60732L7.89381 6.00026L6.28675 4.3932L4.67969 6.00026ZM0.253575 1.57414L-1.36418 3.17044L-1.35885 3.17584L-1.35349 3.1812L0.253575 1.57414ZM0.00027287 0.934223L-2.26771 0.787452L-2.27063 0.8325L-2.27175 0.877628L0.00027287 0.934223ZM0.93349 0.00100586L0.825665 -2.26916L0.806183 -2.26824L0.786719 -2.26698L0.93349 0.00100586ZM-0.00698713 1.86137L4.39246 6.26082L7.60659 3.0467L3.20713 -1.35275L-0.00698713 1.86137ZM7.60415 6.26326L12.0036 1.87714L8.79436 -1.34186L4.39491 3.04426L7.60415 6.26326ZM12.0199 1.8607C11.8861 1.99682 11.7256 2.1037 11.5484 2.17458L9.86023 -2.04577C9.45356 -1.8831 9.08506 -1.63782 8.77804 -1.32542L12.0199 1.8607ZM11.5484 2.17458C11.3712 2.24546 11.1812 2.2788 10.9904 2.27249L11.1407 -2.27048C10.7029 -2.28496 10.2669 -2.20844 9.86023 -2.04577L11.5484 2.17458ZM10.9188 2.26899C10.6103 2.24902 10.3196 2.11745 10.1009 1.89884L13.3151 -1.31529C12.753 -1.87736 12.0056 -2.21564 11.2123 -2.26698L10.9188 2.26899ZM10.1009 1.89884C9.88234 1.68022 9.75076 1.38951 9.7308 1.08099L14.2668 0.787452C14.2154 -0.00577963 13.8771 -0.753213 13.3151 -1.31529L10.1009 1.89884ZM9.72617 0.957228C9.72426 0.768599 9.76069 0.581549 9.83324 0.407423L14.029 2.15567C14.1933 1.76155 14.2757 1.33817 14.2714 0.911218L9.72617 0.957228ZM9.83324 0.407423C9.90579 0.2333 10.013 0.0757239 10.1482 -0.0557438L13.3161 3.20403C13.6223 2.90646 13.8648 2.5498 14.029 2.15567L9.83324 0.407423ZM10.1227 -0.030492L5.70988 4.39562L8.92884 7.60489L13.3416 3.17878L10.1227 -0.030492ZM5.70988 7.60489L10.1227 12.031L13.3416 8.82174L8.92884 4.39562L5.70988 7.60489ZM10.1504 12.0583C9.8738 11.7903 9.72196 11.4222 9.72619 11.041L14.2714 11.0915C14.2809 10.2305 13.9371 9.39844 13.3139 8.7944L10.1504 12.0583ZM9.7308 10.9195C9.75076 10.611 9.88234 10.3203 10.1009 10.1017L13.3151 13.3158C13.8771 12.7537 14.2154 12.0063 14.2668 11.2131L9.7308 10.9195ZM10.1009 10.1017C10.3196 9.88307 10.6103 9.75149 10.9188 9.73153L11.2123 14.2675C12.0056 14.2162 12.753 13.8779 13.3151 13.3158L10.1009 10.1017ZM10.9904 9.72803C11.1812 9.72172 11.3712 9.75506 11.5484 9.82594L9.86023 14.0463C10.2669 14.209 10.7029 14.2855 11.1407 14.271L10.9904 9.72803ZM11.5484 9.82594C11.7256 9.89681 11.8861 10.0037 12.0199 10.1398L8.77804 13.3259C9.08507 13.6383 9.45357 13.8836 9.86023 14.0463L11.5484 9.82594ZM12.0036 10.1234L7.60415 5.73726L4.39491 8.95626L8.79436 13.3424L12.0036 10.1234ZM4.39246 5.7397L0.0063445 10.1258L3.22047 13.3399L7.60659 8.95382L4.39246 5.7397ZM-0.00753609 10.1398C0.126248 10.0037 0.286817 9.89682 0.464011 9.82594L2.15215 14.0463C2.55882 13.8836 2.92732 13.6383 3.23435 13.3259L-0.00753609 10.1398ZM0.464011 9.82594C0.641207 9.75506 0.831189 9.72172 1.02195 9.72803L0.871698 14.271C1.30947 14.2855 1.74548 14.209 2.15215 14.0463L0.464011 9.82594ZM1.06496 9.72986C1.37923 9.74622 1.67631 9.87842 1.89884 10.1009L-1.31528 13.3151C-0.743145 13.8872 0.0206572 14.2271 0.828682 14.2692L1.06496 9.72986ZM1.89884 10.1009C2.12137 10.3235 2.25357 10.6205 2.26993 10.9348L-2.26938 11.1711C-2.22732 11.9791 -1.88742 12.7429 -1.31528 13.3151L1.89884 10.1009ZM2.27288 11.03C2.27479 11.2186 2.23837 11.4056 2.16581 11.5798L-2.02999 9.83151C-2.19421 10.2256 -2.27666 10.649 -2.27234 11.076L2.27288 11.03ZM2.16581 11.5798C2.09326 11.7539 1.98609 11.9115 1.85081 12.0429L-1.317 8.78316C-1.6232 9.08072 -1.86577 9.43738 -2.02999 9.83151L2.16581 11.5798ZM1.87397 12.0201L6.28675 7.60732L3.07263 4.3932L-1.34015 8.80598L1.87397 12.0201ZM6.28675 4.3932L1.86064 -0.0329175L-1.35349 3.1812L3.07263 7.60732L6.28675 4.3932ZM1.87133 -0.0221542C2.0028 0.111086 2.10607 0.269459 2.17496 0.443502L-2.05143 2.11645C-1.8955 2.51039 -1.66176 2.86886 -1.36418 3.17044L1.87133 -0.0221542ZM2.17496 0.443502C2.24385 0.617546 2.27696 0.803691 2.2723 0.990818L-2.27175 0.877628C-2.2823 1.30118 -2.20737 1.72251 -2.05143 2.11645L2.17496 0.443502ZM2.26826 1.08099C2.24829 1.38951 2.11672 1.68022 1.8981 1.89884L-1.31602 -1.31529C-1.87809 -0.753213 -2.21638 -0.00577967 -2.26771 0.787452L2.26826 1.08099ZM1.8981 1.89884C1.67949 2.11745 1.38878 2.24902 1.08026 2.26899L0.786719 -2.26698C-0.00651254 -2.21564 -0.753946 -1.87736 -1.31602 -1.31529L1.8981 1.89884ZM1.04131 2.27117C0.852051 2.28016 0.662964 2.25007 0.485842 2.18276L2.10047 -2.06626C1.69398 -2.22072 1.26002 -2.28979 0.825665 -2.26916L1.04131 2.27117ZM0.485842 2.18276C0.30872 2.11545 0.147364 2.01238 0.0118332 1.87997L3.18831 -1.37136C2.87727 -1.67524 2.50696 -1.91179 2.10047 -2.06626L0.485842 2.18276Z" fill="#2F2C3A" fill-opacity="0.8" mask="url(#path-1-inside-1_719_3260)"/>
</svg>
