<svg width="15" height="16" viewBox="0 0 15 16" fill="none" xmlns="http://www.w3.org/2000/svg">
<path d="M14.0625 0.5H0.9375C0.46875 0.5 0 0.96875 0 1.4375V11.9845C0 12.4532 0.46875 12.922 0.9375 12.922H5.625V13.8595C5.625 14.5105 4.7805 14.797 3.75 14.797V15.5H11.25V14.7968C10.2192 14.7968 9.375 14.5103 9.375 13.8593V12.9218H14.0625C14.5312 12.9218 15 12.453 15 11.9843V1.4375C15 0.96875 14.5312 0.5 14.0625 0.5ZM14.5 11.9845C14.5 12.1768 14.2545 12.422 14.0625 12.422H0.9375C0.74525 12.422 0.5 12.1768 0.5 11.9845V11.047H14.5V11.9845Z" fill="white"/>
</svg>
