<svg width="23" height="22" viewBox="0 0 23 22" fill="none" xmlns="http://www.w3.org/2000/svg">
<path fill-rule="evenodd" clip-rule="evenodd" d="M15.4166 8.24999C15.4166 9.22246 15.0303 10.1551 14.3426 10.8427C13.655 11.5304 12.7224 11.9167 11.7499 11.9167C10.7775 11.9167 9.84483 11.5304 9.15719 10.8427C8.46956 10.1551 8.08325 9.22246 8.08325 8.24999C8.08325 7.27753 8.46956 6.3449 9.15719 5.65727C9.84483 4.96964 10.7775 4.58333 11.7499 4.58333C12.7224 4.58333 13.655 4.96964 14.3426 5.65727C15.0303 6.3449 15.4166 7.27753 15.4166 8.24999ZM13.5833 8.24999C13.5833 8.73623 13.3901 9.20254 13.0463 9.54636C12.7025 9.89017 12.2361 10.0833 11.7499 10.0833C11.2637 10.0833 10.7974 9.89017 10.4536 9.54636C10.1097 9.20254 9.91659 8.73623 9.91659 8.24999C9.91659 7.76376 10.1097 7.29745 10.4536 6.95363C10.7974 6.60982 11.2637 6.41666 11.7499 6.41666C12.2361 6.41666 12.7025 6.60982 13.0463 6.95363C13.3901 7.29745 13.5833 7.76376 13.5833 8.24999Z" fill="white"/>
<path fill-rule="evenodd" clip-rule="evenodd" d="M11.75 0.916664C6.18121 0.916664 1.66663 5.43125 1.66663 11C1.66663 16.5687 6.18121 21.0833 11.75 21.0833C17.3187 21.0833 21.8333 16.5687 21.8333 11C21.8333 5.43125 17.3187 0.916664 11.75 0.916664ZM3.49996 11C3.49996 12.9158 4.15354 14.6795 5.24896 16.0802C6.01825 15.0699 7.0107 14.2512 8.14877 13.688C9.28685 13.1247 10.5397 12.8322 11.8095 12.8333C13.0629 12.8321 14.3 13.1171 15.4266 13.6664C16.5532 14.2157 17.5396 15.0149 18.3105 16.0032C19.1048 14.9615 19.6396 13.7456 19.8706 12.4562C20.1017 11.1668 20.0224 9.84091 19.6392 8.58823C19.2561 7.33556 18.5802 6.19212 17.6675 5.25253C16.7547 4.31294 15.6314 3.6042 14.3903 3.18496C13.1493 2.76573 11.8262 2.64804 10.5307 2.84164C9.2351 3.03524 8.00427 3.53456 6.94 4.2983C5.87573 5.06203 5.00862 6.06821 4.41042 7.23359C3.81222 8.39898 3.50013 9.69005 3.49996 11ZM11.75 19.25C9.85608 19.2528 8.01937 18.6013 6.55063 17.4057C7.14181 16.5593 7.92869 15.8683 8.8443 15.3915C9.75992 14.9146 10.7772 14.6659 11.8095 14.6667C12.829 14.6658 13.834 14.9083 14.741 15.3738C15.648 15.8393 16.4308 16.5145 17.0245 17.3433C15.5443 18.5778 13.6773 19.2527 11.75 19.25Z" fill="white"/>
</svg>
