<svg width="18" height="18" viewBox="0 0 18 18" fill="none" xmlns="http://www.w3.org/2000/svg">
<path d="M16.0803 3.68919C16.4467 3.81796 16.7641 4.05733 16.9886 4.37425C17.2131 4.69116 17.3337 5.06997 17.3337 5.45835V13.7917C17.3337 14.731 16.9605 15.6318 16.2963 16.296C15.6321 16.9602 14.7313 17.3334 13.792 17.3334H5.45866C5.07028 17.3334 4.69147 17.2128 4.37455 16.9883C4.05764 16.7638 3.81826 16.4464 3.68949 16.08L5.43699 16.0834H13.792C14.3998 16.0834 14.9827 15.8419 15.4124 15.4121C15.8422 14.9824 16.0837 14.3995 16.0837 13.7917V5.45835L16.0803 5.41585V3.68919ZM13.372 0.666687C13.8693 0.666687 14.3462 0.864231 14.6978 1.21586C15.0494 1.56749 15.247 2.04441 15.247 2.54169L15.247 13.3725C15.247 13.8698 15.0494 14.3467 14.6978 14.6983C14.3462 15.05 13.8693 15.2475 13.372 15.2475L2.54199 15.2475C2.04471 15.2475 1.5678 15.05 1.21617 14.6983C0.864536 14.3467 0.666992 13.8698 0.666992 13.3725L0.666992 2.54169C0.666992 2.04441 0.864536 1.56749 1.21617 1.21586C1.5678 0.864231 2.04471 0.666687 2.54199 0.666687L13.3728 0.666687H13.372ZM7.95866 4.62502C7.80763 4.62503 7.66171 4.67972 7.54788 4.77899C7.43406 4.87826 7.36003 5.01539 7.33949 5.16502L7.33366 5.25002V7.33335H5.25033C5.09197 7.3334 4.93954 7.39356 4.82383 7.50166C4.70812 7.60977 4.63776 7.75777 4.62697 7.91575C4.61618 8.07374 4.66576 8.22993 4.76569 8.35277C4.86562 8.47561 5.00845 8.55594 5.16533 8.57752L5.25033 8.58335H7.33366V10.6667C7.33371 10.825 7.39386 10.9775 7.50197 11.0932C7.61008 11.2089 7.75807 11.2792 7.91606 11.29C8.07404 11.3008 8.23024 11.2513 8.35307 11.1513C8.47591 11.0514 8.55624 10.9086 8.57783 10.7517L8.58366 10.6667V8.58335H10.667C10.8253 8.5833 10.9778 8.52315 11.0935 8.41504C11.2092 8.30694 11.2796 8.15894 11.2903 8.00095C11.3011 7.84297 11.2516 7.68678 11.1516 7.56394C11.0517 7.4411 10.9089 7.36077 10.752 7.33919L10.667 7.33335H8.58366V5.25002C8.58366 5.08426 8.51781 4.92529 8.4006 4.80808C8.28339 4.69087 8.12442 4.62502 7.95866 4.62502Z" fill="white"/>
</svg>
