<svg width="18" height="18" viewBox="0 0 18 18" fill="none" xmlns="http://www.w3.org/2000/svg">
<path d="M7.33327 0.666665C6.29041 0.667222 5.26222 0.912427 4.33135 1.38257C3.40048 1.85272 2.59289 2.53469 1.97348 3.37367C1.35407 4.21266 0.940134 5.18525 0.764927 6.21329C0.58972 7.24133 0.658134 8.29613 0.964672 9.29292C1.27121 10.2897 1.80732 11.2007 2.52991 11.9526C3.25251 12.7046 4.14143 13.2765 5.12523 13.6225C6.10904 13.9684 7.16028 14.0788 8.19448 13.9446C9.22867 13.8104 10.217 13.4355 11.0799 12.85L15.1999 16.9667C15.3144 17.0895 15.4524 17.188 15.6057 17.2563C15.759 17.3246 15.9246 17.3614 16.0924 17.3643C16.2602 17.3673 16.427 17.3364 16.5826 17.2735C16.7382 17.2107 16.8796 17.1171 16.9983 16.9984C17.117 16.8797 17.2106 16.7383 17.2735 16.5827C17.3363 16.427 17.3672 16.2603 17.3643 16.0925C17.3613 15.9246 17.3246 15.7591 17.2562 15.6058C17.1879 15.4524 17.0894 15.3144 16.9666 15.2L12.8499 11.08C13.531 10.0776 13.926 8.90859 13.9923 7.69856C14.0587 6.48853 13.794 5.28329 13.2267 4.21243C12.6594 3.14157 11.811 2.2456 10.7726 1.62086C9.73417 0.996113 8.54512 0.666225 7.33327 0.666665ZM3.1666 7.33333C3.1666 6.22826 3.60559 5.16845 4.38699 4.38705C5.16839 3.60565 6.2282 3.16666 7.33327 3.16666C8.43834 3.16666 9.49815 3.60565 10.2795 4.38705C11.0609 5.16845 11.4999 6.22826 11.4999 7.33333C11.4999 8.4384 11.0609 9.49821 10.2795 10.2796C9.49815 11.061 8.43834 11.5 7.33327 11.5C6.2282 11.5 5.16839 11.061 4.38699 10.2796C3.60559 9.49821 3.1666 8.4384 3.1666 7.33333Z" fill="white"/>
</svg>
