<svg width="14" height="18" viewBox="0 0 14 18" fill="none" xmlns="http://www.w3.org/2000/svg">
<path d="M13.1749 5.175L9.14992 1.15C8.84158 0.841664 8.41658 0.666664 7.97492 0.666664H1.99992C1.08325 0.666664 0.341585 1.41666 0.341585 2.33333L0.333252 15.6667C0.333252 16.5833 1.07492 17.3333 1.99158 17.3333H11.9999C12.9166 17.3333 13.6666 16.5833 13.6666 15.6667V6.35833C13.6666 5.91666 13.4916 5.49166 13.1749 5.175ZM9.33325 11.5H7.83325V14C7.83325 14.4583 7.45825 14.8333 6.99992 14.8333C6.54158 14.8333 6.16658 14.4583 6.16658 14V11.5H4.67492C4.29992 11.5 4.11658 11.05 4.38325 10.7917L6.71658 8.46666C6.88325 8.30833 7.14158 8.30833 7.30825 8.46666L9.63325 10.7917C9.88325 11.05 9.69992 11.5 9.33325 11.5ZM8.66658 6.5C8.20825 6.5 7.83325 6.125 7.83325 5.66666V1.91666L12.4166 6.5H8.66658Z" fill="white"/>
</svg>
