<svg width="19" height="20" viewBox="0 0 19 20" fill="none" xmlns="http://www.w3.org/2000/svg">
<path d="M15.2723 12.8652C14.7382 12.8678 14.2116 12.9904 13.7312 13.2238C13.2509 13.4572 12.829 13.7955 12.4969 14.2136L7.28128 10.953C7.47137 10.3395 7.47137 9.6829 7.28128 9.06942L12.4969 5.8088C13.0262 6.46429 13.7705 6.91126 14.5979 7.07053C15.4252 7.2298 16.2823 7.0911 17.0171 6.67898C17.752 6.26687 18.3173 5.60795 18.6129 4.81895C18.9085 4.02994 18.9153 3.16178 18.6321 2.36826C18.3489 1.57473 17.7939 0.907062 17.0656 0.483517C16.3372 0.059972 15.4824 -0.0921078 14.6527 0.0542178C13.8229 0.200543 13.0718 0.63583 12.5322 1.28297C11.9927 1.93011 11.6996 2.74733 11.7049 3.58986C11.7083 3.90892 11.7563 4.22593 11.8476 4.53166L6.63201 7.79228C6.17156 7.21264 5.54219 6.79059 4.83114 6.58464C4.1201 6.37869 3.36259 6.39904 2.66362 6.64287C1.96466 6.8867 1.35886 7.34194 0.930195 7.94547C0.501532 8.54901 0.27124 9.27095 0.27124 10.0112C0.27124 10.7515 0.501532 11.4734 0.930195 12.077C1.35886 12.6805 1.96466 13.1357 2.66362 13.3796C3.36259 13.6234 4.1201 13.6438 4.83114 13.4378C5.54219 13.2319 6.17156 12.8098 6.63201 12.2302L11.8476 15.4908C11.7563 15.7965 11.7083 16.1135 11.7049 16.4326C11.7049 17.1381 11.9141 17.8279 12.3061 18.4145C12.6981 19.0012 13.2553 19.4584 13.9071 19.7284C14.559 19.9985 15.2763 20.0691 15.9683 19.9315C16.6603 19.7938 17.2959 19.454 17.7949 18.9551C18.2938 18.4562 18.6335 17.8206 18.7712 17.1285C18.9088 16.4365 18.8382 15.7192 18.5682 15.0674C18.2982 14.4155 17.8409 13.8584 17.2543 13.4664C16.6676 13.0744 15.9779 12.8652 15.2723 12.8652V12.8652ZM15.2723 1.44941C15.6956 1.44941 16.1095 1.57495 16.4615 1.81014C16.8135 2.04534 17.0878 2.37963 17.2498 2.77075C17.4118 3.16186 17.4542 3.59224 17.3716 4.00744C17.289 4.42265 17.0852 4.80404 16.7858 5.10339C16.4865 5.40274 16.1051 5.6066 15.6899 5.68919C15.2747 5.77178 14.8443 5.72939 14.4532 5.56738C14.0621 5.40538 13.7278 5.13103 13.4926 4.77903C13.2574 4.42704 13.1319 4.0132 13.1319 3.58986C13.1319 3.02218 13.3574 2.47775 13.7588 2.07633C14.1602 1.67492 14.7046 1.44941 15.2723 1.44941V1.44941ZM3.85656 12.1517C3.43322 12.1517 3.01938 12.0261 2.66739 11.7909C2.31539 11.5557 2.04105 11.2215 1.87904 10.8303C1.71703 10.4392 1.67465 10.0088 1.75724 9.59364C1.83983 9.17843 2.04368 8.79704 2.34303 8.49769C2.64238 8.19834 3.02377 7.99449 3.43898 7.9119C3.85419 7.82931 4.28456 7.87169 4.67568 8.0337C5.06679 8.19571 5.40108 8.47005 5.63628 8.82205C5.87148 9.17404 5.99701 9.58788 5.99701 10.0112C5.99701 10.5789 5.7715 11.1233 5.37009 11.5247C4.96868 11.9262 4.42424 12.1517 3.85656 12.1517ZM15.2723 18.573C14.849 18.573 14.4351 18.4475 14.0831 18.2123C13.7311 17.9771 13.4568 17.6428 13.2948 17.2517C13.1328 16.8606 13.0904 16.4302 13.173 16.015C13.2556 15.5998 13.4594 15.2184 13.7588 14.919C14.0581 14.6197 14.4395 14.4158 14.8547 14.3333C15.2699 14.2507 15.7003 14.2931 16.0914 14.4551C16.4825 14.6171 16.8168 14.8914 17.052 15.2434C17.2872 15.5954 17.4128 16.0092 17.4128 16.4326C17.4128 17.0003 17.1872 17.5447 16.7858 17.9461C16.3844 18.3475 15.84 18.573 15.2723 18.573V18.573Z" fill="#2F2C3A"/>
</svg>
