<svg width="19" height="16" viewBox="0 0 19 16" fill="none" xmlns="http://www.w3.org/2000/svg">
<path d="M15.0141 5.38497C14.3171 2.80716 12.142 1 9.62615 1C7.87181 1 6.2376 1.88442 5.17546 3.38638C4.88232 3.31891 4.58252 3.28467 4.28171 3.28432C1.92114 3.28412 0 5.37682 0 7.95006C0 8.8728 0.248408 9.76656 0.717226 10.535C0.827431 10.7149 1.01309 10.8227 1.21166 10.8227H5.16772C5.19611 8.98301 6.69431 7.49991 8.54078 7.49991C10.3873 7.49991 11.8853 8.98301 11.9139 10.8227H17.2643C17.4523 10.8227 17.6288 10.7264 17.7414 10.5616C18.1316 9.99018 18.3396 9.31396 18.3379 8.62201C18.3377 6.70465 16.7859 5.15284 15.0141 5.38497Z" fill="#569AFF"/>
<path d="M10.6273 12.0368L8.65796 9.28444C8.64028 9.25992 8.61705 9.23994 8.59016 9.22613C8.56328 9.21232 8.5335 9.20509 8.50327 9.20502H8.50287C8.44132 9.20502 8.38413 9.2348 8.34819 9.28524L6.39151 12.0368C6.37137 12.0654 6.35944 12.0989 6.35702 12.1338C6.35461 12.1686 6.3618 12.2035 6.37781 12.2346C6.41037 12.2981 6.4759 12.3374 6.54718 12.3374H7.46735V14.8094C7.46735 14.915 7.55273 15 7.65757 15H9.36128C9.46652 15 9.55151 14.915 9.55151 14.8094V12.3374H10.4725C10.5074 12.3373 10.5416 12.3277 10.5714 12.3095C10.6011 12.2913 10.6253 12.2652 10.6413 12.2342C10.6573 12.2032 10.6645 12.1684 10.662 12.1335C10.6595 12.0987 10.6475 12.0653 10.6273 12.0368Z" fill="#569AFF"/>
</svg>
