<svg width="24" height="20" viewBox="0 0 24 20" fill="none" xmlns="http://www.w3.org/2000/svg">
<path d="M19.3038 6.63781C18.4077 3.3235 15.6111 1 12.3765 1C10.1209 1 8.01977 2.13711 6.65417 4.06821C6.27727 3.98146 5.89181 3.93744 5.50506 3.93698C2.47004 3.93673 0 6.62735 0 9.93579C0 11.1222 0.319382 12.2713 0.922147 13.2593C1.06384 13.4906 1.30255 13.6292 1.55785 13.6292H6.64421C6.68072 11.2639 8.60696 9.35703 10.981 9.35703C13.3551 9.35703 15.281 11.2639 15.3178 13.6292H22.1969C22.4387 13.6292 22.6656 13.5054 22.8104 13.2935C23.312 12.5588 23.5794 11.6894 23.5773 10.7997C23.5771 8.33454 21.5819 6.33937 19.3038 6.63781V6.63781Z" fill="#569AFF"/>
<path d="M13.6637 15.1907L11.1317 11.6519C11.1089 11.6204 11.0791 11.5947 11.0445 11.577C11.0099 11.5592 10.9716 11.5499 10.9328 11.5498H10.9323C10.8531 11.5498 10.7796 11.5881 10.7334 11.6529L8.21765 15.1907C8.19176 15.2274 8.17642 15.2705 8.17332 15.3153C8.17021 15.3602 8.17945 15.405 8.20004 15.4449C8.2419 15.5266 8.32615 15.5772 8.41781 15.5772H9.60087V18.7554C9.60087 18.8912 9.71065 19.0005 9.84545 19.0005H12.0359C12.1712 19.0005 12.2805 18.8912 12.2805 18.7554V15.5772H13.4646C13.5095 15.5771 13.5535 15.5647 13.5917 15.5412C13.63 15.5178 13.6612 15.4844 13.6817 15.4445C13.7023 15.4046 13.7115 15.3598 13.7083 15.315C13.7051 15.2703 13.6897 15.2273 13.6637 15.1907V15.1907Z" fill="#569AFF"/>
</svg>
